<svg fill="none" xmlns="http://www.w3.org/2000/svg" viewBox="0 0 192 192"><circle cx="96" cy="96" r="94.75" fill="#19062E" stroke="#6C1CC9" stroke-width="2.5"/><path d="M174.03 73.5C162.899 33.6 122.82 8.242 81.392 16.17 39.964 24.095 10.872 64.15 16.79 106.36" stroke="#6C1CC9" stroke-width="2.5" stroke-linecap="round" stroke-linejoin="round" stroke-dasharray="6 12"/><g filter="url(#a)"><path d="M17.896 111.05c9.053 43.528 51.67 71.472 95.198 62.419 43.529-9.052 71.472-51.668 62.42-95.197" fill="#9850EB"/><path d="M17.896 111.05c9.053 43.528 51.67 71.472 95.198 62.419 43.529-9.052 71.472-51.668 62.42-95.197" stroke="#6C1CC9" stroke-width="2.5" stroke-linejoin="round"/></g><path d="M100.697 113.322c43.525-9.051 77.043-24.88 74.865-35.355-2.179-10.475-39.228-11.63-82.753-2.578-43.525 9.051-77.043 24.881-74.865 35.355 2.179 10.475 39.228 11.63 82.753 2.578Z" fill="#9850EB" stroke="#6C1CC9" stroke-width="2.5" stroke-linejoin="round"/><path d="m59.563 112.208 37.104 39.959 37.104-39.959-37.104 8.563-37.105-8.563ZM51 89.376l45.667 11.416 45.666-11.417L96.667 38 51 89.376ZM96.667 38v39.959V38Z" fill="#fff"/><path d="m51 89.376 45.667-11.417 45.666 11.416" fill="#fff"/><path d="m51 89.376 45.667 11.416 45.666-11.417m-91.333 0L96.667 38M51 89.376l45.667-11.417m45.666 11.416L96.667 38m45.666 51.375L96.667 77.959m0-39.959v39.959m-37.105 34.249 37.105 39.959 37.104-39.959-37.104 8.563-37.105-8.563Z" stroke="#6C1CC9" stroke-width="2.5" stroke-linecap="round" stroke-linejoin="round"/><path d="M175.514 78.272c2.178 10.475-31.34 26.304-74.864 35.355-43.525 9.052-80.575 7.898-82.754-2.577" stroke="#6C1CC9" stroke-width="2.5" stroke-linejoin="round"/><path d="M146.5 148a7.5 7.5 0 1 0 0-15 7.5 7.5 0 0 0 0 15Z" fill="#6C1CC9" stroke="#6C1CC9" stroke-width="2.5" stroke-miterlimit="10"/><path d="M28.5 146a7.5 7.5 0 1 0 0-15 7.5 7.5 0 0 0 0 15Z" fill="#9850EB" stroke="#6C1CC9" stroke-width="2.5" stroke-miterlimit="10"/><path d="M50.502 66a7.501 7.501 0 1 0 0-15 7.501 7.501 0 1 0 0 15Z" fill="#051A2B" stroke="#6C1CC9" stroke-width="2.5" stroke-miterlimit="10"/><path d="M150.5 45a7.5 7.5 0 1 0 0-15 7.5 7.5 0 0 0 0 15Z" fill="#fff" stroke="#6C1CC9" stroke-width="2.5" stroke-miterlimit="10"/><defs><filter id="a" x="-3.327" y="58.017" width="201.794" height="138.405" filterUnits="userSpaceOnUse" color-interpolation-filters="sRGB"><feFlood flood-opacity="0" result="BackgroundImageFix"/><feGaussianBlur in="BackgroundImageFix" stdDeviation="10"/><feComposite in2="SourceAlpha" operator="in" result="effect1_backgroundBlur_16386_2553"/><feBlend in="SourceGraphic" in2="effect1_backgroundBlur_16386_2553" result="shape"/></filter></defs></svg>