<svg xmlns="http://www.w3.org/2000/svg" width="24" height="24" fill="none"><path fill="currentColor" fill-rule="evenodd" d="M14.952 3.605c-.174.061-.408.168-.803.35L7.553 7H15V4.5c0-.435-.001-.692-.018-.876 0-.01-.002-.02-.003-.029a2.096 2.096 0 0 0-.027.01ZM17 7V4.46c0-.38 0-.732-.026-1.018-.027-.296-.091-.67-.324-1.01a2 2 0 0 0-1.314-.84c-.407-.07-.773.028-1.053.128-.271.096-.59.243-.936.403L4.44 6.234l-.117.054c-.557.256-1.046.481-1.42.846a3 3 0 0 0-.73 1.14C1.998 8.768 2 9.307 2 9.92v7.92c0 .527 0 .982.03 1.356.033.395.104.789.297 1.167a3 3 0 0 0 1.311 1.311c.378.193.772.264 1.167.296.375.031.83.031 1.356.031H17.84c.527 0 .981 0 1.356-.03.395-.033.789-.104 1.167-.297a3 3 0 0 0 1.311-1.311c.193-.378.264-.772.296-1.167.031-.375.031-.83.031-1.356v-6.677c0-.528 0-.982-.03-1.357-.033-.395-.104-.789-.297-1.167a3 3 0 0 0-1.311-1.311c-.378-.193-.772-.264-1.167-.296C18.82 7 18.365 7 17.838 7H17ZM6.2 9c-.577 0-.949 0-1.232.024-.272.022-.373.06-.422.085a1 1 0 0 0-.437.437c-.025.05-.063.15-.085.422C4 10.25 4 10.623 4 11.2v6.6c0 .577 0 .949.024 1.232.022.272.06.373.085.422a1 1 0 0 0 .437.437c.05.025.15.063.422.085C5.25 20 5.623 20 6.2 20h11.6c.576 0 .949 0 1.232-.024.272-.022.372-.06.422-.085a1 1 0 0 0 .437-.437c.025-.05.063-.15.085-.422C20 18.75 20 18.377 20 17.8v-6.6c0-.576 0-.949-.024-1.232-.022-.272-.06-.373-.085-.422a1 1 0 0 0-.437-.437c-.05-.025-.15-.063-.422-.085C18.75 9 18.377 9 17.8 9H6.2Zm8.8 5.5a1.5 1.5 0 1 1 3 0 1.5 1.5 0 0 1-3 0Z" clip-rule="evenodd"/></svg>