<svg width="25" height="25" viewBox="0 0 25 25" fill="none" xmlns="http://www.w3.org/2000/svg">
<path d="M12.6041 5L12.5034 5.34183V15.2601L12.6041 15.3605L17.2079 12.6392L12.6041 5Z" fill="#343434"/>
<path d="M12.604 5L8 12.6392L12.604 15.3605V10.5465V5Z" fill="#8C8C8C"/>
<path d="M12.6041 16.2322L12.5474 16.3014V19.8344L12.6041 20L17.2108 13.5122L12.6041 16.2322Z" fill="#3C3C3B"/>
<path d="M12.604 20V16.2322L8 13.5122L12.604 20Z" fill="#8C8C8C"/>
<path d="M12.604 15.3605L17.2079 12.6391L12.604 10.5464V15.3605Z" fill="#141414"/>
<path d="M8 12.6391L12.604 15.3605V10.5464L8 12.6391Z" fill="#393939"/>
<path fill-rule="evenodd" clip-rule="evenodd" d="M12.5 1.54995C6.45243 1.54995 1.54995 6.45243 1.54995 12.5C1.54995 18.5475 6.45243 23.45 12.5 23.45C18.5475 23.45 23.45 18.5475 23.45 12.5C23.45 6.45243 18.5475 1.54995 12.5 1.54995ZM0.449951 12.5C0.449951 5.84492 5.84492 0.449951 12.5 0.449951C19.155 0.449951 24.55 5.84492 24.55 12.5C24.55 19.155 19.155 24.55 12.5 24.55C5.84492 24.55 0.449951 19.155 0.449951 12.5Z" fill="#ED1F7A"/>
<path fill-rule="evenodd" clip-rule="evenodd" d="M12.5 1.75C6.56294 1.75 1.75 6.56294 1.75 12.5C1.75 18.4371 6.56294 23.25 12.5 23.25C18.4371 23.25 23.25 18.4371 23.25 12.5C23.25 6.56294 18.4371 1.75 12.5 1.75ZM0.25 12.5C0.25 5.73451 5.73451 0.25 12.5 0.25C19.2655 0.25 24.75 5.73451 24.75 12.5C24.75 19.2655 19.2655 24.75 12.5 24.75C5.73451 24.75 0.25 19.2655 0.25 12.5ZM1.55 12.5C1.55 6.45248 6.45248 1.55 12.5 1.55C18.5475 1.55 23.45 6.45248 23.45 12.5C23.45 18.5475 18.5475 23.45 12.5 23.45C6.45248 23.45 1.55 18.5475 1.55 12.5ZM12.5 0.45C5.84497 0.45 0.45 5.84497 0.45 12.5C0.45 19.155 5.84497 24.55 12.5 24.55C19.155 24.55 24.55 19.155 24.55 12.5C24.55 5.84497 19.155 0.45 12.5 0.45Z" fill="black"/>
</svg>
