<svg width="25" height="25" viewBox="0 0 25 25" fill="none" xmlns="http://www.w3.org/2000/svg">
<rect x="0.5" y="0.5" width="24" height="24" rx="12" fill="white"/>
<rect x="0.5" y="0.5" width="24" height="24" rx="12" stroke="#F0F0F4"/>
<path d="M14.4656 5.55838L12.1835 6.8495C11.3586 7.31619 11.2853 8.47658 12.0448 9.04347L14.3748 10.7826C14.8494 11.1368 14.8036 11.8618 14.2884 12.1537L12.1858 13.3444C11.3604 13.8118 11.2882 14.9735 12.0494 15.5395L14.2678 17.189C14.4979 17.3602 14.6336 17.6301 14.6336 17.9169V17.9849C14.6336 18.1937 14.8591 18.3247 15.0405 18.2213L17.3345 16.9137C18.1598 16.4433 18.2275 15.2791 17.4622 14.7163L15.1338 13.0039C14.6558 12.6523 14.6977 11.9252 15.2129 11.6309L17.3387 10.4165C18.1627 9.94578 18.2301 8.78307 17.466 8.22027L15.2409 6.5813C15.0087 6.41034 14.8717 6.13922 14.8717 5.85093V5.79523C14.8717 5.5868 14.647 5.45575 14.4656 5.55838Z" fill="url(#paint0_linear_6180_20998)"/>
<path d="M9.46191 7.60843L7.17986 8.89954C6.35498 9.36625 6.28159 10.5266 7.0411 11.0935L9.37111 12.8326C9.84569 13.1869 9.8 13.9119 9.28469 14.2037L7.18212 15.3944C6.35675 15.8618 6.28457 17.0235 7.04574 17.5895L9.26409 19.2391C9.49426 19.4102 9.62992 19.6802 9.62992 19.967V20.0349C9.62992 20.2437 9.85539 20.3747 10.0368 20.2713L12.3308 18.9638C13.1561 18.4934 13.2238 17.3292 12.4585 16.7664L10.1301 15.054C9.65214 14.7024 9.69403 13.9753 10.2093 13.681L12.335 12.4666C13.1591 11.9958 13.2265 10.8331 12.4624 10.2703L10.2372 8.63134C10.0051 8.4604 9.86805 8.18926 9.86805 7.90097V7.84528C9.86805 7.63685 9.64331 7.5058 9.46191 7.60843Z" fill="url(#paint1_linear_6180_20998)"/>
<defs>
<linearGradient id="paint0_linear_6180_20998" x1="14.7587" y1="5.52271" x2="14.7587" y2="18.2574" gradientUnits="userSpaceOnUse">
<stop stop-color="#106B6C"/>
<stop offset="1" stop-color="#075A5A"/>
</linearGradient>
<linearGradient id="paint1_linear_6180_20998" x1="9.75508" y1="7.57275" x2="9.75508" y2="20.3074" gradientUnits="userSpaceOnUse">
<stop stop-color="#106B6C"/>
<stop offset="1" stop-color="#075A5A"/>
</linearGradient>
</defs>
</svg>
