<svg width="25" height="25" viewBox="0 0 25 25" fill="none" xmlns="http://www.w3.org/2000/svg">
<path d="M12.5 25C19.4271 25 25 19.4271 25 12.5C25 5.57288 19.4271 0 12.5 0C5.57288 0 0 5.57288 0 12.5C0 19.4271 5.57288 25 12.5 25Z" fill="#2775CA"/>
<path d="M15.9376 14.479C15.9376 12.6561 14.8439 12.0311 12.6564 11.7708C11.0939 11.5624 10.7814 11.1458 10.7814 10.4165C10.7814 9.68725 11.3022 9.21863 12.3439 9.21863C13.2814 9.21863 13.8022 9.53113 14.0626 10.3124C14.1147 10.4686 14.271 10.5728 14.4272 10.5728H15.2605C15.4689 10.5728 15.6251 10.4165 15.6251 10.2083V10.1561C15.4167 9.01025 14.4792 8.12488 13.2814 8.02075V6.77075C13.2814 6.56238 13.1251 6.40613 12.8647 6.354H12.0835C11.8751 6.354 11.7189 6.51025 11.6667 6.77075V7.96863C10.1042 8.177 9.11475 9.21863 9.11475 10.5208C9.11475 12.2395 10.1564 12.9165 12.3439 13.177C13.8022 13.4374 14.271 13.7499 14.271 14.5833C14.271 15.4166 13.5417 15.9895 12.5522 15.9895C11.198 15.9895 10.7292 15.4165 10.573 14.6353C10.521 14.427 10.3647 14.3228 10.2085 14.3228H9.323C9.11475 14.3228 8.9585 14.479 8.9585 14.6874V14.7395C9.16675 16.0415 10.0001 16.979 11.7189 17.2395V18.4895C11.7189 18.6978 11.8751 18.854 12.1355 18.9061H12.9167C13.1251 18.9061 13.2814 18.7499 13.3335 18.4895V17.2395C14.896 16.979 15.9376 15.8853 15.9376 14.479Z" fill="white"/>
<path d="M9.84379 19.948C5.78129 18.4897 3.69791 13.9585 5.20841 9.948C5.98966 7.7605 7.70841 6.09387 9.84379 5.31262C10.0522 5.2085 10.1563 5.05225 10.1563 4.79175V4.06262C10.1563 3.85425 10.0522 3.698 9.84379 3.646C9.79166 3.646 9.68754 3.646 9.63541 3.698C4.68754 5.2605 1.97916 10.521 3.54166 15.4689C4.47916 18.3855 6.71879 20.6251 9.63541 21.5626C9.84379 21.6667 10.0522 21.5626 10.1042 21.3542C10.1563 21.3022 10.1563 21.2501 10.1563 21.146V20.4167C10.1563 20.2605 10 20.0522 9.84379 19.948ZM15.3647 3.698C15.1563 3.59387 14.9479 3.698 14.8959 3.90637C14.8438 3.9585 14.8438 4.0105 14.8438 4.11475V4.84387C14.8438 5.05225 15 5.2605 15.1563 5.36475C19.2188 6.823 21.3022 11.3542 19.7917 15.3647C19.0104 17.5522 17.2917 19.2189 15.1563 20.0001C14.9479 20.1042 14.8438 20.2605 14.8438 20.521V21.2501C14.8438 21.4585 14.9479 21.6147 15.1563 21.6667C15.2084 21.6667 15.3125 21.6667 15.3647 21.6147C20.3125 20.0522 23.0209 14.7917 21.4584 9.84387C20.5209 6.87512 18.2292 4.6355 15.3647 3.698Z" fill="white"/>
</svg>
