<svg width="25" height="25" viewBox="0 0 25 25" fill="none" xmlns="http://www.w3.org/2000/svg">
<rect x="0.5" y="0.5" width="24" height="24" rx="12" fill="white"/>
<rect x="0.5" y="0.5" width="24" height="24" rx="12" stroke="#F0F0F4"/>
<path d="M17.9428 14.6759C17.9428 18.002 15.556 20.3001 12.5 20.3001C9.44397 20.3001 7.05747 18.3044 7.05737 14.6759C7.05734 13.4665 7.66212 12.257 7.9885 11.9547C9.77872 11.9545 10.4425 11.9546 12.5 11.9546C14.5575 11.9546 14.9191 11.9547 17.0116 11.9547C17.6404 12.8617 17.9428 13.4665 17.9428 14.6759Z" fill="url(#paint0_radial_3716_837)"/>
<path d="M12.5002 14.3735V9.23315L7.9646 11.9545L12.5002 14.3735Z" fill="#D9D9D9"/>
<path d="M12.5002 14.3735V9.23315L7.9646 11.9545L12.5002 14.3735Z" fill="url(#paint1_radial_3716_837)"/>
<path d="M12.5001 14.3735V9.23315L17.0356 11.9545L12.5001 14.3735Z" fill="url(#paint2_radial_3716_837)"/>
<g style="mix-blend-mode:darken">
<path d="M12.5001 12.8617V5L8.87158 10.7451L12.5001 12.8617Z" fill="url(#paint3_linear_3716_837)"/>
</g>
<g style="mix-blend-mode:overlay">
<path d="M12.5001 12.8616V8.62842L8.87158 10.745L12.5001 12.8616Z" fill="#D9D9D9"/>
<path d="M12.5001 12.8616V8.62842L8.87158 10.745L12.5001 12.8616Z" fill="url(#paint4_linear_3716_837)"/>
</g>
<g style="mix-blend-mode:darken">
<path d="M12.5002 12.8617V5L16.1287 10.7451L12.5002 12.8617Z" fill="url(#paint5_linear_3716_837)"/>
</g>
<g style="mix-blend-mode:overlay" opacity="0.5">
<path d="M12.5002 12.8616V8.62842L16.1287 10.745L12.5002 12.8616Z" fill="#D9D9D9"/>
<path d="M12.5002 12.8616V8.62842L16.1287 10.745L12.5002 12.8616Z" fill="url(#paint6_linear_3716_837)"/>
</g>
<defs>
<radialGradient id="paint0_radial_3716_837" cx="0" cy="0" r="1" gradientUnits="userSpaceOnUse" gradientTransform="translate(12.5001 20.421) rotate(-90) scale(7.86168 9.68464)">
<stop stop-color="#56F2FF"/>
<stop offset="1" stop-color="#4A8CEA"/>
</radialGradient>
<radialGradient id="paint1_radial_3716_837" cx="0" cy="0" r="1" gradientUnits="userSpaceOnUse" gradientTransform="translate(12.5002 12.2569) rotate(180) scale(4.53558 4.00199)">
<stop stop-color="#56C3F5"/>
<stop offset="1" stop-color="#56A2EE"/>
</radialGradient>
<radialGradient id="paint2_radial_3716_837" cx="0" cy="0" r="1" gradientUnits="userSpaceOnUse" gradientTransform="translate(12.5001 12.2569) scale(4.53558 4.00199)">
<stop stop-color="#56C3F5"/>
<stop offset="1" stop-color="#56A2EE"/>
</radialGradient>
<linearGradient id="paint3_linear_3716_837" x1="10.6858" y1="5" x2="10.6858" y2="12.8617" gradientUnits="userSpaceOnUse">
<stop stop-color="#FFE336"/>
<stop offset="0.409" stop-color="#F0E142"/>
<stop offset="0.784" stop-color="#9CD888"/>
<stop offset="1" stop-color="#38C8BC"/>
</linearGradient>
<linearGradient id="paint4_linear_3716_837" x1="10.6858" y1="4.99995" x2="10.6858" y2="12.8616" gradientUnits="userSpaceOnUse">
<stop stop-color="#FFE336"/>
<stop offset="0.409" stop-color="#F0E142"/>
<stop offset="0.784" stop-color="#9CD888"/>
<stop offset="1" stop-color="#38C8BC"/>
</linearGradient>
<linearGradient id="paint5_linear_3716_837" x1="14.3144" y1="5" x2="14.3144" y2="12.8617" gradientUnits="userSpaceOnUse">
<stop stop-color="#FF728F"/>
<stop offset="0.374626" stop-color="#FF7F72"/>
<stop offset="0.713979" stop-color="#B08CB1"/>
<stop offset="1" stop-color="#4591E8"/>
</linearGradient>
<linearGradient id="paint6_linear_3716_837" x1="14.3144" y1="4.99995" x2="14.3144" y2="12.8616" gradientUnits="userSpaceOnUse">
<stop stop-color="#FF728F"/>
<stop offset="0.374626" stop-color="#FF7F72"/>
<stop offset="0.713979" stop-color="#B08CB1"/>
<stop offset="1" stop-color="#4591E8"/>
</linearGradient>
</defs>
</svg>
