<svg width="17" height="17" viewBox="0 0 17 17" fill="none" xmlns="http://www.w3.org/2000/svg">
<path d="M8.25 8.49961H8.25667M10.607 10.8566C7.48283 13.9808 3.89489 15.4582 2.59315 14.1565C1.2914 12.8547 2.76878 9.26678 5.89298 6.14258C9.01717 3.01839 12.6051 1.54101 13.9069 2.84275C15.2086 4.1445 13.7312 7.73243 10.607 10.8566ZM10.607 6.14246C13.7312 9.26666 15.2086 12.8546 13.9068 14.1563C12.6051 15.4581 9.01715 13.9807 5.89295 10.8565C2.76876 7.73231 1.29137 4.14438 2.59312 2.84263C3.89487 1.54088 7.4828 3.01827 10.607 6.14246ZM8.58333 8.49961C8.58333 8.6837 8.4341 8.83294 8.25 8.83294C8.06591 8.83294 7.91667 8.6837 7.91667 8.49961C7.91667 8.31551 8.06591 8.16627 8.25 8.16627C8.4341 8.16627 8.58333 8.31551 8.58333 8.49961Z" stroke="#3B9EFF" stroke-linecap="round" stroke-linejoin="round"/>
</svg>
