<svg width="25" height="25" viewBox="0 0 25 25" fill="none" xmlns="http://www.w3.org/2000/svg">
<path d="M12.5001 24.6622C19.217 24.6622 24.6622 19.217 24.6622 12.5001C24.6622 5.78308 19.217 0.337891 12.5001 0.337891C5.78308 0.337891 0.337891 5.78308 0.337891 12.5001C0.337891 19.217 5.78308 24.6622 12.5001 24.6622Z" fill="#F7931A"/>
<path d="M18.9663 10.8346C19.2352 9.04643 17.8624 8.08789 15.9804 7.44752L16.5914 5.02701L15.1005 4.66051L14.5057 7.01658C14.1146 6.91992 13.7114 6.82729 13.3121 6.73869L13.911 4.3665L12.42 4L11.809 6.42052C11.4831 6.34802 11.1653 6.27553 10.8558 6.199V6.19095L8.80265 5.68349L8.40751 7.25823C8.40751 7.25823 9.51146 7.50794 9.49109 7.52405C10.094 7.67306 10.204 8.06776 10.1836 8.3819L9.48702 11.1367C9.52775 11.1488 9.58071 11.1609 9.64182 11.185L9.48294 11.1448L8.50935 15.0071C8.43602 15.1883 8.24864 15.4622 7.82498 15.3575C7.84128 15.3776 6.7414 15.0917 6.7414 15.0917L6 16.7792L7.94719 17.2544C8.30974 17.343 8.66007 17.4357 9.0104 17.5243L8.39529 19.973L9.88216 20.3395L10.4932 17.919C10.9006 18.0277 11.2957 18.1284 11.6786 18.2251L11.0717 20.6335L12.5626 21L13.1777 18.5553C15.7197 19.0306 17.6302 18.8372 18.4327 16.5657C19.0804 14.7373 18.4001 13.6821 17.0639 12.9934C18.0375 12.7759 18.7708 12.1436 18.9663 10.8346ZM15.5608 15.5548C15.1005 17.3833 11.9841 16.3966 10.9739 16.1469L11.7927 12.9048C12.8029 13.1545 16.0415 13.6458 15.5608 15.5548ZM16.0211 10.8105C15.6015 12.4738 13.0066 11.6281 12.1675 11.4226L12.9089 8.48259C13.7521 8.68799 16.4611 9.07463 16.0211 10.8105Z" fill="white"/>
</svg>
