<svg width="17" height="16" viewBox="0 0 17 16" fill="none" xmlns="http://www.w3.org/2000/svg">
<path d="M5.81425 14.5V13.0127C5.81425 12.3517 5.78891 11.7182 5.73823 11.0572L5.05411 1.80297C5.05411 1.63771 4.90209 1.5 4.75006 1.5H4.31932C4.16729 1.5 4.0406 1.63771 4.01526 1.80297L3.33114 11.0572C3.28046 11.6907 3.25513 12.3517 3.25513 13.0127V14.5" stroke="white" stroke-width="0.6" stroke-miterlimit="10" stroke-linecap="round" stroke-linejoin="round"/>
<path d="M13.4662 14.5V13.0127C13.4662 12.3517 13.4409 11.7182 13.3902 11.0572L12.7314 1.80297C12.7314 1.63771 12.5794 1.5 12.4274 1.5H11.9966C11.8446 1.5 11.7179 1.63771 11.6926 1.80297L11.0338 11.0572C10.9831 11.6907 10.9578 12.3517 10.9578 13.0127V14.5" stroke="white" stroke-width="0.6" stroke-miterlimit="10" stroke-linecap="round" stroke-linejoin="round"/>
<path d="M11 10.231H5.6875" stroke="white" stroke-width="0.6" stroke-miterlimit="10" stroke-linecap="round" stroke-linejoin="round"/>
<path d="M11 8.66101H5.56079" stroke="white" stroke-width="0.6" stroke-miterlimit="10" stroke-linecap="round" stroke-linejoin="round"/>
<path d="M13.2383 8.66101H16.0001V10.2309H13.3396" stroke="white" stroke-width="0.6" stroke-miterlimit="10" stroke-linecap="round" stroke-linejoin="round"/>
<path d="M3 10.2309H1V8.66101H3.43243" stroke="white" stroke-width="0.6" stroke-miterlimit="10" stroke-linecap="round" stroke-linejoin="round"/>
<path d="M5.05396 1.80298C5.05396 1.80298 8.04382 7.20128 11.7178 1.80298" stroke="white" stroke-width="0.6" stroke-miterlimit="10" stroke-linecap="round" stroke-linejoin="round"/>
<path d="M1.58276 8.661L3.93918 3.2627" stroke="white" stroke-width="0.6" stroke-miterlimit="10" stroke-linecap="round" stroke-linejoin="round"/>
<path d="M15.1892 8.661L12.8328 3.2627" stroke="white" stroke-width="0.6" stroke-miterlimit="10" stroke-linecap="round" stroke-linejoin="round"/>
<path d="M2.21631 14.5H6.87847" stroke="white" stroke-width="0.6" stroke-miterlimit="10" stroke-linecap="round" stroke-linejoin="round"/>
<path d="M9.89355 14.5H14.5557" stroke="white" stroke-width="0.6" stroke-miterlimit="10" stroke-linecap="round" stroke-linejoin="round"/>
</svg>
