<svg viewBox="0 0 63 63" xmlns="http://www.w3.org/2000/svg" xml:space="preserve" style="fill-rule:evenodd;clip-rule:evenodd;stroke-linecap:round;stroke-linejoin:round;stroke-miterlimit:1.5;">
    <path d="M31.5,0c17.398,0 31.5,14.102 31.5,31.5c0,17.398 -14.102,31.5 -31.5,31.5c-17.398,0 -31.5,-14.102 -31.5,-31.5c0,-17.398 14.102,-31.5 31.5,-31.5Z" style="fill:white;"/>
    <path d="M31.5,0c17.398,0 31.5,14.102 31.5,31.5c0,17.398 -14.102,31.5 -31.5,31.5c-17.398,0 -31.5,-14.102 -31.5,-31.5c0,-17.398 14.102,-31.5 31.5,-31.5Zm0,3.706c-15.352,-0 -27.794,12.442 -27.794,27.794c-0,15.352 12.442,27.794 27.794,27.794c15.352,0 27.794,-12.442 27.794,-27.794c0,-15.352 -12.442,-27.794 -27.794,-27.794Zm-9.462,39.565c-1.964,-0.529 -3.984,-1.152 -5.946,-1.88l1.311,-3.835c-0,0 3.526,1.579 3.947,0.227c0.42,-1.35 4.265,-15.589 4.265,-15.589c0,-0 0.893,-2.119 -1.845,-2.853c-1.477,-0.395 -1.996,-0.435 -2.159,-0.388l0.503,-3.349c2.348,0.404 4.681,0.833 6.985,1.316l1.51,-5.635l3.954,1.059l-1.469,5.481c0.906,0.223 1.804,0.457 2.696,0.704l1.463,-5.463l3.955,1.059l-1.509,5.628c1.983,0.798 7.052,3.311 5.944,7.813c-1.184,4.822 -4.585,5.01 -4.585,5.01c0,-0 5.299,1.993 3.679,8.039c-1.619,6.045 -8.191,5.418 -9.095,5.291c-0.265,-0.038 -1.297,-0.162 -2.843,-0.399l-1.664,6.208l-3.953,-1.059l1.566,-5.849c-0.862,-0.167 -1.778,-0.354 -2.732,-0.565l-1.501,5.602l-3.955,-1.059l1.478,-5.514Zm9.723,-21.752l-1.817,7.254c0,0 7.971,2.99 9.257,-1.906c0.995,-3.794 -7.44,-5.348 -7.44,-5.348Zm-2.641,10.532l-1.969,7.921c0,-0 9.727,3.611 10.915,-1.786c0.927,-4.218 -8.946,-6.135 -8.946,-6.135Z" style="fill:rgb(0,82,255);"/>
</svg>
