<svg width="17" height="16" viewBox="0 0 17 16" fill="none" xmlns="http://www.w3.org/2000/svg">
<path fill-rule="evenodd" clip-rule="evenodd" d="M0.599976 1.49998C0.599976 0.726777 1.22678 0.0999756 1.99998 0.0999756H6.24998C7.02317 0.0999756 7.64998 0.726777 7.64998 1.49998V3.24998C7.64998 4.02317 7.02317 4.64998 6.24998 4.64998H1.99998C1.22678 4.64998 0.599976 4.02317 0.599976 3.24998V1.49998ZM1.99998 0.899976C1.6686 0.899976 1.39998 1.1686 1.39998 1.49998V3.24998C1.39998 3.58135 1.6686 3.84998 1.99998 3.84998H6.24998C6.58135 3.84998 6.84998 3.58135 6.84998 3.24998V1.49998C6.84998 1.1686 6.58135 0.899976 6.24998 0.899976H1.99998Z" fill="#18181B"/>
<path fill-rule="evenodd" clip-rule="evenodd" d="M9.34998 12.75C9.34998 11.9768 9.97678 11.35 10.75 11.35H15C15.7732 11.35 16.4 11.9768 16.4 12.75V14.5C16.4 15.2732 15.7732 15.9 15 15.9H10.75C9.97678 15.9 9.34998 15.2732 9.34998 14.5V12.75ZM10.75 12.15C10.4186 12.15 10.15 12.4186 10.15 12.75V14.5C10.15 14.8313 10.4186 15.1 10.75 15.1H15C15.3313 15.1 15.6 14.8313 15.6 14.5V12.75C15.6 12.4186 15.3313 12.15 15 12.15H10.75Z" fill="#18181B"/>
<path fill-rule="evenodd" clip-rule="evenodd" d="M0.599976 7.74998C0.599976 6.97678 1.22678 6.34998 1.99998 6.34998H6.24998C7.02317 6.34998 7.64998 6.97678 7.64998 7.74998V14.5C7.64998 15.2732 7.02317 15.9 6.24998 15.9H1.99998C1.22678 15.9 0.599976 15.2732 0.599976 14.5V7.74998ZM1.99998 7.14998C1.6686 7.14998 1.39998 7.4186 1.39998 7.74998V14.5C1.39998 14.8313 1.6686 15.1 1.99998 15.1H6.24998C6.58135 15.1 6.84998 14.8313 6.84998 14.5V7.74998C6.84998 7.4186 6.58135 7.14998 6.24998 7.14998H1.99998Z" fill="#18181B"/>
<path fill-rule="evenodd" clip-rule="evenodd" d="M9.34998 1.49998C9.34998 0.726777 9.97678 0.0999756 10.75 0.0999756H15C15.7732 0.0999756 16.4 0.726777 16.4 1.49998V8.24998C16.4 9.02317 15.7732 9.64997 15 9.64997H10.75C9.97678 9.64997 9.34998 9.02317 9.34998 8.24998V1.49998ZM10.75 0.899976C10.4186 0.899976 10.15 1.1686 10.15 1.49998V8.24998C10.15 8.58135 10.4186 8.84998 10.75 8.84998H15C15.3313 8.84998 15.6 8.58135 15.6 8.24998V1.49998C15.6 1.1686 15.3313 0.899976 15 0.899976H10.75Z" fill="#18181B"/>
</svg>
