<svg width="22" height="22" viewBox="0 0 22 22" fill="none" xmlns="http://www.w3.org/2000/svg">
<path fill-rule="evenodd" clip-rule="evenodd" d="M11 22C4.92456 22 0 17.0754 0 11C0 4.92456 4.92456 0 11 0C17.0754 0 22 4.92456 22 11C22 17.0754 17.0754 22 11 22ZM17.1806 8.59513C17.1785 8.32092 17.1183 8.05028 17.0039 7.80106C16.8266 7.4085 16.5536 7.04137 16.1817 6.82069C14.7861 6.00119 13.3891 5.18856 11.9941 4.36975C11.8346 4.27625 11.6545 4.224 11.4778 4.1745C11.081 4.09831 10.6714 4.12146 10.2857 4.24188C10.0568 4.32025 9.85669 4.46325 9.64631 4.58013C8.36344 5.3295 7.08194 6.07888 5.79975 6.8255C5.63195 6.92832 5.4833 7.05952 5.36044 7.21325C5.05794 7.57762 4.84481 8.03275 4.81869 8.514V13.4544C4.81869 13.7851 4.92869 14.1027 5.07994 14.3914C5.26556 14.7242 5.51719 15.0336 5.85406 15.2212C7.23319 16.0256 8.613 16.8321 9.99281 17.6357C10.1956 17.7526 10.4211 17.8207 10.6528 17.8516C11.0969 17.9066 11.5699 17.8702 11.9701 17.6564C13.2804 16.8919 14.5874 16.1267 15.8984 15.3643C16.0909 15.2494 16.2938 15.1484 16.456 14.993C16.801 14.667 17.0408 14.2454 17.1449 13.7823C17.1909 13.5829 17.1806 13.3746 17.1806 13.1711V8.59513ZM10.9587 6.89288C10.9806 6.90026 11.0006 6.91224 11.0175 6.92802C11.0343 6.94379 11.0476 6.96298 11.0564 6.98431C11.3053 7.44769 11.6545 7.84781 12.0196 8.2225C12.2561 8.45419 12.4307 8.756 12.4898 9.086C12.5675 9.45312 12.3516 9.85944 12.0044 9.99213C11.7501 10.0911 11.4544 10.0726 11.2104 9.95294C11.1643 9.93713 11.0866 9.88281 11.0591 9.94744C11.1052 10.2651 11.2674 10.5428 11.4139 10.8185C11.4496 10.8783 11.3809 10.9202 11.3472 10.9587C11.1959 11.099 11.0674 11.2661 10.9031 11.3933C10.8542 11.3774 10.8206 11.3307 10.7848 11.297C10.6439 11.1485 10.4947 11.0055 10.3538 10.8542C10.351 10.8439 10.3482 10.8178 10.3462 10.8075C10.5029 10.5263 10.7009 10.2506 10.7518 9.92544C10.7011 9.91803 10.6494 9.92519 10.6026 9.94606C10.3434 10.0478 10.0471 10.0712 9.78588 9.96669C9.65644 9.91619 9.543 9.83177 9.45747 9.72229C9.37194 9.6128 9.31748 9.4823 9.29981 9.3445C9.27369 9.13894 9.33556 8.93406 9.42769 8.75325C9.5425 8.49888 9.73569 8.29331 9.93644 8.10287C10.3199 7.7376 10.6626 7.33191 10.9587 6.89288ZM8.46106 11.3685C8.65632 11.252 8.87631 11.1832 9.10315 11.1677C9.33 11.1521 9.55731 11.1903 9.76663 11.2791C9.79963 11.2929 9.80788 11.2997 9.83331 11.3162C9.96669 11.3685 10.0822 11.4537 10.1901 11.55C10.4342 11.7611 10.6315 12.0209 10.8811 12.2265C11.1231 11.9976 11.3458 11.7473 11.5906 11.5246C11.9343 11.2069 12.4382 11.1134 12.8844 11.2042C13.5836 11.3417 14.1027 12.0649 14.0532 12.7813C14.0305 13.2337 13.805 13.6812 13.4344 13.9391C13.1828 14.1137 12.8844 14.2381 12.5758 14.2306C12.1701 14.2464 11.7721 14.0642 11.4847 13.7803C10.9423 13.2371 10.4191 12.6748 9.87388 12.133C9.71438 11.9611 9.4985 11.836 9.262 11.8209C9.09283 11.8157 8.92513 11.8536 8.77456 11.9309C8.54081 12.0553 8.38406 12.3049 8.34556 12.5682C8.29744 12.8466 8.39713 13.1477 8.60475 13.3382C8.92581 13.6482 9.48888 13.6455 9.80169 13.3279C9.88144 13.2605 9.95569 13.1251 10.0794 13.1794C10.1564 13.2261 10.2101 13.3045 10.2774 13.365C10.329 13.4241 10.4081 13.4736 10.4156 13.5623C10.4156 13.6517 10.3366 13.7026 10.2823 13.7603C10.1379 13.9116 9.9715 14.0388 9.77625 14.1171C9.39813 14.2656 8.96225 14.2684 8.58687 14.1068C7.99287 13.8387 7.61063 13.1539 7.7055 12.4981C7.77288 12.0319 8.04719 11.5926 8.46106 11.3685ZM11.924 12.0917C11.7343 12.2897 11.539 12.4795 11.3486 12.6775C11.3513 12.6906 11.3541 12.7188 11.3561 12.7346C11.5851 12.9477 11.7851 13.1897 12.0237 13.3925C12.3448 13.6661 12.8562 13.6297 13.1539 13.3403C13.4447 13.057 13.5114 12.5627 13.2846 12.2196C13.2117 12.104 13.1115 12.0081 12.9928 11.9404C12.8741 11.8727 12.7405 11.8352 12.6039 11.8312C12.3537 11.8106 12.1021 11.9144 11.924 12.0924V12.0917Z" fill="black"/>
</svg>
