<svg width="25" height="25" viewBox="0 0 25 25" fill="none" xmlns="http://www.w3.org/2000/svg">
<path d="M12.5001 24.6622C19.217 24.6622 24.6622 19.217 24.6622 12.5001C24.6622 5.78308 19.217 0.337891 12.5001 0.337891C5.78308 0.337891 0.337891 5.78308 0.337891 12.5001C0.337891 19.217 5.78308 24.6622 12.5001 24.6622Z" fill="#142528"/>
<path d="M12.4985 5L12.4001 5.33401V15.0254L12.4985 15.1236L16.997 12.4644L12.4985 5Z" fill="#B7B7B7"/>
<path d="M12.4987 5L8 12.4644L12.4987 15.1236V10.4196V5Z" fill="white"/>
<path d="M12.4985 15.9751L12.4431 16.0427V19.495L12.4985 19.6568L16.9999 13.3174L12.4985 15.9751Z" fill="#939090"/>
<path d="M12.4987 19.6568V15.9751L8 13.3174L12.4987 19.6568Z" fill="white"/>
<path d="M12.4985 15.1234L16.9971 12.4642L12.4985 10.4194V15.1234Z" fill="#939090"/>
<path d="M8 12.4642L12.4987 15.1234V10.4194L8 12.4642Z" fill="#B1B1B1"/>
<path d="M7.275 3.4751L8.7 4.9001C8.06667 5.21676 7.085 6.0401 6.325 6.8001C5.565 7.5601 4.58333 8.7001 4.425 9.1751L3 7.7501L7.275 3.4751Z" fill="white"/>
<path d="M17.725 3.9502L16.3 5.3752C16.9333 5.69186 17.915 6.5152 18.675 7.2752C19.435 8.0352 20.4167 9.1752 20.575 9.6502L22 8.2252L17.725 3.9502Z" fill="white"/>
<path d="M7.275 21.5251L8.7 20.1001C8.06667 19.7835 7.085 18.9601 6.325 18.2001C5.565 17.4401 4.58333 16.3001 4.425 15.8251L3 17.2501L7.275 21.5251Z" fill="white"/>
<path d="M17.725 21.05L16.3 19.625C16.9333 19.3084 17.915 18.485 18.675 17.725C19.435 16.965 20.4167 15.825 20.575 15.35L22 16.775L17.725 21.05Z" fill="white"/>
</svg>
