<svg width="20" height="21" viewBox="0 0 20 21" fill="none" xmlns="http://www.w3.org/2000/svg">
<path fill-rule="evenodd" clip-rule="evenodd" d="M9.99995 18.2778C14.2955 18.2778 17.7777 14.7956 17.7777 10.5C17.7777 6.20446 14.2955 2.72223 9.99995 2.72223C5.7044 2.72223 2.22217 6.20446 2.22217 10.5C2.22217 14.7956 5.7044 18.2778 9.99995 18.2778ZM13.1741 8.11857C13.4084 7.88426 13.4084 7.50436 13.1741 7.27005C12.9398 7.03573 12.5599 7.03573 12.3255 7.27005L9.99995 9.59564L7.67435 7.27005C7.44004 7.03573 7.06014 7.03573 6.82582 7.27005C6.59151 7.50436 6.59151 7.88426 6.82582 8.11857L9.15142 10.4442L6.82582 12.7698C6.59151 13.0041 6.59151 13.384 6.82582 13.6183C7.06014 13.8526 7.44004 13.8526 7.67435 13.6183L9.99995 11.2927L12.3255 13.6183C12.5599 13.8526 12.9398 13.8526 13.1741 13.6183C13.4084 13.384 13.4084 13.0041 13.1741 12.7698L10.8485 10.4442L13.1741 8.11857Z" fill="#68665E"/>
</svg>
