<svg width="24" height="24" viewBox="0 0 24 24" fill="none" xmlns="http://www.w3.org/2000/svg">
<rect x="0.5" y="0.5" width="23" height="23" rx="11.5" fill="#A1FEA0"/>
<rect x="0.5" y="0.5" width="23" height="23" rx="11.5" stroke="#FFFDFA"/>
<path d="M8.30445 17.2698C6.83013 17.2698 5.93267 16.0745 6.30017 14.5998L7.71329 8.93242C8.08078 7.4581 9.57436 6.26243 11.049 6.26243H18.7533C17.6726 4.86421 15.9364 4 13.7979 4C9.50882 4 5.22689 7.47674 4.23376 11.7661C3.24094 16.0555 5.91248 19.5322 10.2019 19.5322C12.3403 19.5322 14.4767 18.668 16.2048 17.2698H8.30445Z" fill="#A1FEA0"/>
<path d="M8.30445 17.2698C6.83013 17.2698 5.93267 16.0745 6.30017 14.5998L7.71329 8.93242C8.08078 7.4581 9.57436 6.26243 11.049 6.26243H18.7533C17.6726 4.86421 15.9364 4 13.7979 4C9.50882 4 5.22689 7.47674 4.23376 11.7661C3.24094 16.0555 5.91248 19.5322 10.2019 19.5322C12.3403 19.5322 14.4767 18.668 16.2048 17.2698H8.30445Z" fill="black"/>
<path d="M12.1487 8.44434C11.78 8.44434 11.4066 8.74318 11.315 9.11191L10.9251 10.6751H16.9252L16.3813 12.857H10.3812L9.99132 14.4202C9.89937 14.7889 10.1237 15.0878 10.4924 15.0878H18.2526C18.9631 14.0807 19.4911 12.9546 19.7664 11.7661C20.0416 10.5775 20.0348 9.45145 19.7906 8.44434H12.1487Z" fill="#A1FEA0"/>
<path d="M12.1487 8.44434C11.78 8.44434 11.4066 8.74318 11.315 9.11191L10.9251 10.6751H16.9252L16.3813 12.857H10.3812L9.99132 14.4202C9.89937 14.7889 10.1237 15.0878 10.4924 15.0878H18.2526C18.9631 14.0807 19.4911 12.9546 19.7664 11.7661C20.0416 10.5775 20.0348 9.45145 19.7906 8.44434H12.1487Z" fill="black"/>
</svg>
