<svg width="25" height="25" viewBox="0 0 25 25" fill="none" xmlns="http://www.w3.org/2000/svg">
<path fill-rule="evenodd" clip-rule="evenodd" d="M12.4796 25C19.3719 25 24.9592 19.4218 24.9592 12.5408C24.9592 5.65974 19.3719 0.081543 12.4796 0.081543C5.5873 0.081543 0 5.65974 0 12.5408C0 19.4218 5.5873 25 12.4796 25ZM12.4654 5.05307L14.9638 8.7705L17.4623 12.4983L12.4654 15.0116L7.46864 12.4984L7.46855 12.4984L7.46859 12.4983L7.46848 12.4983L7.46867 12.4982L9.967 8.77061L12.4654 5.05328V5.05307ZM12.4654 16.0252L17.1946 13.511L12.4654 19.9529L7.74563 13.511L12.4654 16.0252H12.4654Z" fill="#00B2D2"/>
<g style="mix-blend-mode:screen">
<path d="M14.5651 16.617C14.9956 16.0712 15.7503 14.8539 15.6671 12.5821C15.6176 13.3048 15.2943 13.9819 14.7626 14.4763C14.231 14.9707 13.5305 15.2456 12.803 15.2454C10.3953 15.3825 9.1182 14.5967 8.55572 14.1595C5.16936 11.5219 5.74332 4.36076 9.29039 0.631592C7.82966 1.91466 4.60355 3.48062 3.61921 4.61509C3.59625 4.64081 3.57617 4.66653 3.55321 4.68939L1.96621 6.55826C0.316073 8.49858 0.0634406 11.0464 0.161014 13.4153C0.204061 14.4669 0.517864 16.4122 1.00066 17.4181C4.86054 20.5158 12.0425 19.8318 14.5651 16.617Z" fill="#007290"/>
<path d="M23.6001 7.04082C19.6644 4.67646 13.2917 5.44207 10.9896 8.36747C10.5661 8.90561 9.82565 10.0907 9.88039 12.289C9.91232 11.5519 10.2295 10.8554 10.7658 10.3451C11.3021 9.83466 12.016 9.54971 12.7586 9.54965L12.9229 9.55538C15.2335 9.46092 16.4695 10.2223 17.0227 10.6488C20.0393 12.9932 19.9269 18.9069 17.3742 22.8199C18.5058 22.3023 19.542 21.5998 20.4397 20.7417L20.8892 20.3095C21.016 20.1922 21.1399 20.0719 21.2637 19.9517C23.1624 18.1369 24.8442 15.7114 24.945 13.2726C25.0228 11.3949 24.8073 8.7182 23.6001 7.04082Z" fill="#007290"/>
</g>
<path fill-rule="evenodd" clip-rule="evenodd" d="M12.4654 5.05309L12.4655 5.05298V5.05319L14.9639 8.77052L17.4622 12.4981L17.4623 12.4982L17.4622 12.4982L17.4623 12.4983L17.4622 12.4982L12.4654 15.0115V10.615V10.6149L12.4654 15.0115L7.46851 12.4982L7.4686 12.4981L9.96702 8.77041L12.4654 5.05309ZM17.1947 13.5109L12.4654 16.0251L7.74564 13.5109L12.4654 19.9528L17.1947 13.5109Z" fill="white"/>
<path d="M24.9999 12.4864C25.0034 14.1285 24.6829 15.7551 24.0569 17.2731C23.431 18.7912 22.5117 20.1709 21.3518 21.3332C20.1919 22.4955 18.8141 23.4177 17.2973 24.0469C15.7805 24.676 14.1546 24.9999 12.5125 24.9999C9.81808 25.0153 7.19256 24.1494 5.03591 22.5343C3.24927 21.2123 1.84873 19.4366 0.979492 17.3911L1.80138 16.4897L2.25209 16.0125C3.02492 18.2354 4.50004 20.1466 6.45472 21.4575C8.4094 22.7683 10.7375 23.4076 13.0875 23.2789C15.4376 23.1502 17.6819 22.2604 19.4817 20.7439C21.2815 19.2274 22.5391 17.1666 23.0645 14.8725L21.1025 12.8841L23.7273 10.4716L24.6817 9.59668C24.8951 10.5451 25.0018 11.5143 24.9999 12.4864Z" fill="url(#paint0_linear_6651_47735)"/>
<path d="M24.9999 12.4864C25.0034 14.1285 24.6829 15.7551 24.0569 17.2731C23.431 18.7912 22.5117 20.1709 21.3518 21.3332C20.1919 22.4955 18.8141 23.4177 17.2973 24.0469C15.7805 24.676 14.1546 24.9999 12.5125 24.9999C9.81808 25.0153 7.19256 24.1494 5.03591 22.5343C3.24927 21.2123 1.84873 19.4366 0.979492 17.3911L1.80138 16.4897L2.25209 16.0125C3.02492 18.2354 4.50004 20.1466 6.45472 21.4575C8.4094 22.7683 10.7375 23.4076 13.0875 23.2789C15.4376 23.1502 17.6819 22.2604 19.4817 20.7439C21.2815 19.2274 22.5391 17.1666 23.0645 14.8725L21.1025 12.8841L23.7273 10.4716L24.6817 9.59668C24.8951 10.5451 25.0018 11.5143 24.9999 12.4864Z" fill="url(#paint1_linear_6651_47735)"/>
<path d="M24.3674 8.50049L23.4659 9.34786L22.9886 9.77154C22.3518 7.36064 20.9016 5.24301 18.8827 3.77613C16.8639 2.30926 14.4001 1.58298 11.9073 1.71991C9.41441 1.85684 7.04522 2.84858 5.19963 4.52772C3.35404 6.20687 2.14511 8.47057 1.77691 10.9367L3.89807 12.8962L1.93599 14.8822L1.45873 15.3588L0.583749 16.2592C0.186529 15.0365 -0.0104467 13.7579 0.000426764 12.4725C0.000423063 10.8324 0.324321 9.20843 0.953579 7.69351C1.58284 6.17859 2.5051 4.80249 3.66756 3.644C4.83002 2.48551 6.20986 1.56738 7.72808 0.942153C9.2463 0.316928 10.8731 -0.00310816 12.5153 0.000373999C13.4981 -0.00747292 14.478 0.108187 15.4319 0.34462C17.4905 0.838306 19.39 1.84546 20.9527 3.27184C22.5154 4.69823 23.6903 6.49722 24.3674 8.50049Z" fill="url(#paint2_linear_6651_47735)"/>
<path d="M1.94512 14.906L1.46843 15.3829C0.667731 12.4663 1.05774 9.35089 2.55264 6.722C4.04755 4.09311 6.5249 2.16611 9.43971 1.36492C12.3545 0.563727 15.468 0.953974 18.0953 2.44981C20.7225 3.94564 22.6483 6.42453 23.449 9.34115L22.9723 9.76513C22.3363 7.35251 20.8879 5.23336 18.8714 3.76543C16.855 2.2975 14.3942 1.5707 11.9044 1.70773C9.41452 1.84476 7.04818 2.83721 5.20482 4.51756C3.36146 6.19791 2.15398 8.46323 1.78622 10.9311L3.90483 12.892L1.94512 14.8795V14.906Z" fill="#01B0D1"/>
<path d="M23.9185 12.4864C23.9073 15.1542 22.9624 17.7338 21.2478 19.7777C19.5331 21.8217 17.1569 23.201 14.5314 23.6762C11.906 24.1515 9.19695 23.6928 6.8744 22.3797C4.55185 21.0666 2.76235 18.982 1.81641 16.4875L2.26693 16.0106C3.03943 18.2323 4.51392 20.1425 6.46776 21.4526C8.42161 22.7627 10.7487 23.4017 13.0978 23.2731C15.4468 23.1444 17.6902 22.2551 19.4892 20.7394C21.2883 19.2238 22.5452 17.164 23.0704 14.8712L21.1093 12.8839L23.7329 10.4727C23.8485 11.1379 23.9105 11.8113 23.9185 12.4864Z" fill="#01B0D1"/>
<defs>
<linearGradient id="paint0_linear_6651_47735" x1="13.0003" y1="-12.5431" x2="13.0003" y2="52.2962" gradientUnits="userSpaceOnUse">
<stop stop-color="#EB3C9C"/>
<stop offset="1" stop-color="#FFCD35"/>
</linearGradient>
<linearGradient id="paint1_linear_6651_47735" x1="12.9795" y1="-12.5493" x2="12.9795" y2="52.3217" gradientUnits="userSpaceOnUse">
<stop stop-color="#01718F"/>
<stop offset="1" stop-color="#01B0D1"/>
</linearGradient>
<linearGradient id="paint2_linear_6651_47735" x1="12.1733" y1="-23.3763" x2="12.1733" y2="45.0987" gradientUnits="userSpaceOnUse">
<stop stop-color="#01718F"/>
<stop offset="1" stop-color="#01B0D1"/>
</linearGradient>
</defs>
</svg>
