<svg width="150" height="29" viewBox="0 0 150 29" fill="none" xmlns="http://www.w3.org/2000/svg">
<path fill-rule="evenodd" clip-rule="evenodd" d="M8.81287 14.102C8.81287 11.1807 11.1811 8.8125 14.1024 8.8125C17.0238 8.8125 19.392 11.1807 19.392 14.102C19.392 17.0234 17.0238 19.3916 14.1024 19.3916C11.1811 19.3916 8.81287 17.0234 8.81287 14.102ZM14.1024 9.8248C11.7401 9.8248 9.82517 11.7398 9.82517 14.102C9.82517 16.4643 11.7401 18.3793 14.1024 18.3793C16.4647 18.3793 18.3797 16.4643 18.3797 14.102C18.3797 11.7398 16.4647 9.8248 14.1024 9.8248Z" fill="#111111"/>
<path fill-rule="evenodd" clip-rule="evenodd" d="M24.1312 3.09604C22.0606 4.70769 19.3016 7.12992 16.2546 10.0375C16.0524 10.2305 15.732 10.223 15.539 10.0207C15.346 9.81851 15.3535 9.49812 15.5558 9.30514C18.6163 6.38459 21.4022 3.9373 23.5094 2.29719C24.5603 1.47927 25.4572 0.850401 26.1424 0.464595C26.4815 0.273698 26.7952 0.127019 27.0646 0.0539101C27.1992 0.0173874 27.3495 -0.00833775 27.5004 0.00250096C27.6555 0.0136353 27.8417 0.0667099 27.992 0.217268C27.9924 0.217624 27.9927 0.217982 27.9931 0.218338C28.1691 0.395088 28.21 0.618174 28.2086 0.787287C28.2072 0.955718 28.1651 1.12748 28.1103 1.28688C27.9999 1.60828 27.7958 1.99656 27.5279 2.43031C26.9877 3.30497 26.1265 4.46147 25.02 5.81397C22.8031 8.52369 19.5602 12.0704 15.8154 15.8152C12.0706 19.56 8.5239 22.8029 5.81418 25.0198C4.46168 26.1263 3.30518 26.9875 2.43052 27.5277C1.99677 27.7956 1.60848 27.9997 1.28709 28.1101C1.12769 28.1649 0.955923 28.207 0.787492 28.2084C0.618037 28.2097 0.394391 28.1687 0.217472 27.9918L0.575379 27.6339L0.217487 27.9918C0.217483 27.9918 0.217477 27.9918 0.217472 27.9918C0.066525 27.8409 0.0139895 27.654 0.00324776 27.499C-0.00719573 27.3483 0.0187178 27.1983 0.0553668 27.0638C0.128738 26.7947 0.275486 26.4811 0.466456 26.1421C0.852386 25.4569 1.48106 24.56 2.29875 23.5089C3.93835 21.4012 6.38465 18.6143 9.30519 15.5519C9.49811 15.3496 9.8185 15.342 10.0208 15.5349C10.2231 15.7278 10.2307 16.0482 10.0378 16.2505C7.13023 19.2993 4.70895 22.0593 3.09775 24.1304C2.29004 25.1687 1.69752 26.0192 1.34848 26.6389C1.24891 26.8157 1.17395 26.9654 1.1202 27.0891C1.06104 27.1148 1.00699 27.136 0.958023 27.1528C0.84924 27.1902 0.794053 27.196 0.779261 27.1961C0.778256 27.1961 0.777772 27.1961 0.777772 27.1961C0.777772 27.1961 0.855746 27.1985 0.933285 27.276C1.00435 27.3471 1.01252 27.4202 1.01313 27.429C1.01317 27.4296 1.01318 27.4296 1.0132 27.4288C1.01338 27.4244 1.01455 27.3942 1.03204 27.3301C1.0498 27.2649 1.07867 27.1848 1.1202 27.0891C1.32076 27.0021 1.57999 26.8632 1.89857 26.6665C2.71652 26.1613 3.83261 25.333 5.17318 24.2363C7.84956 22.0467 11.3708 18.8282 15.0996 15.0994C18.8284 11.3706 22.0469 7.84935 24.2365 5.17297C25.3332 3.8324 26.1615 2.71631 26.6667 1.89836C26.864 1.57888 27.0031 1.31909 27.0901 1.11829C27.1852 1.07709 27.2649 1.04848 27.3297 1.03089C27.3933 1.01363 27.4233 1.01247 27.4278 1.01229C27.4286 1.01226 27.4286 1.01226 27.4279 1.01221C27.4187 1.01154 27.3465 1.00311 27.2762 0.93308C27.2759 0.932725 27.2755 0.932368 27.2751 0.93201C27.1987 0.854826 27.1963 0.777567 27.1963 0.777568C27.1963 0.777568 27.1963 0.778051 27.1963 0.779056C27.1962 0.793848 27.1904 0.849035 27.153 0.957818C27.1363 1.00631 27.1154 1.0598 27.0901 1.11829C26.9662 1.17194 26.8163 1.24692 26.639 1.3467C26.0195 1.69551 25.1693 2.28809 24.1312 3.09604Z" fill="#111111"/>
<path fill-rule="evenodd" clip-rule="evenodd" d="M1.11845 1.11862C1.17208 1.24229 1.247 1.39202 1.34665 1.56894C1.69546 2.18819 2.28803 3.03811 3.09601 4.07594C4.70769 6.14614 7.12995 8.90518 10.0376 11.9541C10.2305 12.1564 10.2229 12.4768 10.0206 12.6697C9.81833 12.8626 9.49794 12.855 9.30502 12.6527C6.38455 9.59036 3.9373 6.80448 2.29723 4.6978C1.47932 3.64721 0.850452 2.7507 0.464643 2.06575C0.273747 1.72684 0.127048 1.41327 0.0539255 1.1439C0.017395 1.00932 -0.00834113 0.859096 0.00250195 0.708132C0.0136554 0.552848 0.0668695 0.366419 0.217796 0.21607C0.394633 0.0395941 0.618004 -0.00134402 0.787289 3.32278e-05C0.95572 0.00140354 1.12748 0.0434786 1.28688 0.0982706C1.60828 0.208745 1.99656 0.412778 2.43031 0.680676C3.30497 1.22089 4.46147 2.08213 5.81396 3.18862C8.52369 5.40549 12.0704 8.64839 15.8152 12.3932C19.56 16.138 22.8029 19.6847 25.0198 22.3944C26.1263 23.7469 26.9875 24.9034 27.5277 25.7781C27.7956 26.2118 27.9997 26.6001 28.1102 26.9215C28.1649 27.0809 28.207 27.2527 28.2084 27.4211C28.2098 27.5906 28.1688 27.8142 27.9919 27.9911L27.9918 27.9912C27.8409 28.1421 27.654 28.1946 27.499 28.2054C27.3483 28.2158 27.1983 28.1899 27.0639 28.1533C26.7947 28.0799 26.4812 27.9331 26.1421 27.7422C25.4569 27.3562 24.56 26.7276 23.5089 25.9099C21.4012 24.2703 18.6143 21.824 15.5519 18.9034C15.3496 18.7105 15.342 18.3901 15.5349 18.1878C15.7278 17.9855 16.0482 17.9779 16.2505 18.1708C19.2993 21.0784 22.0593 23.4997 24.1304 25.1109C25.1687 25.9186 26.0192 26.5111 26.6389 26.8601C26.8157 26.9597 26.9654 27.0347 27.0891 27.0884C27.0021 26.8879 26.8632 26.6286 26.6665 26.3101C26.1613 25.4921 25.333 24.376 24.2363 23.0354C22.0467 20.3591 18.8282 16.8378 15.0994 13.109C11.3706 9.38023 7.84934 6.16172 5.17296 3.97213C3.8324 2.87539 2.71631 2.04714 1.89836 1.54195C1.57896 1.34468 1.31923 1.20564 1.11845 1.11862Z" fill="#111111"/>
<path d="M38.6465 2.20941H41.5662L53.7941 20.5635V2.20941H56.6848V25.714H53.7652L41.5373 7.35993V25.714H38.6465V2.20941Z" fill="#00171F"/>
<path d="M71.7468 22.6692C71.1879 23.6367 70.4267 24.4335 69.4631 25.0595C68.4995 25.6856 67.2854 25.9986 65.8207 25.9986C63.8357 25.9986 62.294 25.3915 61.1955 24.1774C60.097 22.9633 59.5478 21.2559 59.5478 19.0553V7.21765H62.4675V18.7708C62.4675 21.9578 63.9032 23.5514 66.7747 23.5514C68.0466 23.5514 69.0487 23.2763 69.781 22.7261C70.5326 22.176 71.0433 21.512 71.3131 20.7342C71.6022 19.9564 71.7468 19.1976 71.7468 18.4577V7.21765H74.6375V25.714H71.7468V22.6692Z" fill="#00171F"/>
<path d="M89.6981 13.6772C89.621 12.3492 89.1681 11.3058 88.3394 10.547C87.53 9.78817 86.3834 9.40876 84.8994 9.40876C81.4305 9.40876 79.6961 11.2963 79.6961 15.0715V17.9171C79.6961 19.7383 80.1201 21.1326 80.968 22.1001C81.8353 23.0486 83.1361 23.5229 84.8705 23.5229C86.4123 23.5229 87.5782 23.1435 88.3683 22.3847C89.1585 21.6258 89.6017 20.573 89.6981 19.2261L89.7559 18.0309H92.7334L92.6756 19.0553C92.5214 21.1421 91.7794 22.821 90.4497 24.092C89.1392 25.3631 87.2699 25.9986 84.8416 25.9986C82.1821 25.9986 80.1586 25.2682 78.7711 23.8075C77.4028 22.3467 76.7186 20.3074 76.7186 17.6894V15.2138C76.7186 12.5958 77.4028 10.566 78.7711 9.1242C80.1586 7.66346 82.1821 6.9331 84.8416 6.9331C87.2699 6.9331 89.1489 7.56861 90.4786 8.83964C91.8276 10.0917 92.5599 11.7706 92.6756 13.8763L92.7334 14.9292H89.7559L89.6981 13.6772Z" fill="#00171F"/>
<path d="M97.5783 2.20941V25.714H94.6876V2.20941H97.5783Z" fill="#00171F"/>
<path d="M99.6583 15.2138C99.6583 12.5958 100.352 10.566 101.74 9.1242C103.127 7.66346 105.16 6.9331 107.839 6.9331C110.344 6.9331 112.272 7.62552 113.621 9.01038C114.989 10.3763 115.673 12.3871 115.673 15.043V17.035H102.665V17.9171C102.665 19.7383 103.098 21.1326 103.966 22.1001C104.833 23.0486 106.124 23.5229 107.839 23.5229C109.227 23.5229 110.296 23.2194 111.048 22.6123C111.819 22.0053 112.262 21.1516 112.378 20.0513L112.407 19.5675H115.5L115.471 19.8521C115.297 21.7491 114.565 23.2478 113.274 24.3481C111.983 25.4484 110.171 25.9986 107.839 25.9986C105.16 25.9986 103.127 25.2682 101.74 23.8075C100.352 22.3467 99.6583 20.3074 99.6583 17.6894V15.2138ZM112.667 14.8723V13.9902C112.493 10.9359 110.865 9.40876 107.781 9.40876C106.105 9.40876 104.842 9.87354 103.994 10.8031C103.146 11.7137 102.703 13.0701 102.665 14.8723H112.667Z" fill="#00171F"/>
<path d="M129.765 22.6692C129.206 23.6367 128.445 24.4335 127.481 25.0595C126.518 25.6856 125.304 25.9986 123.839 25.9986C121.854 25.9986 120.312 25.3915 119.214 24.1774C118.115 22.9633 117.566 21.2559 117.566 19.0553V7.21765H120.486V18.7708C120.486 21.9578 121.921 23.5514 124.793 23.5514C126.065 23.5514 127.067 23.2763 127.799 22.7261C128.551 22.176 129.062 21.512 129.331 20.7342C129.62 19.9564 129.765 19.1976 129.765 18.4577V7.21765H132.656V25.714H129.765V22.6692Z" fill="#00171F"/>
<path d="M145.346 15.5837C147.042 16.058 148.237 16.6935 148.93 17.4902C149.644 18.287 150 19.3209 150 20.5919C150 22.2614 149.422 23.5798 148.266 24.5473C147.129 25.5148 145.269 25.9986 142.686 25.9986C139.796 25.9986 137.705 25.4674 136.414 24.405C135.142 23.3237 134.506 21.7681 134.506 19.7383V19.0838H137.483V19.7383C137.483 21.1041 137.888 22.0811 138.697 22.6692C139.526 23.2573 140.846 23.5514 142.658 23.5514C144.18 23.5514 145.288 23.3237 145.982 22.8684C146.695 22.3941 147.051 21.6922 147.051 20.7627C147.051 20.0418 146.801 19.4537 146.3 18.9984C145.818 18.5241 144.989 18.1068 143.814 17.7463L139.651 16.5227C138.032 16.1433 136.857 15.5742 136.124 14.8154C135.411 14.0566 135.055 13.0891 135.055 11.9129C135.055 10.4521 135.623 9.257 136.76 8.32744C137.917 7.39788 139.68 6.9331 142.05 6.9331C144.729 6.9331 146.666 7.45479 147.861 8.49817C149.056 9.52259 149.653 10.9454 149.653 12.7666V13.3072H146.676V12.795C146.676 11.5619 146.29 10.6893 145.519 10.1771C144.749 9.64589 143.592 9.38031 142.05 9.38031C140.856 9.38031 139.882 9.5795 139.131 9.97788C138.399 10.3763 138.032 10.9738 138.032 11.7706C138.032 12.3587 138.235 12.8424 138.639 13.2219C139.063 13.5823 139.776 13.9143 140.779 14.2178L145.346 15.5837Z" fill="#00171F"/>
</svg>
