<svg width="64" height="64" viewBox="0 0 64 64" fill="none" xmlns="http://www.w3.org/2000/svg">
<path d="M62.4049 29.2259C63.3925 30.9435 63.3925 33.0566 62.4049 34.7741L49.6049 57.035C48.6121 58.7617 46.7721 59.8261 44.7804 59.8261H19.2196C17.2279 59.8261 15.3879 58.7617 14.3951 57.035L1.59511 34.7741C0.607514 33.0566 0.607514 30.9435 1.59511 29.2259L14.3951 6.96507C15.3879 5.23839 17.2279 4.17395 19.2196 4.17395L44.7804 4.17395C46.7721 4.17395 48.6121 5.23839 49.6049 6.96507L62.4049 29.2259Z" fill="#D6CCFF"/>
<path d="M62.1758 28.1923C63.5604 30.542 63.5604 33.458 62.1758 35.8077L50.3901 55.8077C49.0419 58.0956 46.5842 59.5 43.9286 59.5H20.0714C17.4158 59.5 14.9581 58.0956 13.6099 55.8077L1.82418 35.8077C0.439561 33.458 0.439561 30.542 1.82418 28.1923L13.6099 8.19231C14.9581 5.90437 17.4158 4.5 20.0714 4.5L43.9286 4.5C46.5842 4.5 49.0419 5.90437 50.3901 8.19231L62.1758 28.1923Z" stroke="#FFFDFA"/>
<path d="M27.125 19.3256H19L28.75 33.9767L19 47H27.125L32.8125 39.6744L37.6875 47H45L36.0625 33.9767L45 23.3953V12L32.8125 28.2791L27.125 19.3256Z" fill="black"/>
</svg>
