<svg width="17" height="16" viewBox="0 0 17 16" fill="none" xmlns="http://www.w3.org/2000/svg">
<path d="M12.9997 8.66667C12.9997 11.6122 10.6119 14 7.66634 14C4.72082 14 2.33301 11.6122 2.33301 8.66667C2.33301 5.72115 4.72082 3.33333 7.66634 3.33333M10.9997 2L10.329 3.74369C10.235 3.9881 10.188 4.11031 10.1149 4.2131C10.0501 4.30421 9.97055 4.3838 9.87944 4.44858C9.77665 4.52168 9.65445 4.56868 9.41004 4.66268L7.66634 5.33333L9.41004 6.00399C9.65445 6.09799 9.77665 6.14499 9.87945 6.21808C9.97055 6.28286 10.0501 6.36246 10.1149 6.45356C10.188 6.55636 10.235 6.67856 10.329 6.92297L10.9997 8.66667L11.6703 6.92297C11.7643 6.67856 11.8113 6.55636 11.8844 6.45356C11.9492 6.36246 12.0288 6.28286 12.1199 6.21808C12.2227 6.14499 12.3449 6.09799 12.5893 6.00399L14.333 5.33333L12.5893 4.66268C12.3449 4.56868 12.2227 4.52168 12.1199 4.44858C12.0288 4.3838 11.9492 4.30421 11.8844 4.2131C11.8113 4.11031 11.7643 3.9881 11.6703 3.74369L10.9997 2Z" stroke="#DDDBD9" stroke-linecap="round" stroke-linejoin="round"/>
</svg>
