<svg width="24" height="24" viewBox="0 0 24 24" fill="none" xmlns="http://www.w3.org/2000/svg">
  <circle cx="12" cy="12" r="10" fill="white"/>
  <path fill-rule="evenodd" clip-rule="evenodd" d="M6.24854 9.99838C6.24854 7.92712 7.92759 6.24805 9.99883 6.24805C12.0701 6.24805 13.7491 7.92712 13.7491 9.99838C13.7491 12.0696 12.0701 13.7487 9.99883 13.7487C7.92759 13.7487 6.24854 12.0696 6.24854 9.99838ZM9.99883 6.96578C8.32398 6.96578 6.96626 8.32351 6.96626 9.99838C6.96626 11.6732 8.32398 13.031 9.99883 13.031C11.6737 13.031 13.0314 11.6732 13.0314 9.99838C13.0314 8.32351 11.6737 6.96578 9.99883 6.96578Z" fill="#111111"/>
  <path fill-rule="evenodd" clip-rule="evenodd" d="M17.1094 2.19512C15.6413 3.3378 13.6852 5.05518 11.5249 7.11667C11.3815 7.2535 11.1543 7.24818 11.0175 7.1048C10.8807 6.96141 10.886 6.73425 11.0294 6.59742C13.1993 4.52673 15.1745 2.79158 16.6686 1.62873C17.4136 1.04881 18.0495 0.602942 18.5353 0.329402C18.7757 0.194054 18.9981 0.0900576 19.1892 0.0382227C19.2846 0.0123278 19.3911 -0.00591153 19.4982 0.0017732C19.6081 0.00966752 19.7402 0.0472979 19.8467 0.154045C19.847 0.154297 19.8472 0.154551 19.8475 0.154804C19.9723 0.280121 20.0012 0.438291 20.0003 0.558193C19.9993 0.677612 19.9695 0.799393 19.9306 0.912411C19.8523 1.14028 19.7076 1.41558 19.5177 1.72311C19.1347 2.34325 18.5241 3.16322 17.7395 4.12215C16.1678 6.04337 13.8686 8.55801 11.2135 11.2131C8.5584 13.8682 6.04379 16.1675 4.12259 17.7392C3.16367 18.5238 2.34371 19.1344 1.72357 19.5174C1.41604 19.7073 1.14074 19.852 0.912875 19.9303C0.799858 19.9692 0.678078 19.999 0.55866 20C0.438517 20.001 0.279952 19.9719 0.154516 19.8464L0.408272 19.5927L0.154526 19.8464C0.154523 19.8464 0.154519 19.8464 0.154516 19.8464C0.0474938 19.7394 0.010246 19.6069 0.00263012 19.497C-0.00477433 19.3902 0.0135984 19.2838 0.0395826 19.1885C0.0916032 18.9976 0.195648 18.7754 0.331045 18.535C0.604671 18.0492 1.0504 17.4132 1.63014 16.668C2.79262 15.1736 4.52705 13.1977 6.59772 11.0264C6.7345 10.883 6.96166 10.8776 7.10509 11.0144C7.24852 11.1512 7.25391 11.3783 7.11712 11.5217C5.05567 13.6834 3.33898 15.6402 2.19664 17.1087C1.62397 17.8448 1.20387 18.4478 0.9564 18.8872C0.885806 19.0125 0.832659 19.1187 0.794553 19.2064C0.75261 19.2246 0.714285 19.2396 0.679567 19.2516C0.60244 19.2781 0.563312 19.2822 0.552825 19.2823C0.552112 19.2823 0.551769 19.2823 0.551769 19.2823C0.551769 19.2823 0.607053 19.2839 0.662028 19.3389C0.712411 19.3893 0.718205 19.4411 0.718638 19.4474C0.71867 19.4478 0.718671 19.4478 0.718691 19.4473C0.718815 19.4441 0.719648 19.4227 0.732046 19.3772C0.744638 19.331 0.765104 19.2742 0.794553 19.2064C0.93675 19.1447 1.12054 19.0463 1.34642 18.9067C1.92634 18.5486 2.71766 17.9613 3.66812 17.1837C5.56568 15.6313 8.06226 13.3493 10.706 10.7056C13.3497 8.06186 15.6316 5.56526 17.184 3.66768C17.9616 2.71721 18.5489 1.92589 18.907 1.34596C19.0469 1.11944 19.1455 0.935243 19.2072 0.792878C19.2747 0.763666 19.3312 0.743379 19.3771 0.730911C19.4222 0.718674 19.4435 0.717847 19.4467 0.717722C19.4473 0.7177 19.4473 0.717699 19.4468 0.717663C19.4402 0.717194 19.389 0.711215 19.3392 0.661562C19.339 0.66131 19.3387 0.661057 19.3385 0.660803C19.2842 0.606079 19.2826 0.551302 19.2826 0.551302C19.2826 0.551302 19.2826 0.551645 19.2826 0.552357C19.2825 0.562845 19.2784 0.601973 19.2519 0.679101C19.24 0.713485 19.2252 0.751406 19.2072 0.792878C19.1194 0.830914 19.0131 0.88408 18.8875 0.954823C18.4482 1.20213 17.8454 1.62227 17.1094 2.19512Z" fill="#111111"/>
  <path fill-rule="evenodd" clip-rule="evenodd" d="M0.792986 0.793111C0.831006 0.880797 0.884124 0.986955 0.95478 1.11239C1.20208 1.55145 1.62222 2.15404 2.19507 2.88988C3.33776 4.35767 5.05515 6.31385 7.11667 8.47556C7.25346 8.61899 7.24807 8.84614 7.10464 8.98293C6.96121 9.11971 6.73406 9.11432 6.59727 8.97089C4.52666 6.79965 2.79156 4.82443 1.62874 3.33078C1.04884 2.5859 0.602972 1.95027 0.329433 1.46464C0.194087 1.22435 0.0900773 1.00202 0.0382333 0.811032C0.0123331 0.715618 -0.00591388 0.609106 0.00177389 0.502072C0.00968169 0.391974 0.0474106 0.259794 0.154417 0.153196C0.279795 0.0280725 0.438166 -0.000952921 0.558189 2.35588e-05C0.677607 0.000995118 0.799386 0.0308267 0.912403 0.0696747C1.14027 0.148002 1.41557 0.292663 1.7231 0.482605C2.34323 0.865624 3.16319 1.47625 4.12211 2.26076C6.04331 3.83254 8.55792 6.13178 11.213 8.78689C13.8681 11.442 16.1673 13.9566 17.7391 15.8779C18.5236 16.8368 19.1342 17.6568 19.5172 18.2769C19.7072 18.5844 19.8518 18.8597 19.9301 19.0876C19.969 19.2006 19.9988 19.3224 19.9998 19.4418C20.0008 19.5619 19.9717 19.7205 19.8463 19.846L19.8463 19.846C19.7392 19.953 19.6067 19.9902 19.4968 19.9979C19.39 20.0053 19.2837 19.9869 19.1883 19.9609C18.9975 19.9089 18.7752 19.8048 18.5348 19.6694C18.049 19.3958 17.4131 18.9501 16.6678 18.3703C15.1735 17.2078 13.1976 15.4734 11.0263 13.4027C10.8829 13.2659 10.8775 13.0387 11.0143 12.8953C11.151 12.7519 11.3782 12.7465 11.5216 12.8833C13.6833 14.9448 15.6401 16.6615 17.1085 17.8038C17.8447 18.3765 18.4476 18.7966 18.887 19.0441C19.0124 19.1147 19.1185 19.1678 19.2062 19.2059C19.1445 19.0637 19.0461 18.8799 18.9066 18.6541C18.5484 18.0741 17.9611 17.2828 17.1836 16.3323C15.6311 14.4347 13.3492 11.9381 10.7055 9.2944C8.06178 6.65066 5.5652 4.36871 3.66764 2.81627C2.71718 2.03868 1.92587 1.45144 1.34594 1.09325C1.11949 0.953388 0.935334 0.85481 0.792986 0.793111Z" fill="#111111"/>
</svg>
