<svg width="64" height="64" viewBox="0 0 64 64" fill="none" xmlns="http://www.w3.org/2000/svg">
<path d="M62.4049 29.2259C63.3925 30.9435 63.3925 33.0566 62.4049 34.7741L49.6049 57.035C48.6121 58.7617 46.7721 59.8261 44.7804 59.8261H19.2196C17.2279 59.8261 15.3879 58.7617 14.3951 57.035L1.59511 34.7741C0.607514 33.0566 0.607514 30.9435 1.59511 29.2259L14.3951 6.96507C15.3879 5.23839 17.2279 4.17395 19.2196 4.17395L44.7804 4.17395C46.7721 4.17395 48.6121 5.23839 49.6049 6.96507L62.4049 29.2259Z" fill="#FFD15C"/>
<path d="M26.1015 21.8852C25.1511 22.0223 25.6811 22.8357 25.6811 22.8357L25.6537 23.0641C27.0153 25.4127 29.2634 27.8801 31.5572 29.5251C33.2478 30.7314 34.5089 32.5134 35.1212 34.5421C35.7244 36.5435 35.6147 38.6179 34.8288 40.2263C33.8784 42.1637 32.0781 43.2877 29.7752 43.3974C27.4814 43.5071 24.7581 42.6023 21.6784 40.7107C21.651 40.7838 21.6144 40.8569 21.5779 40.9208C24.2463 43.6715 27.3352 45.3165 30.5428 45.6912C33.787 46.075 37.1134 45.1611 39.9281 43.1415C39.855 43.1415 39.8001 43.1232 39.7545 43.0958C49.222 35.2732 33.723 20.7978 26.1015 21.8852Z" fill="white"/>
<path d="M50.6934 32.4037C50.6842 32.2301 50.6751 32.0199 50.6385 31.7731C50.5197 30.8136 50.1359 29.3423 49.021 27.7796C48.9662 27.7065 48.9114 27.6334 48.8565 27.5603C48.8474 27.542 48.8291 27.5237 48.82 27.5054C48.7743 27.4415 48.7194 27.3775 48.6737 27.3135L48.6646 27.3044C48.6098 27.2404 48.5549 27.1673 48.5001 27.1033C48.491 27.0851 48.4727 27.0759 48.4636 27.0576C48.4179 27.0028 48.363 26.9388 48.3173 26.884C48.3082 26.8749 48.3082 26.8749 48.2991 26.8657C48.2442 26.8018 48.1894 26.7469 48.1346 26.683C48.1254 26.6738 48.1072 26.6555 48.098 26.6464C48.0523 26.5916 48.0066 26.5459 47.9609 26.5002C47.9518 26.4911 47.9427 26.4819 47.9427 26.4728C47.8878 26.4179 47.833 26.3631 47.7873 26.3174C47.7782 26.3083 47.769 26.2991 47.7508 26.2809C47.7051 26.2352 47.6594 26.1895 47.6137 26.1529C47.6045 26.1438 47.5954 26.1347 47.5863 26.1255C47.5314 26.0798 47.4857 26.0341 47.4309 25.9884C47.4218 25.9793 47.4126 25.9702 47.4035 25.961C47.3578 25.9245 47.3121 25.8879 47.2756 25.8514C47.2664 25.8422 47.2573 25.8331 47.2481 25.8239C47.2024 25.7782 47.1476 25.7417 47.1019 25.7051C47.0928 25.696 47.0836 25.6869 47.0745 25.6777C47.0379 25.6412 46.9923 25.6138 46.9557 25.5772C46.9466 25.5681 46.9283 25.5589 46.9191 25.5498C46.8735 25.5132 46.8278 25.4767 46.7821 25.4493C46.7729 25.4401 46.7638 25.431 46.7547 25.431C46.7181 25.4036 46.6815 25.3762 46.645 25.3487C46.6359 25.3396 46.6176 25.3305 46.6084 25.3213C46.5627 25.2939 46.5262 25.2665 46.4805 25.2299C46.4714 25.2208 46.4622 25.2117 46.4439 25.2117C46.4074 25.1934 46.38 25.166 46.3526 25.1477C46.3343 25.1385 46.3251 25.1294 46.3069 25.1203C46.2703 25.102 46.2338 25.0746 46.2063 25.0563C46.1881 25.0472 46.1698 25.038 46.1606 25.0289C46.1332 25.0106 46.115 25.0015 46.0875 24.9832C46.0693 24.9741 46.051 24.9649 46.0327 24.9558C46.0144 24.9466 45.987 24.9284 45.9687 24.9192C45.9413 24.9009 45.9139 24.8827 45.8774 24.8735C45.8591 24.8644 45.8499 24.8553 45.8317 24.8461C45.8134 24.837 45.7951 24.8278 45.7677 24.8187C45.7586 24.8096 45.7494 24.8096 45.7403 24.8004C45.7037 24.7821 45.658 24.7547 45.6215 24.7365H45.6123C45.3656 24.2978 45.0914 23.8592 44.799 23.4205C41.3903 18.4309 37.6527 16.0091 33.385 16H33.3667C31.5572 16 29.9032 16.4112 28.5232 16.8133C28.1303 16.9321 27.7191 17.0509 27.3261 17.1789C26.3209 17.4896 25.3704 17.7912 24.5571 17.9191C24.0454 18.0013 23.6433 18.1933 23.36 18.4857C23.1041 18.7598 22.9487 19.1345 22.903 19.5914C22.8117 20.4779 23.1315 21.675 23.826 23.0458C25.2242 25.8239 27.9018 28.8854 30.6434 30.8501C30.9632 31.0786 31.2557 31.3253 31.5298 31.5995C31.475 31.6086 31.4202 31.6178 31.3562 31.6269C29.2086 31.9376 28.0846 34.2405 27.6368 35.4925C27.518 35.8215 27.8379 36.1139 28.1668 35.9951C29.5011 35.5474 32.2152 34.8163 33.7414 35.7575C33.7505 35.7575 33.7688 35.7484 33.7779 35.7484C34.0521 37.1192 33.9241 38.4717 33.4032 39.5226C32.7178 40.9025 31.411 41.7159 29.7204 41.7981C27.7282 41.8986 25.2791 41.0488 22.437 39.2759L22.3913 39.2485C22.3639 39.2393 22.3364 39.2211 22.3182 39.2028C24.5297 36.6897 23.2229 32.8149 22.7111 31.5447C22.6472 31.3802 22.4096 31.3802 22.3182 31.5355C21.1302 33.5552 18.681 33.3998 18.7267 35.8032C18.7267 35.8032 18.7267 35.8032 18.7267 35.7941C16.8625 34.2771 15.4734 36.2967 13.1522 35.9951C12.9694 35.9677 12.8324 36.1505 12.9237 36.3059C13.6274 37.5213 15.9852 41.0853 19.4669 40.6832L19.3024 40.802L19.9239 41.4874C22.967 44.8413 26.5859 46.8517 30.3966 47.2995C30.945 47.3635 31.4933 47.4001 32.0416 47.4001C35.2309 47.4001 38.402 46.3308 41.1253 44.3021C44.2507 41.9809 46.4165 38.7002 47.2299 35.0722C47.504 33.8659 47.6137 32.6596 47.568 31.4624C48.2534 31.1883 49.0027 31.4898 49.5967 31.8919C49.6059 31.8919 49.6059 31.9011 49.615 31.9011C49.6424 31.9194 49.6607 31.9376 49.6881 31.9468C49.6973 31.9468 49.6973 31.9559 49.7064 31.9559C49.7795 32.0016 49.8435 32.0564 49.9075 32.1021C49.9166 32.1113 49.9349 32.1204 49.944 32.1295C49.9623 32.1387 49.9714 32.157 49.9897 32.1661C50.008 32.1752 50.0171 32.1935 50.0354 32.2027C50.0445 32.2118 50.0628 32.2209 50.0719 32.2392C50.0994 32.2575 50.1268 32.2849 50.1451 32.3032C50.1542 32.3123 50.1633 32.3214 50.1725 32.3214C50.1907 32.3397 50.209 32.358 50.2273 32.3671C50.2364 32.3763 50.2456 32.3854 50.2547 32.3946C50.273 32.4128 50.2913 32.422 50.3095 32.4402C50.3187 32.4494 50.3278 32.4494 50.3278 32.4585C50.3461 32.4768 50.3735 32.5042 50.3918 32.5225C50.4009 32.5316 50.4101 32.5316 50.4101 32.5408C50.4558 32.5773 50.5106 32.5865 50.5563 32.5865C50.6111 32.5956 50.7025 32.5134 50.6934 32.4037ZM39.7545 43.1049C39.8002 43.1324 39.855 43.1415 39.9282 43.1506C37.1135 45.1794 33.7871 46.0841 30.5429 45.7003C27.3261 45.3256 24.2464 43.6807 21.5779 40.93C21.6145 40.8569 21.6511 40.7929 21.6785 40.7198C24.7582 42.6115 27.4815 43.5162 29.7752 43.4065C32.0781 43.2968 33.8784 42.1637 34.8288 40.2354C35.6239 38.627 35.7244 36.5617 35.1213 34.5513C34.509 32.5225 33.2479 30.7405 31.5572 29.5342C29.2543 27.8893 27.0154 25.4218 25.6537 23.0732L25.6812 22.8448C25.6812 22.8448 25.1511 22.0314 26.1015 21.8944C33.7231 20.7977 49.2221 35.2732 39.7545 43.1049Z" fill="black"/>
<path d="M34.0338 21.3551C33.7688 20.9805 33.2388 19.9752 34.8837 19.9752C36.5286 19.9752 39.0326 21.8303 39.5444 22.5157C39.389 22.9361 38.3289 23.0275 37.7989 22.9909C37.2689 22.9544 36.3733 22.863 35.6788 22.5157C34.9934 22.1867 34.2988 21.7298 34.0338 21.3551Z" fill="white"/>
<path d="M62.1758 28.1923C63.5604 30.542 63.5604 33.458 62.1758 35.8077L50.3901 55.8077C49.0419 58.0956 46.5842 59.5 43.9286 59.5H20.0714C17.4158 59.5 14.9581 58.0956 13.6099 55.8077L1.82418 35.8077C0.439561 33.458 0.439561 30.542 1.82418 28.1923L13.6099 8.19231C14.9581 5.90437 17.4158 4.5 20.0714 4.5L43.9286 4.5C46.5842 4.5 49.0419 5.90437 50.3901 8.19231L62.1758 28.1923Z" stroke="#FFFDFA"/>
</svg>
