<svg width="16" height="16" viewBox="0 0 16 16" fill="none" xmlns="http://www.w3.org/2000/svg">
<g clip-path="url(#clip0_40002690_123674)">
<path d="M7.99967 1.3335C8.87515 1.3335 9.74206 1.50593 10.5509 1.84097C11.3597 2.176 12.0947 2.66706 12.7137 3.28612C13.3328 3.90518 13.8238 4.64011 14.1589 5.44894C14.4939 6.25778 14.6663 7.12469 14.6663 8.00017M7.99967 1.3335V8.00016M7.99967 1.3335C4.31778 1.3335 1.33301 4.31826 1.33301 8.00016C1.33301 11.6821 4.31778 14.6668 7.99967 14.6668C11.6816 14.6668 14.6663 11.6821 14.6663 8.00017M7.99967 1.3335C11.6816 1.3335 14.6663 4.31827 14.6663 8.00017M14.6663 8.00017L7.99967 8.00016M14.6663 8.00017C14.6663 9.05224 14.4173 10.0894 13.9397 11.0268C13.4621 11.9642 12.7694 12.7752 11.9182 13.3936L7.99967 8.00016" stroke="#B3ADA8" stroke-linecap="round" stroke-linejoin="round"/>
</g>
<defs>
<clipPath id="clip0_40002690_123674">
<rect width="16" height="16" fill="white"/>
</clipPath>
</defs>
</svg>
