<svg width="423" height="201" viewBox="0 0 423 201" fill="none" xmlns="http://www.w3.org/2000/svg">
<path d="M0.99999 101.5C0.999984 228.249 103.751 331 230.5 331C357.249 331 460 228.249 460 101.5C460 -25.2494 357.249 -128 230.5 -128C103.751 -128 0.999996 -25.2494 0.99999 101.5Z" fill="#00171F" stroke="#47626B" stroke-width="1.5" stroke-linecap="round" stroke-linejoin="round" stroke-dasharray="2 4"/>
<path d="M15.1231 101.5C15.1231 220.449 111.551 316.877 230.5 316.877C349.449 316.877 445.877 220.449 445.877 101.5C445.877 -17.4494 349.449 -113.877 230.5 -113.877C111.551 -113.877 15.1231 -17.4494 15.1231 101.5Z" fill="url(#paint0_angular_14637_23448)"/>
<path d="M15.1231 101.5C15.1231 220.449 111.551 316.877 230.5 316.877C349.449 316.877 445.877 220.449 445.877 101.5C445.877 -17.4494 349.449 -113.877 230.5 -113.877C111.551 -113.877 15.1231 -17.4494 15.1231 101.5Z" stroke="#47626B" stroke-width="1.5" stroke-linejoin="round"/>
<path d="M68.9673 101.5C68.9673 190.712 141.288 263.033 230.5 263.033C319.712 263.033 392.033 190.712 392.033 101.5C392.033 12.288 319.712 -60.0327 230.5 -60.0327C141.288 -60.0327 68.9673 12.2879 68.9673 101.5Z" stroke="#8A9498" stroke-width="1.5" stroke-linecap="round" stroke-linejoin="round" stroke-dasharray="2 4"/>
<path d="M122.812 101.5C122.812 160.975 171.025 209.188 230.5 209.188C289.975 209.188 338.188 160.975 338.188 101.5C338.188 42.0253 289.975 -6.18848 230.5 -6.18848C171.025 -6.18848 122.812 42.0253 122.812 101.5Z" stroke="#8A9498" stroke-width="1.5" stroke-linecap="round" stroke-linejoin="round" stroke-dasharray="2 4"/>
<path d="M176.656 101.5C176.656 131.237 200.763 155.344 230.5 155.344C260.237 155.344 284.344 131.237 284.344 101.5C284.344 71.7626 260.237 47.6558 230.5 47.6558C200.763 47.6558 176.656 71.7626 176.656 101.5Z" stroke="#8A9498" stroke-width="1.5" stroke-linecap="round" stroke-linejoin="round" stroke-dasharray="2 4"/>
<line x1="15.873" y1="100.75" x2="445.127" y2="100.75" stroke="#8A9498" stroke-width="1.5" stroke-linecap="round" stroke-dasharray="2 4"/>
<line x1="15.123" y1="100.75" x2="230.776" y2="100.75" stroke="#47626B" stroke-width="1.5"/>
<line x1="231.25" y1="-113.127" x2="231.25" y2="316.127" stroke="#8A9498" stroke-width="1.5" stroke-linecap="round" stroke-dasharray="2 4"/>
<line x1="79.2662" y1="-50.7946" x2="382.794" y2="252.734" stroke="#8A9498" stroke-width="1.5" stroke-linecap="round" stroke-dasharray="2 4"/>
<line x1="382.794" y1="-49.7339" x2="79.2662" y2="253.794" stroke="#8A9498" stroke-width="1.5" stroke-linecap="round" stroke-dasharray="2 4"/>
<line x1="31.9237" y1="182.941" x2="428.503" y2="18.6723" stroke="#8A9498" stroke-width="1.5" stroke-linecap="round" stroke-dasharray="2 4"/>
<line x1="149.059" y1="-97.0766" x2="313.327" y2="299.502" stroke="#8A9498" stroke-width="1.5" stroke-linecap="round" stroke-dasharray="2 4"/>
<line x1="32.4975" y1="18.6727" x2="429.076" y2="182.941" stroke="#8A9498" stroke-width="1.5" stroke-linecap="round" stroke-dasharray="2 4"/>
<line x1="313.327" y1="-96.5026" x2="149.059" y2="300.076" stroke="#8A9498" stroke-width="1.5" stroke-linecap="round" stroke-dasharray="2 4"/>
<path d="M223.88 101.5C223.88 105.156 226.844 108.12 230.5 108.12C234.156 108.12 237.12 105.156 237.12 101.5C237.12 97.8438 234.156 94.8798 230.5 94.8798C226.844 94.8798 223.88 97.8438 223.88 101.5Z" fill="#00171F" stroke="#47626B" stroke-width="1.5" stroke-miterlimit="10"/>
<path d="M227.245 155.344C227.245 157.294 228.826 158.875 230.776 158.875C232.726 158.875 234.307 157.294 234.307 155.344C234.307 153.394 232.726 151.813 230.776 151.813C228.826 151.813 227.245 153.394 227.245 155.344Z" fill="#00171F" stroke="#8A9498" stroke-width="1.5" stroke-miterlimit="10"/>
<path d="M227.245 47.6558C227.245 49.6058 228.826 51.1865 230.776 51.1865C232.726 51.1865 234.307 49.6058 234.307 47.6558C234.307 45.7058 232.726 44.125 230.776 44.125C228.826 44.125 227.245 45.7058 227.245 47.6558Z" fill="#00171F" stroke="#8A9498" stroke-width="1.5" stroke-miterlimit="10"/>
<path d="M176.932 97.9649C174.982 97.9649 173.401 99.5457 173.401 101.496C173.401 103.446 174.982 105.026 176.932 105.026C178.882 105.026 180.463 103.446 180.463 101.496C180.463 99.5457 178.882 97.9649 176.932 97.9649Z" fill="#00171F" stroke="#47626B" stroke-width="1.5" stroke-miterlimit="10"/>
<path d="M284.62 97.9649C282.67 97.9649 281.09 99.5457 281.09 101.496C281.09 103.446 282.67 105.026 284.62 105.026C286.57 105.026 288.151 103.446 288.151 101.496C288.151 99.5457 286.57 97.9649 284.62 97.9649Z" fill="#00171F" stroke="#8A9498" stroke-width="1.5" stroke-miterlimit="10"/>
<path d="M338.465 97.9649C336.515 97.9649 334.934 99.5457 334.934 101.496C334.934 103.446 336.515 105.026 338.465 105.026C340.415 105.026 341.995 103.446 341.995 101.496C341.995 99.5457 340.415 97.9649 338.465 97.9649Z" fill="#00171F" stroke="#8A9498" stroke-width="1.5" stroke-miterlimit="10"/>
<path d="M392.309 97.9649C390.359 97.9649 388.778 99.5457 388.778 101.496C388.778 103.446 390.359 105.026 392.309 105.026C394.259 105.026 395.84 103.446 395.84 101.496C395.84 99.5457 394.259 97.9649 392.309 97.9649Z" fill="#00171F" stroke="#8A9498" stroke-width="1.5" stroke-miterlimit="10"/>
<path d="M123.088 97.9649C121.138 97.9649 119.557 99.5457 119.557 101.496C119.557 103.446 121.138 105.026 123.088 105.026C125.038 105.026 126.618 103.446 126.618 101.496C126.618 99.5457 125.038 97.9649 123.088 97.9649Z" fill="#00171F" stroke="#47626B" stroke-width="1.5" stroke-miterlimit="10"/>
<path d="M69.2434 97.9649C67.2934 97.9649 65.7126 99.5457 65.7126 101.496C65.7126 103.446 67.2934 105.026 69.2434 105.026C71.1934 105.026 72.7742 103.446 72.7742 101.496C72.7742 99.5457 71.1934 97.9649 69.2434 97.9649Z" fill="#00171F" stroke="#47626B" stroke-width="1.5" stroke-miterlimit="10"/>
<path d="M15.1232 94.8789C11.467 94.8789 8.50303 97.8429 8.50303 101.499C8.50303 105.155 11.467 108.119 15.1232 108.119C18.7794 108.119 21.7434 105.155 21.7434 101.499C21.7434 97.8429 18.7795 94.8789 15.1232 94.8789Z" fill="#00171F" stroke="#47626B" stroke-width="1.5" stroke-miterlimit="10"/>
<path d="M190.206 137.077C188.827 138.456 188.827 140.692 190.206 142.07C191.585 143.449 193.82 143.449 195.199 142.07C196.578 140.692 196.578 138.456 195.199 137.077C193.82 135.698 191.585 135.698 190.206 137.077Z" fill="#00171F" stroke="#8A9498" stroke-width="1.5" stroke-miterlimit="10"/>
<path d="M266.353 60.9306C264.974 62.3095 264.974 64.545 266.353 65.9239C267.732 67.3027 269.968 67.3027 271.346 65.9239C272.725 64.545 272.725 62.3095 271.346 60.9306C269.968 59.5518 267.732 59.5518 266.353 60.9306Z" fill="#00171F" stroke="#8A9498" stroke-width="1.5" stroke-miterlimit="10"/>
<path d="M304.427 22.8568C303.048 24.2356 303.048 26.4712 304.427 27.85C305.805 29.2289 308.041 29.2289 309.42 27.85C310.799 26.4712 310.799 24.2356 309.42 22.8568C308.041 21.4779 305.805 21.4779 304.427 22.8568Z" fill="#00171F" stroke="#8A9498" stroke-width="1.5" stroke-miterlimit="10"/>
<path d="M152.132 175.151C150.754 176.53 150.754 178.765 152.132 180.144C153.511 181.523 155.747 181.523 157.126 180.144C158.505 178.765 158.505 176.53 157.126 175.151C155.747 173.772 153.511 173.772 152.132 175.151Z" fill="#00171F" stroke="#8A9498" stroke-width="1.5" stroke-miterlimit="10"/>
<path d="M266.353 142.07C267.732 143.449 269.967 143.449 271.346 142.07C272.725 140.691 272.725 138.455 271.346 137.077C269.967 135.698 267.732 135.698 266.353 137.077C264.974 138.455 264.974 140.691 266.353 142.07Z" fill="#00171F" stroke="#8A9498" stroke-width="1.5" stroke-miterlimit="10"/>
<path d="M304.426 180.143C305.805 181.522 308.041 181.522 309.42 180.143C310.799 178.765 310.799 176.529 309.42 175.15C308.041 173.771 305.805 173.771 304.426 175.15C303.048 176.529 303.048 178.765 304.426 180.143Z" fill="#00171F" stroke="#8A9498" stroke-width="1.5" stroke-miterlimit="10"/>
<path d="M64.5674 196.8C64.5674 201.727 68.5614 205.721 73.4883 205.721C78.4152 205.721 82.4092 201.727 82.4092 196.8C82.4092 191.873 78.4152 187.879 73.4883 187.879C68.5614 187.879 64.5674 191.873 64.5674 196.8Z" fill="#F49B6E" stroke="white" stroke-width="1.5" stroke-miterlimit="10"/>
<path d="M285.194 128.737C285.194 133.664 289.188 137.658 294.115 137.658C299.042 137.658 303.036 133.664 303.036 128.737C303.036 123.81 299.042 119.816 294.115 119.816C289.188 119.816 285.194 123.81 285.194 128.737Z" fill="#C2E2FF" stroke="white" stroke-width="1.5" stroke-miterlimit="10"/>
<path d="M263.79 29.5608C263.79 34.4876 267.784 38.4816 272.711 38.4816C277.638 38.4816 281.632 34.4876 281.632 29.5608C281.632 24.6339 277.638 20.6399 272.711 20.6399C267.784 20.6399 263.79 24.6339 263.79 29.5608Z" fill="#F7F79E" stroke="white" stroke-width="1.5" stroke-miterlimit="10"/>
<path d="M141.78 115.813C141.78 120.74 145.774 124.734 150.701 124.734C155.628 124.734 159.622 120.74 159.622 115.813C159.622 110.886 155.628 106.892 150.701 106.892C145.774 106.892 141.78 110.886 141.78 115.813Z" fill="#6E988A" stroke="white" stroke-width="1.5" stroke-miterlimit="10"/>
<path d="M363.781 -2.03859C363.781 2.88827 367.775 6.88229 372.702 6.88229C377.629 6.88229 381.623 2.88827 381.623 -2.03859C381.623 -6.96545 377.629 -10.9595 372.702 -10.9595C367.775 -10.9595 363.781 -6.96545 363.781 -2.03859Z" fill="#CCC2FF" stroke="white" stroke-width="1.5" stroke-miterlimit="10"/>
<rect x="306.25" y="164.75" width="50.5" height="50.5" rx="25.25" transform="rotate(90 306.25 164.75)" stroke="white" stroke-width="1.5"/>
<path d="M281 198C276.582 198 273 194.418 273 190C273 185.582 276.582 182 281 182M281 198C285.418 198 289 194.418 289 190C289 185.582 285.418 182 281 182M281 198C275.109 198 270.333 193.224 270.333 187.333C270.333 181.442 275.109 176.667 281 176.667M281 182C286.891 182 291.667 186.776 291.667 192.667C291.667 198.558 286.891 203.333 281 203.333M281 191.333C280.264 191.333 279.667 190.736 279.667 190C279.667 189.264 280.264 188.667 281 188.667C281.736 188.667 282.333 189.264 282.333 190C282.333 190.736 281.736 191.333 281 191.333Z" stroke="white" stroke-width="1.5" stroke-linecap="round" stroke-linejoin="round"/>
<rect x="335.75" y="101.75" width="50.5" height="50.5" rx="25.25" stroke="white" stroke-width="1.5"/>
<path d="M362.993 133.317C363.477 132.698 364.334 131.314 364.237 128.739C364.181 129.56 363.815 130.328 363.215 130.889C362.614 131.45 361.822 131.761 361 131.761C358.28 131.917 356.832 131.028 356.196 130.528C352.367 127.538 353.018 119.401 357.031 115.173C355.372 116.627 353.627 118.404 352.512 119.697L352.442 119.778L350.649 121.9C348.78 124.102 347.1 126.833 347.213 129.526C347.261 130.716 347.654 131.906 348.257 133.032C352.62 136.549 360.138 136.969 362.993 133.317Z" stroke="white" stroke-width="1.5" stroke-linejoin="round"/>
<path d="M356.196 130.528C356.832 131.028 358.28 131.917 361 131.761C360.14 131.761 359.315 131.42 358.706 130.812C358.097 130.204 357.754 129.379 357.753 128.519C357.753 128.47 357.758 128.427 357.758 128.384C357.699 125.891 358.528 124.55 359.008 123.941C361.598 120.623 368.05 120.666 372.477 123.348C372.122 122.848 371.739 122.363 371.352 121.905L369.553 119.778L369.483 119.692C367.248 117.106 362.492 112.556 361 112.556C360.268 112.556 358.695 113.703 357.031 115.173C353.019 119.401 352.367 127.539 356.196 130.528Z" stroke="white" stroke-width="1.5" stroke-linejoin="round"/>
<path d="M365.799 126.521C365.179 126.036 363.785 125.174 361.183 125.277C362.011 125.325 362.788 125.687 363.357 126.29C363.926 126.893 364.242 127.69 364.242 128.519C364.242 128.589 364.242 128.659 364.237 128.729L364.237 128.74C364.334 131.314 363.478 132.698 362.993 133.317C360.138 136.969 352.62 136.549 348.258 133.032C349.049 134.513 350.207 135.897 351.419 137.066L351.844 137.47L352.351 137.96C354.155 139.695 356.44 140.848 358.909 141.268C361.377 141.688 363.915 141.355 366.192 140.313C369.068 135.881 369.197 129.176 365.799 126.521Z" stroke="white" stroke-width="1.5" stroke-linejoin="round"/>
<path d="M372.477 123.343C368.05 120.661 361.598 120.618 359.007 123.936C358.528 124.544 357.699 125.885 357.758 128.379C357.794 127.543 358.151 126.753 358.755 126.174C359.359 125.595 360.163 125.272 361 125.271L361.183 125.271C363.784 125.169 365.179 126.031 365.799 126.515C369.197 129.17 369.068 135.876 366.192 140.308C367.466 139.724 368.633 138.93 369.644 137.96L370.156 137.47L370.576 137.066C372.714 135.009 374.674 132.289 374.787 129.526C374.874 127.393 373.84 125.239 372.477 123.343Z" stroke="white" stroke-width="1.5" stroke-linejoin="round"/>
<rect x="159.75" y="-0.25" width="50.5" height="50.5" rx="25.25" stroke="white" stroke-width="1.5"/>
<path d="M171 23.2503L185 26.75L199 23.25M171 23.2503L185 7.5M171 23.2503L185 19.7501M199 23.25L185 7.5M199 23.25L185 19.7501M185 7.5V19.7501M173.625 30.25L185 42.5L196.375 30.25L185 32.875L173.625 30.25Z" stroke="white" stroke-width="1.5" stroke-linecap="round" stroke-linejoin="round"/>
<defs>
<radialGradient id="paint0_angular_14637_23448" cx="0" cy="0" r="1" gradientUnits="userSpaceOnUse" gradientTransform="translate(230.5 101.5) rotate(-180) scale(215.377 215.377)">
<stop stop-color="#33454C"/>
<stop offset="0.25" stop-color="#33454C" stop-opacity="0"/>
<stop offset="1" stop-color="#33454C" stop-opacity="0"/>
</radialGradient>
</defs>
</svg>
