<svg width="26" height="25" viewBox="0 0 26 25" fill="none" xmlns="http://www.w3.org/2000/svg">
<path d="M0 7.77671V4.22574C0 3.14711 1.08321 2.27271 2.41942 2.27271H6.81839C8.1546 2.27271 9.23782 3.14711 9.23782 4.22574V7.09327C9.23782 7.58771 9.48112 8.06189 9.91424 8.4115C10.8161 9.13955 12.2784 9.13955 13.1803 8.4115L20.0765 2.84473C20.5302 2.47847 21.1456 2.27271 21.7873 2.27271H22.9845C24.3208 2.27271 25.404 3.14711 25.404 4.22574V5.19225C25.404 5.71023 25.1491 6.20699 24.6953 6.57325L17.7992 12.14C16.8973 12.8681 16.8973 14.0485 17.7992 14.7764C18.2323 15.1261 18.8198 15.3225 19.4323 15.3225H22.9845C24.3208 15.3225 25.404 16.1969 25.404 17.2755V20.8266C25.404 21.9051 24.3208 22.7795 22.9845 22.7795H18.5856C17.2494 22.7795 16.1661 21.9051 16.1661 20.8266V17.9589C16.1661 17.4645 15.9228 16.9903 15.4898 16.6408C14.5878 15.9127 13.1256 15.9127 12.2236 16.6408L5.32755 22.2075C4.87381 22.5737 4.25842 22.7795 3.61675 22.7795H2.41943C1.08321 22.7795 0 21.9051 0 20.8266V19.86C0 19.342 0.254905 18.8453 0.708635 18.4789L7.60478 12.9122C8.50668 12.1842 8.50668 11.0038 7.60478 10.2758C7.17168 9.92615 6.58426 9.72974 5.97175 9.72974H2.41943C1.08321 9.72974 0 8.85533 0 7.77671Z" fill="#B16EFF"/>
</svg>
