<svg width="24" height="24" viewBox="0 0 24 24" fill="none" xmlns="http://www.w3.org/2000/svg">
<g clip-path="url(#clip0_40002918_140870)">
<rect width="24" height="24" rx="6" fill="#62458B"/>
<path d="M4 8.75758V6.33334C4 5.59695 4.68223 5 5.52381 5H8.29437C9.13595 5 9.81819 5.59695 9.81819 6.33334V8.291C9.81819 8.62855 9.97143 8.95228 10.2442 9.19096C10.8122 9.68799 11.7332 9.68799 12.3013 9.19096L16.6446 5.39052C16.9304 5.14048 17.318 5 17.7221 5H18.4762C19.3178 5 20 5.59695 20 6.33334V6.99317C20 7.3468 19.8395 7.68594 19.5537 7.93598L15.2103 11.7364C14.6423 12.2334 14.6423 13.0393 15.2103 13.5363C15.4831 13.775 15.8531 13.9091 16.2389 13.9091H18.4762C19.3178 13.9091 20 14.506 20 15.2424V17.6667C20 18.403 19.3178 19 18.4762 19H15.7056C14.8641 19 14.1818 18.403 14.1818 17.6667V15.709C14.1818 15.3714 14.0286 15.0477 13.7558 14.8091C13.1878 14.312 12.2668 14.312 11.6987 14.8091L7.35541 18.6095C7.06963 18.8595 6.68205 19 6.27791 19H5.52381C4.68223 19 4 18.403 4 17.6667V17.0068C4 16.6532 4.16054 16.3141 4.44631 16.064L8.78967 12.2636C9.3577 11.7666 9.3577 10.9607 8.78967 10.4637C8.51689 10.225 8.14692 10.0909 7.76114 10.0909H5.52381C4.68223 10.0909 4 9.49396 4 8.75758Z" fill="#B16EFF"/>
</g>
<rect x="0.375" y="0.375" width="23.25" height="23.25" rx="5.625" stroke="#FFFDFA" stroke-width="0.75"/>
<defs>
<clipPath id="clip0_40002918_140870">
<rect width="24" height="24" rx="6" fill="white"/>
</clipPath>
</defs>
</svg>
