<svg width="298" height="297" viewBox="0 0 298 297" fill="none" xmlns="http://www.w3.org/2000/svg">
<path d="M297.104 162.113C297.104 162.347 297.026 162.659 297.026 162.893C290.557 234.051 233.973 289.543 165.075 296.714C164.607 296.792 164.14 296.792 163.672 296.87L297.104 162.113Z" fill="#000A41"/>
<path d="M214.176 15.0422C210.435 13.2496 206.616 11.535 202.719 10.0542C195.159 7.09247 187.209 4.75428 179.104 3.11756C169.361 1.09115 159.229 0 148.864 0C143.875 0 138.965 0.233836 134.055 0.70147C99.7619 4.05285 68.9759 19.0951 45.5163 41.6974L45.4384 41.7753C43.8796 43.3341 42.3208 44.8929 40.762 46.4517L40.6841 46.5296C18.3156 70.1451 3.58516 101.165 0.545535 135.536C0.15584 139.901 0 144.343 0 148.786C0 159.931 1.24702 170.764 3.50726 181.13C5.22191 189.002 7.638 196.718 10.5997 204.044C12.2364 208.097 14.029 212.072 15.9775 215.969C19.4068 222.672 23.3038 229.141 27.6683 235.22L52.1411 210.513L209.656 51.4398L234.129 26.7331C227.816 22.3685 221.191 18.4715 214.176 15.0422ZM37.6445 176.844C37.4107 175.83 37.1768 174.817 36.943 173.804V173.726C35.1504 165.62 34.2151 157.203 34.2151 148.786C34.2151 119.325 45.2046 91.5784 65.3128 70.301L65.3908 70.2231L69.4436 66.0923L69.5216 66.0144C90.9548 45.3605 119.091 34.0594 148.941 34.0594C156.813 34.0594 164.685 34.8387 172.323 36.3975C173.492 36.6313 174.661 36.9431 175.908 37.1769L37.6445 176.844Z" fill="#000A41"/>
<path d="M97.5018 288.53C93.8386 287.205 90.2534 285.646 86.6682 284.088C79.342 280.736 72.3274 276.761 65.6247 272.241L271.384 64.3776C275.826 70.7686 279.801 77.6272 283.152 84.7196C284.945 88.3828 286.504 92.2018 287.985 96.0208L97.5018 288.53Z" fill="#000A41"/>
</svg>
