<svg width="24" height="24" viewBox="0 0 24 24" fill="none" xmlns="http://www.w3.org/2000/svg">
<rect x="0.375" y="0.375" width="23.25" height="23.25" rx="5.625" fill="#DD1438"/>
<rect x="0.375" y="0.375" width="23.25" height="23.25" rx="5.625" stroke="#FFFDFA" stroke-width="0.75"/>
<path d="M17.6011 6.85193C17.3545 6.27884 16.9876 5.76105 16.5236 5.33105C16.0555 4.90928 15.511 4.57392 14.9172 4.34166C14.514 4.18695 14.0904 4.08696 13.6587 4.04458C12.839 3.93489 12.0038 4.02843 11.2321 4.31637C10.4603 4.60431 9.77753 5.07714 9.24817 5.69017C8.7188 6.3032 8.36036 7.03619 8.20672 7.81987C8.05308 8.60356 8.10931 9.41206 8.37011 10.169V10.1826C8.00785 10.3995 7.67693 10.6616 7.38592 10.9621C6.93669 11.416 6.58238 11.949 6.34235 12.532C6.11137 13.1159 5.99532 13.7361 6.00014 14.3609C6.0016 14.9814 6.13641 15.5948 6.39608 16.1625C6.64369 16.7351 7.0104 17.2527 7.47359 17.6834C7.94317 18.1047 8.48848 18.44 9.08279 18.6728C9.62364 18.8785 10.1983 18.9893 10.7797 18.9999H10.8673C11.6382 19.0055 12.3995 18.8352 13.0889 18.5027C13.7783 18.1703 14.3762 17.6852 14.8336 17.0872C15.291 16.4892 15.595 15.7953 15.7206 15.0623C15.8463 14.3293 15.79 13.578 15.5564 12.87C15.9415 12.6449 16.2927 12.3698 16.5999 12.0523C17.053 11.6003 17.4112 11.0681 17.6548 10.4851C17.8878 9.90081 18.0048 9.27951 17.9998 8.65354C17.9974 8.03291 17.8616 7.41949 17.6011 6.85193ZM13.3363 7.1899C13.3007 7.04253 13.2846 6.89144 13.2882 6.74018C13.4648 6.76856 13.6374 6.81611 13.8029 6.88191C14.0357 6.97857 14.2426 7.12488 14.4081 7.30983C14.5681 7.49117 14.6927 7.69894 14.7758 7.92308C14.8528 8.14426 14.8892 8.3767 14.8833 8.60993C14.8568 9.04527 14.6645 9.45585 14.3431 9.76285L13.3363 7.1899ZM14.4873 10.1281C14.5184 10.1008 14.5495 10.0708 14.5778 10.0409C14.772 9.84285 14.923 9.60929 15.0218 9.35402C15.1166 9.10082 15.1607 8.83262 15.1519 8.5636C15.1483 8.3003 15.0856 8.04087 14.9681 7.80316C14.8482 7.57431 14.6874 7.36764 14.493 7.19263C14.3016 7.02418 14.0777 6.89361 13.834 6.80832C13.6569 6.7506 13.4722 6.71755 13.2854 6.7102C13.2954 6.41268 13.3746 6.12113 13.5173 5.85709C13.732 5.89581 13.941 5.95989 14.1395 6.04788C14.4848 6.20162 14.7967 6.41712 15.0586 6.68294C15.3026 6.95607 15.4993 7.2653 15.6412 7.59874C15.7677 7.93117 15.83 8.28312 15.825 8.63719C15.8304 8.99028 15.749 9.33959 15.5875 9.65656C15.4553 9.97591 15.2482 10.2614 14.9822 10.4906C14.8938 10.566 14.7993 10.6343 14.6994 10.695L14.4873 10.1281ZM14.8465 11.0412C14.984 10.9436 15.1135 10.8361 15.2339 10.7195C15.7864 10.1381 16.0896 9.37646 16.0824 8.58813C16.076 8.20326 15.9875 7.82378 15.8222 7.47336C15.6633 7.12587 15.4312 6.814 15.1406 6.55757C14.8593 6.30333 14.5287 6.10512 14.1677 5.97429C13.9605 5.9047 13.7463 5.85629 13.5286 5.82983C13.6198 5.66507 13.7361 5.51439 13.8736 5.38284C13.979 5.27898 14.0967 5.18749 14.2243 5.11028C14.3208 5.14204 14.4153 5.17935 14.5071 5.22203C14.9659 5.40934 15.3784 5.68799 15.7176 6.0397C16.064 6.38453 16.3378 6.79089 16.5236 7.23624C16.6986 7.68203 16.7868 8.15511 16.7838 8.63174C16.7617 9.10009 16.6555 9.5612 16.4698 9.99453C16.2704 10.411 15.9923 10.7882 15.6497 11.1066C15.4722 11.2794 15.2749 11.4321 15.0614 11.5617L14.8465 11.0412ZM9.70215 17.8769C9.62305 17.8514 9.54561 17.8214 9.47024 17.787C9.01149 17.5997 8.59899 17.321 8.25981 16.9693C7.92104 16.6244 7.65414 16.2201 7.47359 15.7782C7.29857 15.3324 7.21036 14.8593 7.21341 14.3827C7.23513 13.9143 7.34136 13.4532 7.52733 13.0199C7.72666 12.6026 8.00477 12.2246 8.34748 11.9052C8.5124 11.744 8.69333 11.5989 8.88765 11.4718L9.10259 12.0169C8.98025 12.1058 8.86405 12.2023 8.75473 12.3058C8.4793 12.5931 8.26417 12.9291 8.12123 13.2952C7.97272 13.6596 7.8997 14.0485 7.9063 14.44C7.91297 14.8248 8.00153 15.2042 8.16648 15.5547C8.49148 16.2444 9.08617 16.7822 9.82093 17.0511C10.0046 17.1143 10.1939 17.1608 10.3866 17.1901C10.2954 17.3455 10.1832 17.4885 10.0528 17.6153C9.94648 17.7149 9.82885 17.8026 9.70215 17.8769ZM9.84638 16.9584C9.50108 16.8047 9.18918 16.5892 8.92725 16.3233C8.68393 16.0508 8.48726 15.7425 8.34465 15.4103C8.21832 15.0768 8.15603 14.724 8.16083 14.3691C8.15544 14.016 8.23685 13.6667 8.39839 13.3497C8.53053 13.0304 8.73769 12.7449 9.0036 12.5157C9.07519 12.4522 9.15075 12.3931 9.22985 12.3385L9.45328 12.9218L9.39954 12.9736C9.20534 13.1716 9.05435 13.4052 8.95553 13.6604C8.86077 13.9136 8.81662 14.1818 8.82543 14.4509C8.82902 14.7142 8.89173 14.9736 9.00926 15.2113C9.12916 15.4401 9.29 15.6468 9.48438 15.8218C9.67581 15.9903 9.8997 16.1208 10.1433 16.2061C10.3049 16.2592 10.4734 16.2904 10.6439 16.2988C10.6311 16.5956 10.5479 16.8855 10.4007 17.1465C10.2092 17.1039 10.0233 17.0408 9.84638 16.9584ZM10.6128 15.8082C10.6428 15.9572 10.6561 16.1089 10.6524 16.2606C10.4916 16.2302 10.3344 16.1846 10.1829 16.1244C9.95019 16.0277 9.74325 15.8814 9.57771 15.6965C9.41774 15.5151 9.29317 15.3073 9.21006 15.0832C9.13301 14.862 9.09664 14.6296 9.10259 14.3963C9.12901 13.9784 9.30722 13.5828 9.60599 13.2789L10.6128 15.8082ZM6.57425 16.0808C6.36569 15.5278 6.25944 14.9438 6.26033 14.3555C6.28823 13.7712 6.42323 13.1963 6.6591 12.6574C6.90366 12.1234 7.25214 11.6395 7.6857 11.2319C7.93978 10.9884 8.22487 10.7768 8.53414 10.6023L8.69251 11.0057C8.4435 11.1605 8.21467 11.3435 8.01094 11.5508C7.64824 11.9329 7.36929 12.3816 7.19078 12.87C7.01281 13.351 6.92472 13.8585 6.93059 14.3691C6.95238 14.8749 7.06928 15.3727 7.27562 15.8382C7.70412 16.7525 8.48518 17.47 9.45328 17.8388C9.52115 17.8633 9.59185 17.8824 9.66256 17.9042C9.34873 18.0817 8.99395 18.181 8.63029 18.1931C8.49886 18.1937 8.36782 18.1791 8.24001 18.1495C8.00365 17.9885 7.78393 17.8059 7.58389 17.6044C7.14482 17.1752 6.80127 16.6642 6.57425 16.1026V16.0808ZM17.3211 10.3134C17.0765 10.8474 16.7281 11.3313 16.2945 11.7389C16.027 12.0041 15.7235 12.2334 15.3923 12.4203L15.2339 12.0169C15.5046 11.8588 15.7519 11.6662 15.9693 11.4445C16.3365 11.0701 16.6213 10.6278 16.8064 10.1444C16.9844 9.66349 17.0724 9.15595 17.0666 8.64536C17.0448 8.13958 16.9279 7.6418 16.7215 7.17627C16.293 6.26199 15.512 5.54444 14.5439 5.17569C14.4562 5.14299 14.3629 5.11846 14.2611 5.0912C14.7081 4.83658 15.2391 4.75568 15.7458 4.86498C15.9815 5.02677 16.2012 5.20925 16.402 5.41009C16.8387 5.83897 17.1803 6.34901 17.4059 6.90917C17.6143 7.4622 17.7205 8.04611 17.7199 8.63446C17.6941 9.21931 17.561 9.79513 17.3268 10.3352L17.3211 10.3134Z" fill="white"/>
</svg>
