<svg width="33" height="33" viewBox="0 0 33 33" fill="none" xmlns="http://www.w3.org/2000/svg">
<path d="M32.0727 16.7756C32.0727 25.5484 24.9982 32.6601 16.2714 32.6601C7.54452 32.6601 0.470032 25.5484 0.470032 16.7756C0.470032 8.00284 7.54452 0.891113 16.2714 0.891113C24.9982 0.891113 32.0727 8.00284 32.0727 16.7756Z" fill="url(#paint0_linear_40003288_245565)"/>
<path fill-rule="evenodd" clip-rule="evenodd" d="M16.2714 32.2464C24.7709 32.2464 31.6612 25.3199 31.6612 16.7756C31.6612 8.2313 24.7709 1.30477 16.2714 1.30477C7.77179 1.30477 0.881525 8.2313 0.881525 16.7756C0.881525 25.3199 7.77179 32.2464 16.2714 32.2464ZM16.2714 32.6601C24.9982 32.6601 32.0727 25.5484 32.0727 16.7756C32.0727 8.00284 24.9982 0.891113 16.2714 0.891113C7.54452 0.891113 0.470032 8.00284 0.470032 16.7756C0.470032 25.5484 7.54452 32.6601 16.2714 32.6601Z" fill="black"/>
<path fill-rule="evenodd" clip-rule="evenodd" d="M13.9056 3.76963C13.7506 3.79944 13.5967 3.83205 13.4439 3.86738C13.3331 3.89298 13.2227 3.8235 13.1973 3.71218C13.1718 3.60085 13.2409 3.48985 13.3516 3.46425C13.5094 3.42777 13.6683 3.39412 13.8283 3.36334C13.985 3.3332 14.1416 3.30591 14.2981 3.28146C14.4104 3.26391 14.5156 3.34119 14.533 3.45406C14.5505 3.56693 14.4736 3.67266 14.3613 3.69021C14.2096 3.71392 14.0577 3.74039 13.9056 3.76963ZM15.9917 3.3306C15.9902 3.21638 16.0811 3.12256 16.1948 3.12105C16.5139 3.11681 16.8314 3.12406 17.1467 3.14246C17.2602 3.14908 17.3468 3.24689 17.3402 3.36092C17.3336 3.47496 17.2363 3.56204 17.1229 3.55542C16.8172 3.53759 16.5095 3.53057 16.2002 3.53468C16.0866 3.53618 15.9932 3.44482 15.9917 3.3306ZM11.7609 4.15908C11.8024 4.2654 11.7503 4.38544 11.6446 4.42719C11.351 4.54306 11.0629 4.66941 10.7806 4.80572C10.6781 4.85517 10.5552 4.8118 10.506 4.70883C10.4568 4.60586 10.5 4.4823 10.6024 4.43284C10.8938 4.29217 11.1911 4.16176 11.4942 4.04215C11.5999 4.0004 11.7194 4.05275 11.7609 4.15908ZM18.7919 3.55071C18.8146 3.43877 18.9232 3.36648 19.0345 3.38925C19.3466 3.45305 19.6555 3.52786 19.9605 3.61334C20.07 3.64401 20.134 3.75807 20.1035 3.8681C20.073 3.97814 19.9595 4.04248 19.8501 4.01181C19.5544 3.92896 19.255 3.85645 18.9525 3.79461C18.8412 3.77184 18.7693 3.66264 18.7919 3.55071ZM9.20172 5.46104C9.26527 5.55574 9.24041 5.68429 9.1462 5.74816C8.88519 5.92514 8.63099 6.11131 8.38402 6.30612C8.29462 6.37663 8.16529 6.36094 8.09514 6.27107C8.025 6.18121 8.04061 6.05119 8.13 5.98068C8.38469 5.77979 8.64687 5.58778 8.9161 5.40522C9.01031 5.34135 9.13818 5.36634 9.20172 5.46104ZM21.4823 4.36267C21.5279 4.25807 21.6493 4.21048 21.7533 4.25638C22.0444 4.38477 22.3306 4.52334 22.6114 4.67174C22.7119 4.7249 22.7506 4.84995 22.6977 4.95106C22.6448 5.05216 22.5204 5.09103 22.4199 5.03788C22.1476 4.894 21.8702 4.75965 21.588 4.63517C21.4839 4.58928 21.4366 4.46727 21.4823 4.36267ZM6.98124 7.28658C7.06335 7.36555 7.06624 7.49647 6.98769 7.57901C6.77022 7.80752 6.5609 8.04366 6.36014 8.28688C6.28757 8.37478 6.15786 8.38691 6.07042 8.31397C5.98297 8.24102 5.97091 8.11063 6.04347 8.02272C6.25041 7.77203 6.46617 7.52862 6.69035 7.29306C6.76889 7.21052 6.89913 7.20762 6.98124 7.28658ZM23.9423 5.72583C24.0088 5.63319 24.1374 5.61225 24.2296 5.67906C24.487 5.8657 24.7379 6.06147 24.9819 6.26602C25.0691 6.33919 25.0809 6.46961 25.0081 6.55733C24.9353 6.64505 24.8056 6.65684 24.7183 6.58367C24.4818 6.38535 24.2385 6.19553 23.9889 6.01457C23.8967 5.94775 23.8759 5.81848 23.9423 5.72583ZM5.19403 9.54237C5.29081 9.60224 5.32098 9.72963 5.26143 9.82692C5.09671 10.096 4.94138 10.3711 4.79584 10.6515C4.74329 10.7528 4.61901 10.792 4.51826 10.7392C4.41752 10.6864 4.37846 10.5614 4.43101 10.4602C4.58105 10.171 4.74118 9.88751 4.91098 9.61013C4.97053 9.51284 5.09726 9.48251 5.19403 9.54237ZM26.0634 7.57728C26.1477 7.50074 26.2778 7.50742 26.354 7.5922C26.5664 7.82867 26.7708 8.07307 26.9667 8.32507C27.0367 8.41507 27.0208 8.54506 26.9313 8.6154C26.8418 8.68575 26.7125 8.66982 26.6425 8.57982C26.4526 8.33555 26.2544 8.09863 26.0486 7.8694C25.9724 7.78462 25.9791 7.65383 26.0634 7.57728ZM3.91938 12.1258C4.02658 12.1637 4.08294 12.2817 4.04527 12.3895C3.94123 12.6871 3.84766 12.9889 3.76497 13.2944C3.73513 13.4046 3.62207 13.4697 3.51242 13.4397C3.40278 13.4097 3.33808 13.296 3.36791 13.1858C3.45322 12.8706 3.54974 12.5593 3.65705 12.2523C3.69473 12.1446 3.81218 12.0879 3.91938 12.1258ZM27.7486 9.83637C27.8471 9.77952 27.9728 9.81374 28.0294 9.91282C28.1868 10.1886 28.3351 10.471 28.4737 10.7597C28.5231 10.8626 28.4801 10.9862 28.3778 11.0358C28.2755 11.0855 28.1525 11.0423 28.1031 10.9395C27.9687 10.6597 27.8251 10.386 27.6725 10.1187C27.6159 10.0196 27.65 9.89323 27.7486 9.83637ZM3.22443 14.9233C3.33725 14.9369 3.41775 15.0399 3.40423 15.1533C3.36698 15.4656 3.341 15.7805 3.32666 16.0974C3.3215 16.2115 3.22529 16.2998 3.11178 16.2946C2.99827 16.2894 2.91043 16.1927 2.91559 16.0786C2.93039 15.7515 2.95722 15.4264 2.99566 15.104C3.00918 14.9906 3.11161 14.9097 3.22443 14.9233ZM28.9185 12.4033C29.0268 12.3688 29.1425 12.429 29.1769 12.5379C29.2248 12.6897 29.2702 12.8428 29.3131 12.9972C29.3436 13.1072 29.2797 13.2213 29.1702 13.252C29.0608 13.2827 28.9473 13.2184 28.9167 13.1084C28.8752 12.9587 28.8312 12.8102 28.7847 12.663C28.7503 12.5542 28.8102 12.4379 28.9185 12.4033ZM3.15472 17.8055C3.26776 17.7938 3.36881 17.8765 3.38043 17.9901C3.39647 18.1469 3.41543 18.3039 3.43736 18.4611C3.45313 18.5742 3.3747 18.6788 3.26217 18.6946C3.14964 18.7105 3.04563 18.6317 3.02985 18.5185C3.00722 18.3563 2.98765 18.1942 2.9711 18.0324C2.95948 17.9188 3.04169 17.8172 3.15472 17.8055Z" fill="black"/>
<g filter="url(#filter0_b_40003288_245565)">
<path d="M3.41577 19.2656C4.90573 26.468 11.9203 31.0916 19.085 29.5938C26.2497 28.096 30.8491 21.0445 29.3592 13.8421" fill="#FED579"/>
<path d="M3.41577 19.2656C4.90573 26.468 11.9203 31.0916 19.085 29.5938C26.2497 28.096 30.8491 21.0445 29.3592 13.8421" fill="url(#paint1_linear_40003288_245565)"/>
</g>
<g filter="url(#filter1_b_40003288_245565)">
<path fill-rule="evenodd" clip-rule="evenodd" d="M19.1269 29.7965C11.8509 31.3175 4.72739 26.6221 3.21429 19.3079L3.61717 19.2236C5.08399 26.3142 11.9897 30.866 19.0431 29.3915C26.0966 27.9169 30.6245 20.9749 29.1577 13.8843L29.5606 13.8001C31.0737 21.1144 26.4028 28.2754 19.1269 29.7965Z" fill="black"/>
</g>
<path d="M17.0445 19.6417C24.2086 18.144 29.7256 15.5249 29.367 13.7917C29.0085 12.0584 22.9102 11.8675 15.7461 13.3651C8.58204 14.8628 3.06508 17.482 3.42363 19.2152C3.78218 20.9484 9.88047 21.1394 17.0445 19.6417Z" fill="url(#paint2_linear_40003288_245565)"/>
<path fill-rule="evenodd" clip-rule="evenodd" d="M4.32631 17.9359C3.75448 18.4425 3.56015 18.8596 3.62505 19.1733C3.68994 19.487 4.03358 19.7917 4.7589 20.0271C5.46661 20.2567 6.46453 20.3952 7.6884 20.4335C10.1328 20.5101 13.4317 20.186 17.0026 19.4394C20.5736 18.6929 23.7275 17.6681 25.9389 16.6182C27.0461 16.0926 27.9064 15.5656 28.4643 15.0714C29.0361 14.5648 29.2305 14.1477 29.1656 13.834C29.1007 13.5203 28.757 13.2156 28.0317 12.9803C27.324 12.7506 26.3261 12.6121 25.1022 12.5738C22.6578 12.4972 19.359 12.8213 15.788 13.5679C12.217 14.3144 9.06313 15.3392 6.85173 16.3891C5.74452 16.9147 4.88426 17.4417 4.32631 17.9359ZM6.67601 16.015C8.92447 14.9476 12.1111 13.914 15.7042 13.1629C19.2973 12.4117 22.6296 12.0825 25.115 12.1603C26.3561 12.1992 27.3977 12.3398 28.1581 12.5866C28.901 12.8277 29.4541 13.1969 29.5684 13.7498C29.6828 14.3027 29.322 14.8629 28.7364 15.3817C28.1368 15.9128 27.2373 16.4593 26.1146 16.9923C23.8661 18.0597 20.6795 19.0933 17.0864 19.8444C13.4933 20.5956 10.161 20.9248 7.67559 20.847C6.43456 20.8081 5.39293 20.6675 4.63248 20.4207C3.88966 20.1796 3.33655 19.8104 3.22217 19.2575C3.10779 18.7046 3.46862 18.1444 4.05426 17.6256C4.65378 17.0945 5.55328 16.548 6.67601 16.015Z" fill="black"/>
<path d="M13.0235 25.3425C8.20873 23.6302 5.73956 18.3096 7.52977 13.6004C8.45569 11.0318 10.4927 9.07478 13.0235 8.15742C13.2705 8.03515 13.3939 7.85168 13.3939 7.5458V6.68965C13.3939 6.44497 13.2705 6.2615 13.0235 6.20044C12.9617 6.20044 12.8383 6.20044 12.7766 6.2615C6.91244 8.09621 3.70253 14.2732 5.55437 20.0831C6.66548 23.5078 9.31984 26.1376 12.7766 27.2384C13.0235 27.3607 13.2705 27.2384 13.3321 26.9938C13.3939 26.9327 13.3939 26.8715 13.3939 26.7492V25.8929C13.3939 25.7095 13.2087 25.4649 13.0235 25.3425ZM19.5668 6.2615C19.3198 6.13923 19.0728 6.2615 19.0112 6.50618C18.9494 6.56738 18.9494 6.62844 18.9494 6.75085V7.607C18.9494 7.85168 19.1346 8.09621 19.3198 8.21863C24.1346 9.93093 26.6038 15.2516 24.8135 19.9608C23.8876 22.5294 21.8506 24.4864 19.3198 25.4037C19.0728 25.526 18.9494 25.7095 18.9494 26.0154V26.8715C18.9494 27.1162 19.0728 27.2997 19.3198 27.3607C19.3816 27.3607 19.505 27.3607 19.5668 27.2997C25.4309 25.4649 28.6408 19.288 26.7889 13.4781C25.6778 9.99213 22.9617 7.36233 19.5668 6.2615Z" fill="white"/>
<path fill-rule="evenodd" clip-rule="evenodd" d="M13.0208 6L13.0479 6L13.0716 6.00586C13.2347 6.04617 13.37 6.13099 13.4629 6.25756C13.5548 6.38274 13.5943 6.53376 13.5943 6.68959V7.54574C13.5943 7.72589 13.5577 7.88736 13.4716 8.02612C13.3853 8.16501 13.2601 8.26384 13.1124 8.33694L13.1024 8.34192L13.0918 8.34575C10.6143 9.2438 8.62306 11.1583 7.71829 13.6683L7.7177 13.6699L7.71709 13.6715C5.9673 18.2743 8.38041 23.4785 13.0907 25.1537L13.1137 25.1618L13.134 25.1753C13.2495 25.2517 13.3598 25.3618 13.4424 25.48C13.5218 25.5936 13.5943 25.7415 13.5943 25.8929V26.7492C13.5943 26.7556 13.5943 26.7622 13.5944 26.769C13.5948 26.8611 13.5955 26.9817 13.5119 27.092C13.4595 27.2466 13.3511 27.3701 13.2072 27.4359C13.052 27.5068 12.8712 27.5038 12.7024 27.4251C9.19123 26.3023 6.49357 23.6272 5.36378 20.1448L5.36346 20.1439C3.48153 14.2396 6.73395 7.96323 12.6808 6.08152C12.7466 6.03571 12.819 6.01829 12.8675 6.0103C12.9301 5.99997 12.9901 5.99999 13.0208 6ZM12.9104 6.41089L12.8828 6.43816L12.8364 6.45268C7.07798 8.25433 3.9275 14.3183 5.74516 20.0217C6.83626 23.3842 9.44182 25.9661 12.8374 27.0475L12.8519 27.0521L12.8655 27.0588C12.9395 27.0954 12.9996 27.0901 13.0405 27.0714C13.0822 27.0524 13.1209 27.0118 13.1378 26.9448L13.1515 26.8905L13.1902 26.8522C13.1911 26.8471 13.1921 26.838 13.1927 26.8223C13.1935 26.8033 13.1935 26.7809 13.1935 26.7492V25.8929C13.1935 25.8608 13.1734 25.7947 13.1139 25.7096C13.0625 25.6361 12.9957 25.5686 12.9315 25.5224C8.02911 23.7636 5.51549 18.3377 7.34186 13.5307C8.28784 10.908 10.3657 8.91122 12.9441 7.97304C13.0378 7.92514 13.0951 7.87266 13.1311 7.81469C13.1684 7.75468 13.1935 7.67147 13.1935 7.54574V6.68959C13.1935 6.60075 13.1714 6.53769 13.1398 6.4947C13.112 6.45686 13.0682 6.42245 12.9973 6.40093C12.9747 6.40128 12.9529 6.40239 12.9326 6.40573C12.922 6.40748 12.9148 6.40943 12.9104 6.41089ZM19.6414 6.07501C23.0898 7.19756 25.8499 9.87207 26.9799 13.4172C28.8618 19.3215 25.6094 25.5978 19.6626 27.4795C19.5968 27.5253 19.5243 27.5427 19.4759 27.5507C19.4132 27.5611 19.3533 27.561 19.3226 27.561H19.2954L19.2717 27.5552C19.1087 27.5149 18.9734 27.43 18.8805 27.3035C18.7886 27.1783 18.7491 27.0273 18.7491 26.8714V26.0153C18.7491 25.8351 18.7856 25.6737 18.8718 25.5349C18.958 25.396 19.0833 25.2972 19.2309 25.2241L19.241 25.2191L19.2515 25.2153C21.7291 24.3172 23.7203 22.4027 24.6251 19.8928L24.6256 19.8912L24.6263 19.8895C26.376 15.2867 23.9629 10.0825 19.2527 8.40737L19.2297 8.39919L19.2093 8.38573C19.0932 8.309 18.9812 8.19732 18.8971 8.06768C18.8133 7.9386 18.7491 7.77878 18.7491 7.60695V6.7508C18.7491 6.74752 18.7491 6.74418 18.749 6.7408C18.749 6.68855 18.7489 6.62429 18.7607 6.56582C18.7725 6.50789 18.795 6.45551 18.8315 6.40767C18.8839 6.25309 18.9923 6.12974 19.1362 6.06394C19.2915 5.99293 19.4725 5.99599 19.6414 6.07501ZM19.5668 6.26144L19.505 6.45205C22.8405 7.53363 25.5072 10.1165 26.598 13.5389C28.416 19.2425 25.2655 25.3067 19.5069 27.1084L19.4605 27.1229L19.4329 27.1501C19.4286 27.1516 19.4214 27.1536 19.4107 27.1553C19.3904 27.1587 19.3686 27.1598 19.346 27.1601C19.2751 27.1386 19.2313 27.1042 19.2035 27.0663C19.172 27.0233 19.1498 26.9603 19.1498 26.8714V26.0153C19.1498 25.8896 19.175 25.8064 19.2122 25.7463C19.2482 25.6884 19.3056 25.6359 19.3993 25.588C21.9776 24.6498 24.0555 22.653 25.0015 20.0303C26.8279 15.2233 24.3142 9.79743 19.4119 8.03867C19.3484 7.99292 19.2832 7.92646 19.2333 7.84953C19.1781 7.76458 19.1498 7.67979 19.1498 7.60695V6.7508C19.1498 6.71905 19.1499 6.69665 19.1506 6.67762C19.1513 6.66179 19.1523 6.65271 19.1531 6.64759L19.1919 6.60919L19.2055 6.55506C19.2224 6.48804 19.2611 6.44746 19.3028 6.42841C19.3438 6.40969 19.4039 6.40439 19.4779 6.44102L19.5668 6.26144Z" fill="black"/>
<path d="M20.58 19.4347C20.58 16.8972 19.0978 16.0271 16.1333 15.6647C14.0158 15.3746 13.5923 14.7946 13.5923 13.7795C13.5923 12.7643 14.2982 12.112 15.7098 12.112C16.9803 12.112 17.6862 12.547 18.039 13.6345C18.1097 13.8521 18.3214 13.997 18.5332 13.997H19.6624C19.9448 13.997 20.1565 13.7795 20.1565 13.4896V13.417C19.8741 11.8219 18.6036 10.5894 16.9803 10.4445V8.70441C16.9803 8.41434 16.7686 8.19683 16.4157 8.12427H15.357C15.0746 8.12427 14.8628 8.34178 14.7922 8.70441V10.3719C12.6747 10.662 11.3338 12.112 11.3338 13.9246C11.3338 16.3172 12.7454 17.2596 15.7098 17.6223C17.6862 17.9847 18.3214 18.4197 18.3214 19.5798C18.3214 20.7399 17.3332 21.5374 15.9922 21.5374C14.1569 21.5374 13.5217 20.7398 13.31 19.6522C13.2395 19.3623 13.0277 19.2172 12.816 19.2172H11.616C11.3338 19.2172 11.122 19.4347 11.122 19.7248V19.7973C11.4042 21.6098 12.5336 22.9149 14.8628 23.2775V25.0176C14.8628 25.3075 15.0746 25.525 15.4274 25.5975H16.4862C16.7686 25.5975 16.9803 25.38 17.0509 25.0176V23.2775C19.1684 22.9149 20.58 21.3923 20.58 19.4347Z" fill="white"/>
<path fill-rule="evenodd" clip-rule="evenodd" d="M14.5955 8.66604C14.6768 8.24893 14.9433 7.92383 15.357 7.92383H16.4361L16.4561 7.92794C16.8708 8.01323 17.1807 8.29055 17.1807 8.70435V10.2656C18.811 10.4919 20.0672 11.7628 20.3538 13.382L20.3569 13.3994V13.4895C20.3569 13.885 20.0604 14.1973 19.6624 14.1973H18.5332C18.2363 14.1973 17.9464 13.9981 17.8485 13.6964C17.6821 13.1836 17.4405 12.847 17.1099 12.6338C16.7755 12.418 16.3248 12.3123 15.7098 12.3123C15.0317 12.3123 14.5538 12.4693 14.2489 12.7198C13.9496 12.9657 13.7927 13.3217 13.7927 13.7794C13.7927 14.2573 13.8909 14.5854 14.1969 14.8399C14.5213 15.1096 15.1072 15.3217 16.1591 15.4659C17.6472 15.648 18.8055 15.9608 19.5918 16.5762C20.3943 17.2042 20.7804 18.1226 20.7804 19.4347C20.7804 21.452 19.3583 23.017 17.2513 23.4438V25.0368L17.2476 25.0558C17.1664 25.4728 16.8998 25.7978 16.4862 25.7978H15.407L15.3871 25.7937C14.9723 25.7084 14.6624 25.4312 14.6624 25.0175V23.447C13.5498 23.2475 12.6986 22.8275 12.0844 22.224C11.439 21.5898 11.0704 20.768 10.924 19.8281L10.9216 19.8128V19.7247C10.9216 19.3291 11.218 19.0168 11.616 19.0168H12.816C13.1275 19.0168 13.4141 19.2324 13.5047 19.6048L13.5058 19.6093L13.5066 19.6139C13.6073 20.1306 13.803 20.5514 14.1683 20.8468C14.5349 21.1433 15.1015 21.337 15.9922 21.337C17.259 21.337 18.121 20.596 18.121 19.5798C18.121 19.3071 18.0836 19.0916 18.0073 18.9148C17.9321 18.7406 17.8148 18.5935 17.6379 18.4632C17.2737 18.1948 16.6646 18.0014 15.6795 17.8204C14.191 17.6378 13.0523 17.3063 12.2848 16.691C11.5021 16.0635 11.1334 15.1647 11.1334 13.9246C11.1334 12.0466 12.4905 10.5555 14.5918 10.1998V8.68501L14.5955 8.66604ZM14.9926 8.7245V10.5467L14.8194 10.5704C12.7841 10.8492 11.5341 12.2284 11.5341 13.9246C11.5341 15.077 11.8712 15.8458 12.5355 16.3783C13.2138 16.9221 14.2611 17.2431 15.7341 17.4233L15.7401 17.424L15.746 17.4251C16.7338 17.6063 17.4289 17.8113 17.8756 18.1406C18.1046 18.3093 18.2696 18.5111 18.3753 18.7561C18.4799 18.9985 18.5218 19.2724 18.5218 19.5798C18.5218 20.8838 17.4074 21.7377 15.9922 21.7377C15.0476 21.7377 14.379 21.5326 13.9163 21.1584C13.4535 20.7841 13.2257 20.2643 13.1142 19.6954C13.063 19.4911 12.9272 19.4175 12.816 19.4175H11.616C11.4495 19.4175 11.3224 19.5402 11.3224 19.7247V19.7816C11.4598 20.6476 11.7964 21.3792 12.3652 21.9381C12.9377 22.5006 13.7605 22.903 14.8937 23.0794L15.0632 23.1058V25.0175C15.0632 25.18 15.1719 25.3344 15.4488 25.3971H16.4862C16.6343 25.3971 16.788 25.2915 16.8506 24.9973V23.1084L17.0171 23.0799C19.0538 22.7311 20.3796 21.2798 20.3796 19.4347C20.3796 18.2092 20.0246 17.4238 19.3448 16.8918C18.6492 16.3474 17.5847 16.044 16.109 15.8635L16.1076 15.8633L16.1061 15.8632C15.0415 15.7173 14.3572 15.4944 13.9407 15.148C13.5055 14.7861 13.392 14.3167 13.392 13.7794C13.392 13.222 13.588 12.7442 13.9945 12.4102C14.3955 12.0807 14.9763 11.9115 15.7098 11.9115C16.3653 11.9115 16.9029 12.0233 17.3272 12.297C17.7553 12.5732 18.0431 12.9978 18.2296 13.5726C18.2729 13.7059 18.4065 13.7966 18.5332 13.7966H19.6624C19.8291 13.7966 19.9561 13.6738 19.9561 13.4895V13.4348C19.6826 11.9321 18.4849 10.7799 16.9625 10.644L16.7799 10.6277V8.70435C16.7799 8.54169 16.6712 8.38728 16.3944 8.32459H15.357C15.2088 8.32459 15.0551 8.43018 14.9926 8.7245Z" fill="black"/>
<path fill-rule="evenodd" clip-rule="evenodd" d="M7.68052 20.4839C10.1249 20.5604 13.4238 20.2363 16.9948 19.4898C20.5657 18.7433 23.7196 17.7184 25.931 16.6686C27.0382 16.1429 27.8985 15.616 28.4564 15.1217C29.0283 14.6151 29.2226 14.198 29.1577 13.8843L29.5606 13.8001C29.6749 14.353 29.3141 14.9133 28.7285 15.4321C28.129 15.9632 27.2295 16.5096 26.1067 17.0426C23.8583 18.11 20.6716 19.1436 17.0785 19.8948C13.4854 20.6459 10.1531 20.9752 7.66771 20.8973C6.42668 20.8585 5.38505 20.7178 4.6246 20.471C3.88178 20.23 3.32867 19.8608 3.21429 19.3079L3.61717 19.2236C3.68207 19.5374 4.0257 19.842 4.75103 20.0774C5.45873 20.3071 6.45665 20.4455 7.68052 20.4839Z" fill="black"/>
<path d="M24.5835 25.3797C25.2653 25.3797 25.818 24.8241 25.818 24.1387C25.818 23.4533 25.2653 22.8977 24.5835 22.8977C23.9017 22.8977 23.349 23.4533 23.349 24.1387C23.349 24.8241 23.9017 25.3797 24.5835 25.3797Z" fill="#F2A5B8"/>
<path fill-rule="evenodd" clip-rule="evenodd" d="M24.5835 23.1046C24.0154 23.1046 23.5548 23.5676 23.5548 24.1387C23.5548 24.7099 24.0154 25.1729 24.5835 25.1729C25.1517 25.1729 25.6123 24.7099 25.6123 24.1387C25.6123 23.5676 25.1517 23.1046 24.5835 23.1046ZM23.1433 24.1387C23.1433 23.3391 23.7881 22.6909 24.5835 22.6909C25.3789 22.6909 26.0238 23.3391 26.0238 24.1387C26.0238 24.9383 25.3789 25.5865 24.5835 25.5865C23.7881 25.5865 23.1433 24.9383 23.1433 24.1387Z" fill="black"/>
<path d="M5.16105 25.0488C5.84284 25.0488 6.39553 24.4932 6.39553 23.8079C6.39553 23.1225 5.84284 22.5669 5.16105 22.5669C4.47927 22.5669 3.92657 23.1225 3.92657 23.8079C3.92657 24.4932 4.47927 25.0488 5.16105 25.0488Z" fill="#202A39"/>
<path fill-rule="evenodd" clip-rule="evenodd" d="M5.16105 22.7735C4.5929 22.7735 4.13232 23.2365 4.13232 23.8077C4.13232 24.3788 4.5929 24.8418 5.16105 24.8418C5.7292 24.8418 6.18978 24.3788 6.18978 23.8077C6.18978 23.2365 5.7292 22.7735 5.16105 22.7735ZM3.72083 23.8077C3.72083 23.0081 4.36564 22.3599 5.16105 22.3599C5.95646 22.3599 6.60127 23.0081 6.60127 23.8077C6.60127 24.6073 5.95646 25.2555 5.16105 25.2555C4.36564 25.2555 3.72083 24.6073 3.72083 23.8077Z" fill="black"/>
<path d="M8.78255 11.8118C9.46452 11.8118 10.0174 11.2562 10.0174 10.5708C10.0174 9.88544 9.46452 9.32983 8.78255 9.32983C8.10058 9.32983 7.54773 9.88544 7.54773 10.5708C7.54773 11.2562 8.10058 11.8118 8.78255 11.8118Z" fill="#A0ABB4"/>
<path fill-rule="evenodd" clip-rule="evenodd" d="M8.78255 9.53646C8.21415 9.53646 7.75347 9.99952 7.75347 10.5706C7.75347 11.1417 8.21415 11.6048 8.78255 11.6048C9.35094 11.6048 9.81162 11.1417 9.81162 10.5706C9.81162 9.99952 9.35094 9.53646 8.78255 9.53646ZM7.34198 10.5706C7.34198 9.77095 7.987 9.1228 8.78255 9.1228C9.5781 9.1228 10.2231 9.77095 10.2231 10.5706C10.2231 11.3703 9.5781 12.0184 8.78255 12.0184C7.987 12.0184 7.34198 11.3703 7.34198 10.5706Z" fill="black"/>
<path d="M25.2419 8.33693C25.9237 8.33693 26.4764 7.78133 26.4764 7.09596C26.4764 6.41058 25.9237 5.85498 25.2419 5.85498C24.5601 5.85498 24.0074 6.41058 24.0074 7.09596C24.0074 7.78133 24.5601 8.33693 25.2419 8.33693Z" fill="white"/>
<path fill-rule="evenodd" clip-rule="evenodd" d="M25.2419 6.06185C24.6738 6.06185 24.2132 6.52486 24.2132 7.096C24.2132 7.66714 24.6738 8.13015 25.2419 8.13015C25.8101 8.13015 26.2707 7.66714 26.2707 7.096C26.2707 6.52486 25.8101 6.06185 25.2419 6.06185ZM23.8017 7.096C23.8017 6.2964 24.4465 5.64819 25.2419 5.64819C26.0373 5.64819 26.6821 6.2964 26.6821 7.096C26.6821 7.8956 26.0373 8.5438 25.2419 8.5438C24.4465 8.5438 23.8017 7.8956 23.8017 7.096Z" fill="black"/>
<defs>
<filter id="filter0_b_40003288_245565" x="-16.5842" y="-6.15796" width="66.2236" height="56.0334" filterUnits="userSpaceOnUse" color-interpolation-filters="sRGB">
<feFlood flood-opacity="0" result="BackgroundImageFix"/>
<feGaussianBlur in="BackgroundImageFix" stdDeviation="10"/>
<feComposite in2="SourceAlpha" operator="in" result="effect1_backgroundBlur_40003288_245565"/>
<feBlend mode="normal" in="SourceGraphic" in2="effect1_backgroundBlur_40003288_245565" result="shape"/>
</filter>
<filter id="filter1_b_40003288_245565" x="-16.7857" y="-6.19995" width="66.6309" height="56.2825" filterUnits="userSpaceOnUse" color-interpolation-filters="sRGB">
<feFlood flood-opacity="0" result="BackgroundImageFix"/>
<feGaussianBlur in="BackgroundImageFix" stdDeviation="10"/>
<feComposite in2="SourceAlpha" operator="in" result="effect1_backgroundBlur_40003288_245565"/>
<feBlend mode="normal" in="SourceGraphic" in2="effect1_backgroundBlur_40003288_245565" result="shape"/>
</filter>
<linearGradient id="paint0_linear_40003288_245565" x1="6.39577" y1="4.36585" x2="27.1793" y2="28.8296" gradientUnits="userSpaceOnUse">
<stop stop-color="#F35D6A"/>
<stop offset="0.492332" stop-color="#CB313E"/>
<stop offset="1" stop-color="#942438"/>
</linearGradient>
<linearGradient id="paint1_linear_40003288_245565" x1="16.3875" y1="16.5539" x2="19.1123" y2="29.5881" gradientUnits="userSpaceOnUse">
<stop stop-color="#F094AC"/>
<stop offset="1" stop-color="#C3506C"/>
</linearGradient>
<linearGradient id="paint2_linear_40003288_245565" x1="15.7461" y1="13.3651" x2="17.0577" y2="19.639" gradientUnits="userSpaceOnUse">
<stop stop-color="#FAE4E3"/>
<stop offset="1" stop-color="#F094AC"/>
</linearGradient>
</defs>
</svg>
