<svg width="64" height="64" viewBox="0 0 64 64" fill="none" xmlns="http://www.w3.org/2000/svg">
<path d="M62.4049 29.2259C63.3925 30.9435 63.3925 33.0566 62.4049 34.7741L49.6049 57.035C48.6121 58.7617 46.7721 59.8261 44.7804 59.8261H19.2196C17.2279 59.8261 15.3879 58.7617 14.3951 57.035L1.59511 34.7741C0.607514 33.0566 0.607514 30.9435 1.59511 29.2259L14.3951 6.96507C15.3879 5.23839 17.2279 4.17395 19.2196 4.17395L44.7804 4.17395C46.7721 4.17395 48.6121 5.23839 49.6049 6.96507L62.4049 29.2259Z" fill="black"/>
<path d="M62.1758 28.1923C63.5604 30.542 63.5604 33.458 62.1758 35.8077L50.3901 55.8077C49.0419 58.0956 46.5842 59.5 43.9286 59.5H20.0714C17.4158 59.5 14.9581 58.0956 13.6099 55.8077L1.82418 35.8077C0.439561 33.458 0.439561 30.542 1.82418 28.1923L13.6099 8.19231C14.9581 5.90437 17.4158 4.5 20.0714 4.5L43.9286 4.5C46.5842 4.5 49.0419 5.90437 50.3901 8.19231L62.1758 28.1923Z" stroke="#FFFDFA"/>
<path d="M31.7601 49C30.4599 49 29.1775 48.5389 28.1802 47.6167C24.3152 44.0306 25.183 34.1479 29.2844 30.1303C32.704 26.7806 36.0416 26.8956 40.9602 26.2892C42.561 26.0916 43.6574 25.9979 44.815 25.7928C46.9445 25.2782 46.7896 23.4462 46.7361 23.1218C46.6827 22.7972 46.2043 21.0456 44.3341 21.2676C41.5023 21.592 37.7444 23.4876 34.1288 24.8366C29.0529 26.7491 23.7276 29.2936 19.7915 28.8495C17.3693 28.5763 15.4635 26.9199 15.0717 24.5975C14.6977 22.2922 15.8019 20.1405 18.0282 19.1672C21.7149 17.5278 28.8926 17.3741 32.7574 20.3967L29.4625 21.575C25.5264 19.9015 21.1807 20.8236 19.4887 21.9506C18.4913 22.5825 18.3132 23.3851 18.4201 24.0852C18.4735 24.4097 18.8297 25.4684 20.2011 25.6221C23.2823 25.9636 28.2158 23.5729 32.8821 21.814C36.7114 20.3796 40.6652 18.4158 43.9246 18.0401C47.3798 17.6644 49.5526 19.9868 49.9445 22.5142C50.3184 25.0245 48.8046 28.4568 45.385 29.0033C43.8889 29.2424 42.9862 29.4519 40.9602 29.633C37.8389 29.9119 34.1466 29.7322 31.7601 32.2084C30.531 33.489 29.5694 35.629 29.2844 38.6687C28.9995 41.7082 29.4804 44.3038 30.549 45.2772C31.3147 45.9945 32.4012 45.8407 33.0067 45.2943C35.0372 43.4671 35.1084 39.4883 33.3452 32.8796L36.6579 31.616C38.5637 38.4979 38.9376 44.4063 35.34 47.6679C34.3069 48.5559 33.0423 49 31.7601 49Z" fill="white"/>
</svg>
