<svg width="192" height="192" viewBox="0 0 192 192" fill="none" xmlns="http://www.w3.org/2000/svg">
<circle cx="96" cy="96" r="94.75" fill="#D0E0FC" stroke="#00171F" stroke-width="2.5"/>
<path d="M174.03 73.5003C162.899 33.6008 122.819 8.24168 81.3917 16.1685C39.9639 24.0953 10.8714 64.1513 16.7894 106.36" stroke="#00171F" stroke-width="2.5" stroke-linecap="round" stroke-linejoin="round" stroke-dasharray="6 12"/>
<g filter="url(#filter0_b_14645_10003)">
<path d="M17.897 111.05C26.9491 154.578 69.566 182.522 113.095 173.469C156.623 164.417 184.567 121.8 175.515 78.2718" fill="#2E62EA"/>
<path d="M17.897 111.05C26.9491 154.578 69.566 182.522 113.095 173.469C156.623 164.417 184.567 121.8 175.515 78.2718" stroke="#00171F" stroke-width="2.5" stroke-linejoin="round"/>
</g>
<path d="M100.649 113.627C144.174 104.576 177.692 88.7469 175.514 78.2719C173.336 67.7969 136.286 66.6428 92.7609 75.6941C49.236 84.7455 15.7181 100.575 17.8964 111.05C20.0748 121.525 57.1246 122.679 100.649 113.627Z" fill="#2E62EA" stroke="#00171F" stroke-width="2.5" stroke-linejoin="round"/>
<path d="M139.775 84.2343C141.574 72.1376 132.387 65.6534 119.792 61.3215L123.881 44.9474L113.903 42.4681L109.923 58.4063C107.306 57.7524 104.607 57.1258 101.935 56.5264L105.943 40.4793L95.9648 38L91.8755 54.3741C89.6945 53.8837 87.5681 53.3933 85.4962 52.8756V52.8211L71.7562 49.3883L69.1118 60.041C69.1118 60.041 76.4998 61.7302 76.3635 61.8391C80.3982 62.8472 81.1343 65.5172 80.998 67.6423L76.3362 86.2777C76.3055 86.3458 76.3089 86.3321 76.3089 86.3321L69.7933 112.46C69.3026 113.686 68.0486 115.538 65.2133 114.83C65.3224 114.966 57.9617 113.032 57.9617 113.032L53 124.448L66.0312 127.662C68.4575 128.262 70.802 128.888 73.1466 129.488L69.03 146.053L78.9806 148.532L83.0699 132.158C85.7961 132.893 88.4405 133.575 91.0031 134.228L86.9411 150.521L96.9189 153L101.035 136.462C118.047 139.677 130.833 138.37 136.203 123.004C140.538 110.634 135.985 103.496 127.043 98.8375C133.559 97.3663 138.466 93.0888 139.775 84.2343ZM116.984 116.165C113.903 128.534 93.0477 121.859 86.2868 120.17L91.7664 98.2381C98.5274 99.9273 120.201 103.251 116.984 116.165ZM120.064 84.0708C117.256 95.3229 99.8905 89.6015 94.2745 88.212L99.2362 68.3234C104.879 69.7129 123.009 72.3284 120.064 84.0708Z" fill="white" stroke="black" stroke-width="2" stroke-linejoin="round"/>
<path d="M175.514 78.2719C177.692 88.7469 144.174 104.576 100.65 113.627C57.1246 122.679 20.0748 121.525 17.8965 111.05" stroke="#00171F" stroke-width="2.5" stroke-linejoin="round"/>
<path d="M146.5 148C150.642 148 154 144.642 154 140.5C154 136.358 150.642 133 146.5 133C142.358 133 139 136.358 139 140.5C139 144.642 142.358 148 146.5 148Z" fill="white" stroke="#00171F" stroke-width="2.5" stroke-miterlimit="10"/>
<path d="M28.5 146C32.6421 146 36 142.642 36 138.5C36 134.358 32.6421 131 28.5 131C24.3579 131 21 134.358 21 138.5C21 142.642 24.3579 146 28.5 146Z" fill="#180D68" stroke="#00171F" stroke-width="2.5" stroke-miterlimit="10"/>
<path d="M50.5021 66C54.6454 66 58.0042 62.6421 58.0042 58.5C58.0042 54.3579 54.6454 51 50.5021 51C46.3588 51 43 54.3579 43 58.5C43 62.6421 46.3588 66 50.5021 66Z" fill="#2F43EC" stroke="#00171F" stroke-width="2.5" stroke-miterlimit="10"/>
<path d="M150.5 45C154.642 45 158 41.6421 158 37.5C158 33.3579 154.642 30 150.5 30C146.358 30 143 33.3579 143 37.5C143 41.6421 146.358 45 150.5 45Z" fill="#071C33" stroke="#00171F" stroke-width="2.5" stroke-miterlimit="10"/>
<defs>
<filter id="filter0_b_14645_10003" x="-3.32666" y="58.0173" width="201.794" height="138.405" filterUnits="userSpaceOnUse" color-interpolation-filters="sRGB">
<feFlood flood-opacity="0" result="BackgroundImageFix"/>
<feGaussianBlur in="BackgroundImageFix" stdDeviation="10"/>
<feComposite in2="SourceAlpha" operator="in" result="effect1_backgroundBlur_14645_10003"/>
<feBlend mode="normal" in="SourceGraphic" in2="effect1_backgroundBlur_14645_10003" result="shape"/>
</filter>
</defs>
</svg>
