<svg width="33" height="33" viewBox="0 0 33 33" fill="none" xmlns="http://www.w3.org/2000/svg">
<path d="M32.2427 16.7756C32.2427 25.5484 25.1682 32.6601 16.4413 32.6601C7.71451 32.6601 0.640015 25.5484 0.640015 16.7756C0.640015 8.00284 7.71451 0.891113 16.4413 0.891113C25.1682 0.891113 32.2427 8.00284 32.2427 16.7756Z" fill="#E0CAFF"/>
<path d="M32.2427 16.7756C32.2427 25.5484 25.1682 32.6601 16.4413 32.6601C7.71451 32.6601 0.640015 25.5484 0.640015 16.7756C0.640015 8.00284 7.71451 0.891113 16.4413 0.891113C25.1682 0.891113 32.2427 8.00284 32.2427 16.7756Z" fill="url(#paint0_linear_40003185_119375)"/>
<path fill-rule="evenodd" clip-rule="evenodd" d="M16.4413 32.2464C24.9409 32.2464 31.8312 25.3199 31.8312 16.7756C31.8312 8.2313 24.9409 1.30477 16.4413 1.30477C7.94177 1.30477 1.05151 8.2313 1.05151 16.7756C1.05151 25.3199 7.94177 32.2464 16.4413 32.2464ZM16.4413 32.6601C25.1682 32.6601 32.2427 25.5484 32.2427 16.7756C32.2427 8.00284 25.1682 0.891113 16.4413 0.891113C7.71451 0.891113 0.640015 8.00284 0.640015 16.7756C0.640015 25.5484 7.71451 32.6601 16.4413 32.6601Z" fill="black"/>
<path fill-rule="evenodd" clip-rule="evenodd" d="M14.0756 3.76963C13.9206 3.79944 13.7667 3.83205 13.6139 3.86738C13.5031 3.89298 13.3927 3.8235 13.3672 3.71218C13.3418 3.60085 13.4109 3.48985 13.5216 3.46425C13.6794 3.42777 13.8383 3.39412 13.9983 3.36334C14.155 3.3332 14.3116 3.30591 14.4681 3.28146C14.5804 3.26391 14.6856 3.34119 14.703 3.45406C14.7205 3.56693 14.6436 3.67266 14.5313 3.69021C14.3796 3.71392 14.2276 3.74039 14.0756 3.76963ZM16.1617 3.3306C16.1602 3.21638 16.2511 3.12256 16.3647 3.12105C16.6839 3.11682 17.0013 3.12406 17.3167 3.14246C17.4301 3.14908 17.5168 3.24689 17.5102 3.36092C17.5036 3.47496 17.4063 3.56204 17.2929 3.55542C16.9872 3.53759 16.6795 3.53057 16.3702 3.53468C16.2566 3.53618 16.1632 3.44482 16.1617 3.3306ZM11.9309 4.15908C11.9724 4.2654 11.9203 4.38544 11.8145 4.42719C11.521 4.54306 11.2329 4.66941 10.9506 4.80572C10.8481 4.85517 10.7252 4.8118 10.676 4.70883C10.6268 4.60586 10.67 4.4823 10.7724 4.43284C11.0637 4.29217 11.3611 4.16176 11.6642 4.04215C11.7699 4.0004 11.8893 4.05275 11.9309 4.15908ZM18.9619 3.55071C18.9845 3.43877 19.0932 3.36648 19.2045 3.38925C19.5166 3.45305 19.8254 3.52786 20.1305 3.61334C20.24 3.64401 20.304 3.75807 20.2735 3.8681C20.243 3.97814 20.1295 4.04248 20.0201 4.01181C19.7243 3.92896 19.425 3.85645 19.1225 3.79461C19.0112 3.77184 18.9393 3.66264 18.9619 3.55071ZM9.37171 5.46104C9.43525 5.55574 9.41039 5.68429 9.31619 5.74816C9.05518 5.92514 8.80098 6.11131 8.554 6.30612C8.4646 6.37663 8.33527 6.36094 8.26513 6.27107C8.19498 6.18121 8.21059 6.05119 8.29999 5.98068C8.55468 5.77979 8.81685 5.58778 9.08608 5.40522C9.18029 5.34135 9.30817 5.36634 9.37171 5.46104ZM21.6522 4.36267C21.6979 4.25807 21.8193 4.21048 21.9233 4.25638C22.2144 4.38477 22.5006 4.52334 22.7813 4.67174C22.8819 4.7249 22.9206 4.84995 22.8677 4.95106C22.8148 5.05216 22.6904 5.09103 22.5898 5.03788C22.3176 4.894 22.0402 4.75965 21.758 4.63517C21.6539 4.58928 21.6066 4.46727 21.6522 4.36267ZM7.15123 7.28658C7.23333 7.36555 7.23622 7.49647 7.15767 7.57901C6.94021 7.80752 6.73088 8.04366 6.53012 8.28688C6.45756 8.37478 6.32785 8.38691 6.2404 8.31397C6.15296 8.24102 6.14089 8.11063 6.21345 8.02272C6.42039 7.77203 6.63616 7.52862 6.86033 7.29306C6.93888 7.21052 7.06912 7.20762 7.15123 7.28658ZM24.1123 5.72583C24.1788 5.63319 24.3074 5.61225 24.3996 5.67906C24.657 5.8657 24.9079 6.06147 25.1519 6.26602C25.2391 6.33919 25.2509 6.46961 25.1781 6.55733C25.1053 6.64505 24.9755 6.65684 24.8883 6.58367C24.6518 6.38535 24.4085 6.19553 24.1589 6.01457C24.0667 5.94775 24.0459 5.81848 24.1123 5.72583ZM5.36401 9.54237C5.46079 9.60224 5.49097 9.72963 5.43142 9.82692C5.2667 10.096 5.11136 10.3711 4.96583 10.6515C4.91327 10.7528 4.78899 10.792 4.68825 10.7392C4.5875 10.6864 4.54844 10.5614 4.601 10.4602C4.75103 10.171 4.91117 9.88751 5.08096 9.61013C5.14051 9.51284 5.26724 9.48251 5.36401 9.54237ZM26.2334 7.57728C26.3177 7.50074 26.4478 7.50742 26.524 7.5922C26.7363 7.82866 26.9407 8.07307 27.1367 8.32507C27.2067 8.41507 27.1908 8.54506 27.1013 8.6154C27.0118 8.68575 26.8825 8.66982 26.8125 8.57982C26.6226 8.33555 26.4244 8.09863 26.2185 7.8694C26.1424 7.78462 26.149 7.65383 26.2334 7.57728ZM4.08936 12.1258C4.19656 12.1637 4.25293 12.2817 4.21525 12.3895C4.11121 12.6871 4.01764 12.9889 3.93495 13.2944C3.90512 13.4046 3.79205 13.4697 3.6824 13.4397C3.57276 13.4097 3.50806 13.296 3.53789 13.1858C3.62321 12.8706 3.71973 12.5593 3.82703 12.2523C3.86471 12.1446 3.98216 12.0879 4.08936 12.1258ZM27.9185 9.83637C28.0171 9.77952 28.1428 9.81374 28.1994 9.91282C28.3568 10.1886 28.5051 10.471 28.6437 10.7597C28.693 10.8626 28.6501 10.9862 28.5478 11.0358C28.4454 11.0855 28.3224 11.0423 28.2731 10.9395C28.1387 10.6597 27.9951 10.386 27.8425 10.1187C27.7859 10.0196 27.82 9.89323 27.9185 9.83637ZM3.39441 14.9233C3.50723 14.9369 3.58773 15.0399 3.57421 15.1533C3.53696 15.4656 3.51098 15.7805 3.49664 16.0974C3.49148 16.2115 3.39527 16.2998 3.28176 16.2946C3.16825 16.2894 3.08041 16.1927 3.08558 16.0786C3.10038 15.7515 3.1272 15.4264 3.16564 15.104C3.17916 14.9906 3.28159 14.9097 3.39441 14.9233ZM29.0885 12.4033C29.1968 12.3688 29.3125 12.429 29.3469 12.5379C29.3948 12.6897 29.4402 12.8428 29.4831 12.9972C29.5136 13.1072 29.4496 13.2213 29.3402 13.252C29.2307 13.2827 29.1173 13.2184 29.0867 13.1084C29.0452 12.9587 29.0011 12.8102 28.9547 12.663C28.9203 12.5542 28.9802 12.4379 29.0885 12.4033ZM3.3247 17.8055C3.43774 17.7938 3.53879 17.8765 3.55042 17.9901C3.56645 18.1469 3.58541 18.3039 3.60734 18.4611C3.62312 18.5742 3.54468 18.6788 3.43215 18.6946C3.31962 18.7105 3.21561 18.6317 3.19983 18.5185C3.1772 18.3563 3.15763 18.1942 3.14108 18.0324C3.12946 17.9188 3.21167 17.8172 3.3247 17.8055Z" fill="black"/>
<g filter="url(#filter0_b_40003185_119375)">
<path d="M3.58575 19.2656C5.07571 26.468 12.0903 31.0916 19.255 29.5938C26.4197 28.096 31.0191 21.0445 29.5292 13.8421" fill="#FED579"/>
</g>
<g filter="url(#filter1_b_40003185_119375)">
<path fill-rule="evenodd" clip-rule="evenodd" d="M19.2969 29.7965C12.0209 31.3175 4.89737 26.6221 3.38428 19.3079L3.78715 19.2236C5.25397 26.3142 12.1596 30.866 19.2131 29.3915C26.2665 27.9169 30.7945 20.9749 29.3277 13.8843L29.7305 13.8001C31.2436 21.1144 26.5728 28.2754 19.2969 29.7965Z" fill="black"/>
</g>
<path d="M17.2145 19.6417C24.3786 18.144 29.8956 15.5249 29.537 13.7917C29.1785 12.0584 23.0802 11.8675 15.9161 13.3651C8.75202 14.8628 3.23506 17.482 3.59361 19.2152C3.95216 20.9484 10.0505 21.1394 17.2145 19.6417Z" fill="#FED579"/>
<path fill-rule="evenodd" clip-rule="evenodd" d="M4.4963 17.9359C3.92446 18.4425 3.73013 18.8596 3.79503 19.1733C3.85993 19.487 4.20356 19.7917 4.92889 20.0271C5.63659 20.2567 6.63451 20.3952 7.85838 20.4335C10.3028 20.5101 13.6016 20.186 17.1726 19.4394C20.7436 18.6929 23.8975 17.6681 26.1089 16.6182C27.2161 16.0926 28.0763 15.5656 28.6343 15.0714C29.2061 14.5648 29.4004 14.1477 29.3356 13.834C29.2707 13.5203 28.927 13.2156 28.2017 12.9803C27.494 12.7506 26.4961 12.6121 25.2722 12.5738C22.8278 12.4972 19.5289 12.8213 15.958 13.5679C12.387 14.3144 9.23311 15.3392 7.02171 16.3891C5.91451 16.9147 5.05424 17.4417 4.4963 17.9359ZM6.84599 16.015C9.09445 14.9476 12.2811 13.914 15.8742 13.1629C19.4673 12.4117 22.7996 12.0825 25.285 12.1603C26.526 12.1992 27.5677 12.3398 28.3281 12.5866C29.0709 12.8277 29.624 13.1969 29.7384 13.7498C29.8528 14.3027 29.492 14.8629 28.9063 15.3817C28.3068 15.9128 27.4073 16.4593 26.2846 16.9923C24.0361 18.0597 20.8495 19.0933 17.2564 19.8444C13.6633 20.5956 10.331 20.9248 7.84557 20.847C6.60455 20.8081 5.56291 20.6675 4.80247 20.4207C4.05964 20.1796 3.50653 19.8104 3.39216 19.2575C3.27778 18.7046 3.63861 18.1444 4.22424 17.6256C4.82376 17.0945 5.72326 16.548 6.84599 16.015Z" fill="black"/>
<path d="M13.1935 25.3425C8.37871 23.6302 5.90954 18.3096 7.69975 13.6004C8.62568 11.0318 10.6627 9.07478 13.1935 8.15742C13.4405 8.03515 13.5639 7.85168 13.5639 7.5458V6.68965C13.5639 6.44497 13.4405 6.2615 13.1935 6.20044C13.1317 6.20044 13.0083 6.20044 12.9465 6.2615C7.08242 8.09621 3.87251 14.2732 5.72435 20.0831C6.83546 23.5078 9.48982 26.1376 12.9465 27.2384C13.1935 27.3607 13.4405 27.2384 13.5021 26.9938C13.5639 26.9327 13.5639 26.8715 13.5639 26.7492V25.8929C13.5639 25.7095 13.3787 25.4649 13.1935 25.3425ZM19.7367 6.2615C19.4898 6.13923 19.2428 6.2615 19.1812 6.50618C19.1194 6.56738 19.1194 6.62844 19.1194 6.75085V7.607C19.1194 7.85168 19.3046 8.09621 19.4898 8.21863C24.3046 9.93093 26.7737 15.2516 24.9835 19.9608C24.0576 22.5294 22.0206 24.4864 19.4898 25.4037C19.2428 25.526 19.1194 25.7095 19.1194 26.0154V26.8715C19.1194 27.1162 19.2428 27.2997 19.4898 27.3607C19.5516 27.3607 19.675 27.3607 19.7367 27.2997C25.6009 25.4649 28.8108 19.288 26.9589 13.4781C25.8478 9.99213 23.1317 7.36233 19.7367 6.2615V6.2615Z" fill="white"/>
<path fill-rule="evenodd" clip-rule="evenodd" d="M13.1908 6L13.2179 6L13.2416 6.00586C13.4047 6.04617 13.5399 6.13099 13.6328 6.25756C13.7247 6.38274 13.7643 6.53376 13.7643 6.68959V7.54574C13.7643 7.72589 13.7277 7.88736 13.6415 8.02612C13.5553 8.16501 13.4301 8.26384 13.2824 8.33694L13.2724 8.34192L13.2618 8.34575C10.7843 9.2438 8.79305 11.1583 7.88827 13.6683L7.88768 13.6699L7.88707 13.6715C6.13728 18.2743 8.55039 23.4785 13.2607 25.1537L13.2837 25.1618L13.304 25.1753C13.4195 25.2517 13.5298 25.3618 13.6124 25.48C13.6918 25.5936 13.7643 25.7415 13.7643 25.8929V26.7492C13.7643 26.7556 13.7643 26.7622 13.7643 26.769C13.7648 26.8611 13.7654 26.9817 13.6819 27.092C13.6295 27.2466 13.5211 27.3701 13.3772 27.4359C13.222 27.5068 13.0412 27.5038 12.8724 27.4251C9.36121 26.3023 6.66355 23.6272 5.53376 20.1448L5.53345 20.1439C3.65151 14.2396 6.90393 7.96323 12.8507 6.08152C12.9165 6.03571 12.989 6.01829 13.0374 6.0103C13.1001 5.99997 13.1601 5.99999 13.1908 6ZM13.0804 6.41089L13.0528 6.43816L13.0064 6.45268C7.24796 8.25433 4.09748 14.3183 5.91514 20.0217C7.00624 23.3842 9.61181 25.9661 13.0074 27.0475L13.0218 27.0521L13.0355 27.0588C13.1094 27.0954 13.1696 27.0901 13.2105 27.0714C13.2522 27.0524 13.2909 27.0118 13.3078 26.9448L13.3215 26.8905L13.3602 26.8522C13.3611 26.8471 13.3621 26.838 13.3627 26.8223C13.3635 26.8033 13.3635 26.7809 13.3635 26.7492V25.8929C13.3635 25.8608 13.3434 25.7947 13.2839 25.7096C13.2325 25.6361 13.1657 25.5686 13.1015 25.5224C8.19909 23.7636 5.68547 18.3377 7.51185 13.5307C8.45782 10.908 10.5357 8.91122 13.1141 7.97304C13.2077 7.92514 13.2651 7.87266 13.3011 7.81469C13.3384 7.75468 13.3635 7.67147 13.3635 7.54574V6.68959C13.3635 6.60075 13.3413 6.53769 13.3098 6.4947C13.282 6.45686 13.2382 6.42245 13.1673 6.40093C13.1447 6.40128 13.1229 6.40239 13.1026 6.40573C13.092 6.40748 13.0847 6.40943 13.0804 6.41089ZM19.8114 6.07501C23.2597 7.19756 26.0199 9.87207 27.1499 13.4172C29.0318 19.3215 25.7794 25.5978 19.8326 27.4795C19.7668 27.5253 19.6943 27.5427 19.6459 27.5507C19.5832 27.5611 19.5232 27.561 19.4926 27.561H19.4654L19.4417 27.5552C19.2786 27.5149 19.1434 27.43 19.0505 27.3035C18.9586 27.1783 18.919 27.0273 18.919 26.8714V26.0153C18.919 25.8351 18.9556 25.6737 19.0418 25.5349C19.128 25.396 19.2532 25.2972 19.4009 25.2241L19.4109 25.2191L19.4215 25.2153C21.899 24.3172 23.8903 22.4027 24.795 19.8928L24.7956 19.8912L24.7962 19.8895C26.546 15.2867 24.1329 10.0825 19.4226 8.40737L19.3997 8.39919L19.3793 8.38573C19.2632 8.309 19.1512 8.19732 19.0671 8.06768C18.9833 7.9386 18.919 7.77878 18.919 7.60695V6.7508C18.919 6.74752 18.919 6.74418 18.919 6.7408C18.919 6.68855 18.9189 6.62429 18.9307 6.56582C18.9424 6.50789 18.965 6.45551 19.0015 6.40767C19.0539 6.25309 19.1622 6.12974 19.3061 6.06394C19.4615 5.99293 19.6425 5.99599 19.8114 6.07501ZM19.7368 6.26144L19.6749 6.45205C23.0105 7.53363 25.6772 10.1165 26.768 13.5389C28.586 19.2425 25.4355 25.3067 19.6769 27.1084L19.6305 27.1229L19.6029 27.1501C19.5986 27.1516 19.5913 27.1536 19.5807 27.1553C19.5604 27.1587 19.5386 27.1598 19.516 27.1601C19.4451 27.1386 19.4013 27.1042 19.3735 27.0663C19.342 27.0233 19.3198 26.9603 19.3198 26.8714V26.0153C19.3198 25.8896 19.345 25.8064 19.3822 25.7463C19.4182 25.6884 19.4756 25.6359 19.5693 25.588C22.1476 24.6498 24.2255 22.653 25.1715 20.0303C26.9978 15.2233 24.4842 9.79743 19.5819 8.03867C19.5184 7.99292 19.4532 7.92646 19.4033 7.84953C19.3481 7.76458 19.3198 7.67979 19.3198 7.60695V6.7508C19.3198 6.71905 19.3198 6.69665 19.3206 6.67762C19.3212 6.66179 19.3223 6.65271 19.3231 6.64759L19.3619 6.60919L19.3755 6.55506C19.3924 6.48804 19.4311 6.44746 19.4728 6.42841C19.5137 6.40969 19.5739 6.40439 19.6478 6.44102L19.7368 6.26144Z" fill="black"/>
<path d="M20.75 19.4347C20.75 16.8972 19.2678 16.0271 16.3033 15.6647C14.1858 15.3746 13.7623 14.7946 13.7623 13.7795C13.7623 12.7643 14.4682 12.112 15.8798 12.112C17.1503 12.112 17.8562 12.547 18.209 13.6345C18.2797 13.8521 18.4914 13.997 18.7032 13.997H19.8324C20.1147 13.997 20.3265 13.7795 20.3265 13.4896V13.417C20.0441 11.8219 18.7736 10.5894 17.1503 10.4445V8.70441C17.1503 8.41434 16.9385 8.19683 16.5857 8.12427H15.5269C15.2446 8.12427 15.0328 8.34178 14.9622 8.70441V10.3719C12.8447 10.662 11.5037 12.112 11.5037 13.9246C11.5037 16.3172 12.9153 17.2596 15.8798 17.6223C17.8562 17.9847 18.4914 18.4197 18.4914 19.5798C18.4914 20.7399 17.5031 21.5374 16.1622 21.5374C14.3269 21.5374 13.6917 20.7398 13.4799 19.6522C13.4095 19.3623 13.1977 19.2172 12.986 19.2172H11.786C11.5037 19.2172 11.292 19.4347 11.292 19.7248V19.7973C11.5742 21.6098 12.7036 22.9149 15.0328 23.2775V25.0176C15.0328 25.3075 15.2446 25.525 15.5974 25.5975H16.6561C16.9385 25.5975 17.1503 25.38 17.2209 25.0176V23.2775C19.3384 22.9149 20.75 21.3923 20.75 19.4347V19.4347Z" fill="white"/>
<path fill-rule="evenodd" clip-rule="evenodd" d="M14.7655 8.66604C14.8467 8.24893 15.1133 7.92383 15.5269 7.92383H16.6061L16.626 7.92794C17.0408 8.01323 17.3507 8.29055 17.3507 8.70435V10.2656C18.981 10.4919 20.2372 11.7628 20.5238 13.382L20.5269 13.3994V13.4895C20.5269 13.885 20.2304 14.1973 19.8324 14.1973H18.7032C18.4063 14.1973 18.1164 13.9981 18.0184 13.6964C17.8521 13.1836 17.6105 12.847 17.2799 12.6338C16.9454 12.418 16.4948 12.3123 15.8798 12.3123C15.2017 12.3123 14.7238 12.4693 14.4189 12.7198C14.1196 12.9657 13.9627 13.3217 13.9627 13.7794C13.9627 14.2573 14.0609 14.5854 14.3669 14.8399C14.6913 15.1096 15.2771 15.3217 16.3291 15.4659C17.8171 15.648 18.9754 15.9608 19.7618 16.5762C20.5642 17.2042 20.9504 18.1226 20.9504 19.4347C20.9504 21.452 19.5283 23.017 17.4213 23.4438V25.0368L17.4176 25.0558C17.3363 25.4728 17.0698 25.7978 16.6562 25.7978H15.577L15.5571 25.7937C15.1423 25.7084 14.8324 25.4312 14.8324 25.0175V23.447C13.7198 23.2475 12.8686 22.8275 12.2543 22.224C11.6089 21.5898 11.2403 20.768 11.094 19.8281L11.0916 19.8128V19.7247C11.0916 19.3291 11.388 19.0168 11.786 19.0168H12.986C13.2975 19.0168 13.5841 19.2324 13.6747 19.6048L13.6757 19.6093L13.6766 19.6139C13.7772 20.1306 13.973 20.5514 14.3383 20.8468C14.7049 21.1433 15.2715 21.337 16.1622 21.337C17.4289 21.337 18.291 20.596 18.291 19.5798C18.291 19.3071 18.2536 19.0916 18.1773 18.9148C18.1021 18.7406 17.9848 18.5935 17.8079 18.4632C17.4437 18.1948 16.8346 18.0014 15.8495 17.8204C14.361 17.6378 13.2223 17.3063 12.4548 16.691C11.6721 16.0635 11.3034 15.1647 11.3034 13.9246C11.3034 12.0466 12.6605 10.5555 14.7618 10.1998V8.68501L14.7655 8.66604ZM15.1626 8.7245V10.5467L14.9894 10.5704C12.9541 10.8492 11.7041 12.2284 11.7041 13.9246C11.7041 15.077 12.0412 15.8458 12.7054 16.3783C13.3838 16.9221 14.4311 17.2431 15.9041 17.4233L15.9101 17.424L15.9159 17.4251C16.9038 17.6063 17.5988 17.8113 18.0456 18.1406C18.2746 18.3093 18.4396 18.5111 18.5453 18.7561C18.6498 18.9985 18.6918 19.2724 18.6918 19.5798C18.6918 20.8838 17.5774 21.7377 16.1622 21.7377C15.2176 21.7377 14.549 21.5326 14.0862 21.1584C13.6235 20.7841 13.3957 20.2643 13.2842 19.6954C13.233 19.4911 13.0972 19.4175 12.986 19.4175H11.786C11.6195 19.4175 11.4924 19.5402 11.4924 19.7247V19.7816C11.6298 20.6476 11.9664 21.3792 12.5352 21.9381C13.1077 22.5006 13.9305 22.903 15.0636 23.0794L15.2332 23.1058V25.0175C15.2332 25.18 15.3418 25.3344 15.6188 25.3971H16.6562C16.8043 25.3971 16.958 25.2915 17.0205 24.9973V23.1084L17.1871 23.0799C19.2238 22.7311 20.5496 21.2798 20.5496 19.4347C20.5496 18.2092 20.1946 17.4238 19.5148 16.8918C18.8192 16.3474 17.7547 16.044 16.279 15.8635L16.2775 15.8633L16.2761 15.8632C15.2114 15.7173 14.5272 15.4944 14.1106 15.148C13.6755 14.7861 13.5619 14.3167 13.5619 13.7794C13.5619 13.222 13.758 12.7442 14.1645 12.4102C14.5655 12.0807 15.1463 11.9115 15.8798 11.9115C16.5353 11.9115 17.0728 12.0233 17.4971 12.297C17.9253 12.5732 18.2131 12.9978 18.3996 13.5726C18.4429 13.7059 18.5765 13.7966 18.7032 13.7966H19.8324C19.9991 13.7966 20.1261 13.6738 20.1261 13.4895V13.4348C19.8526 11.9321 18.6549 10.7799 17.1325 10.644L16.9499 10.6277V8.70435C16.9499 8.54169 16.8412 8.38728 16.5643 8.32459H15.5269C15.3788 8.32459 15.2251 8.43018 15.1626 8.7245Z" fill="black"/>
<path fill-rule="evenodd" clip-rule="evenodd" d="M7.85051 20.4839C10.2949 20.5604 13.5938 20.2363 17.1647 19.4898C20.7357 18.7433 23.8896 17.7184 26.101 16.6686C27.2082 16.1429 28.0685 15.616 28.6264 15.1217C29.1982 14.6151 29.3926 14.198 29.3277 13.8843L29.7305 13.8001C29.8449 14.353 29.4841 14.9133 28.8985 15.4321C28.2989 15.9632 27.3994 16.5096 26.2767 17.0426C24.0283 18.11 20.8416 19.1436 17.2485 19.8948C13.6554 20.6459 10.3231 20.9752 7.8377 20.8973C6.59667 20.8585 5.55503 20.7178 4.79459 20.471C4.05176 20.23 3.49866 19.8608 3.38428 19.3079L3.78715 19.2236C3.85205 19.5374 4.19569 19.842 4.92101 20.0774C5.62871 20.3071 6.62663 20.4455 7.85051 20.4839Z" fill="black"/>
<path d="M24.7535 25.3797C25.4353 25.3797 25.988 24.8241 25.988 24.1387C25.988 23.4533 25.4353 22.8977 24.7535 22.8977C24.0717 22.8977 23.519 23.4533 23.519 24.1387C23.519 24.8241 24.0717 25.3797 24.7535 25.3797Z" fill="#3550DB"/>
<path fill-rule="evenodd" clip-rule="evenodd" d="M24.7535 23.1046C24.1854 23.1046 23.7248 23.5676 23.7248 24.1387C23.7248 24.7099 24.1854 25.1729 24.7535 25.1729C25.3217 25.1729 25.7823 24.7099 25.7823 24.1387C25.7823 23.5676 25.3217 23.1046 24.7535 23.1046ZM23.3133 24.1387C23.3133 23.3391 23.9581 22.6909 24.7535 22.6909C25.5489 22.6909 26.1937 23.3391 26.1937 24.1387C26.1937 24.9383 25.5489 25.5865 24.7535 25.5865C23.9581 25.5865 23.3133 24.9383 23.3133 24.1387Z" fill="black"/>
<path d="M5.33104 25.0488C6.01282 25.0488 6.56551 24.4932 6.56551 23.8079C6.56551 23.1225 6.01282 22.5669 5.33104 22.5669C4.64925 22.5669 4.09656 23.1225 4.09656 23.8079C4.09656 24.4932 4.64925 25.0488 5.33104 25.0488Z" fill="white"/>
<path fill-rule="evenodd" clip-rule="evenodd" d="M5.33103 22.7735C4.76288 22.7735 4.3023 23.2365 4.3023 23.8077C4.3023 24.3788 4.76288 24.8418 5.33103 24.8418C5.89919 24.8418 6.35976 24.3788 6.35976 23.8077C6.35976 23.2365 5.89919 22.7735 5.33103 22.7735ZM3.89081 23.8077C3.89081 23.0081 4.53562 22.3599 5.33103 22.3599C6.12645 22.3599 6.77126 23.0081 6.77126 23.8077C6.77126 24.6073 6.12645 25.2555 5.33103 25.2555C4.53562 25.2555 3.89081 24.6073 3.89081 23.8077Z" fill="black"/>
<path d="M8.95253 11.8118C9.63451 11.8118 10.1874 11.2562 10.1874 10.5708C10.1874 9.88544 9.63451 9.32983 8.95253 9.32983C8.27056 9.32983 7.71771 9.88544 7.71771 10.5708C7.71771 11.2562 8.27056 11.8118 8.95253 11.8118Z" fill="#F53EBC"/>
<path fill-rule="evenodd" clip-rule="evenodd" d="M8.95253 9.53646C8.38413 9.53646 7.92346 9.99952 7.92346 10.5706C7.92346 11.1417 8.38413 11.6048 8.95253 11.6048C9.52093 11.6048 9.98161 11.1417 9.98161 10.5706C9.98161 9.99952 9.52093 9.53646 8.95253 9.53646ZM7.51196 10.5706C7.51196 9.77095 8.15698 9.1228 8.95253 9.1228C9.74808 9.1228 10.3931 9.77095 10.3931 10.5706C10.3931 11.3703 9.74808 12.0184 8.95253 12.0184C8.15698 12.0184 7.51196 11.3703 7.51196 10.5706Z" fill="black"/>
<path d="M25.4119 8.33693C26.0937 8.33693 26.6464 7.78133 26.6464 7.09596C26.6464 6.41058 26.0937 5.85498 25.4119 5.85498C24.7301 5.85498 24.1774 6.41058 24.1774 7.09596C24.1774 7.78133 24.7301 8.33693 25.4119 8.33693Z" fill="#FED37A"/>
<path fill-rule="evenodd" clip-rule="evenodd" d="M25.4119 6.06185C24.8438 6.06185 24.3832 6.52486 24.3832 7.096C24.3832 7.66714 24.8438 8.13015 25.4119 8.13015C25.9801 8.13015 26.4406 7.66714 26.4406 7.096C26.4406 6.52486 25.9801 6.06185 25.4119 6.06185ZM23.9717 7.096C23.9717 6.2964 24.6165 5.64819 25.4119 5.64819C26.2073 5.64819 26.8521 6.2964 26.8521 7.096C26.8521 7.8956 26.2073 8.5438 25.4119 8.5438C24.6165 8.5438 23.9717 7.8956 23.9717 7.096Z" fill="black"/>
<defs>
<filter id="filter0_b_40003185_119375" x="-16.4142" y="-6.15796" width="66.2236" height="56.0334" filterUnits="userSpaceOnUse" color-interpolation-filters="sRGB">
<feFlood flood-opacity="0" result="BackgroundImageFix"/>
<feGaussianBlur in="BackgroundImageFix" stdDeviation="10"/>
<feComposite in2="SourceAlpha" operator="in" result="effect1_backgroundBlur_40003185_119375"/>
<feBlend mode="normal" in="SourceGraphic" in2="effect1_backgroundBlur_40003185_119375" result="shape"/>
</filter>
<filter id="filter1_b_40003185_119375" x="-16.6157" y="-6.19995" width="66.6309" height="56.2825" filterUnits="userSpaceOnUse" color-interpolation-filters="sRGB">
<feFlood flood-opacity="0" result="BackgroundImageFix"/>
<feGaussianBlur in="BackgroundImageFix" stdDeviation="10"/>
<feComposite in2="SourceAlpha" operator="in" result="effect1_backgroundBlur_40003185_119375"/>
<feBlend mode="normal" in="SourceGraphic" in2="effect1_backgroundBlur_40003185_119375" result="shape"/>
</filter>
<linearGradient id="paint0_linear_40003185_119375" x1="0.640015" y1="0.891113" x2="32.4086" y2="32.4933" gradientUnits="userSpaceOnUse">
<stop stop-color="#FFDE75"/>
<stop offset="0.485" stop-color="#FA3EBC"/>
<stop offset="1" stop-color="#354FDB"/>
</linearGradient>
</defs>
</svg>
