<svg width="38" height="36" viewBox="0 0 38 36" fill="none" xmlns="http://www.w3.org/2000/svg">
<g clip-path="url(#clip0_1_3)">
<mask id="mask0_1_3" style="mask-type:luminance" maskUnits="userSpaceOnUse" x="0" y="0" width="38" height="36">
<path d="M38 0H0V36H38V0Z" fill="white"/>
</mask>
<g mask="url(#mask0_1_3)">
<path fill-rule="evenodd" clip-rule="evenodd" d="M17.3947 34.532C22.008 34.532 26.4324 32.7129 29.6946 29.4749C32.9567 26.2369 34.7894 21.8453 34.7894 17.266C34.7894 12.6868 32.9567 8.29511 29.6946 5.0571C26.4324 1.81909 22.008 0 17.3947 0C12.7813 0 8.35692 1.81909 5.09478 5.0571C1.83265 8.29511 0 12.6868 0 17.266C0 21.8453 1.83265 26.2369 5.09478 29.4749C8.35692 32.7129 12.7813 34.532 17.3947 34.532Z" fill="url(#paint0_linear_1_3)"/>
<path d="M10.1768 18.2158L17.3955 22.4583L24.6019 18.2158L17.3955 28.3164L10.1768 18.2158Z" fill="white"/>
<path d="M10.1768 18.2158L17.3955 22.4583V28.3164L10.1768 18.2158Z" fill="#CFCEEC"/>
<path d="M17.3955 20.8796L10.1768 16.6371L17.3955 5.35254L24.6143 16.6371L17.3955 20.8796Z" fill="white"/>
<path d="M17.3955 20.8796L10.1768 16.6371L17.3955 5.35254V20.8796Z" fill="#CFCEEC"/>
</g>
</g>
<defs>
<linearGradient id="paint0_linear_1_3" x1="32.0749" y1="2.69638" x2="5.09854" y2="29.8944" gradientUnits="userSpaceOnUse">
<stop stop-color="#ED3434"/>
<stop offset="1" stop-color="#B32929"/>
</linearGradient>
<clipPath id="clip0_1_3">
<rect width="38" height="36" fill="white"/>
</clipPath>
</defs>
</svg>
