<svg fill="none" xmlns="http://www.w3.org/2000/svg" viewBox="0 0 25 25"><path d="M25 12.5C25 19.404 19.404 25 12.5 25S0 19.404 0 12.5 5.596 0 12.5 0 25 5.596 25 12.5Z" fill="#A1FE9F"/><path fill-rule="evenodd" clip-rule="evenodd" d="M12.5 24.674c6.724 0 12.174-5.45 12.174-12.174C24.674 5.776 19.224.326 12.5.326 5.776.326.326 5.776.326 12.5c0 6.724 5.45 12.174 12.174 12.174Zm0 .326C19.404 25 25 19.404 25 12.5S19.404 0 12.5 0 0 5.596 0 12.5 5.596 25 12.5 25Z" fill="#00171F"/><path fill-rule="evenodd" clip-rule="evenodd" d="M10.629 2.265c-.123.024-.245.05-.366.077a.163.163 0 1 1-.073-.317 10.43 10.43 0 0 1 .75-.144.163.163 0 0 1 .05.322c-.12.018-.241.04-.361.062Zm1.65-.345a.163.163 0 0 1 .16-.165c.253-.004.504.002.754.017a.163.163 0 0 1-.02.324c-.241-.014-.485-.02-.73-.016a.163.163 0 0 1-.164-.16Zm-3.347.652a.163.163 0 0 1-.092.21c-.232.092-.46.191-.684.298a.163.163 0 0 1-.14-.293c.23-.11.465-.213.705-.307a.163.163 0 0 1 .211.092Zm5.562-.48a.163.163 0 0 1 .192-.126c.247.05.491.109.732.176a.163.163 0 0 1-.087.314c-.234-.066-.47-.123-.71-.171a.163.163 0 0 1-.127-.192ZM6.907 3.597c.05.075.031.176-.043.226-.207.14-.408.286-.603.44a.163.163 0 1 1-.201-.257c.201-.158.409-.31.622-.453a.163.163 0 0 1 .225.044Zm9.715-.864a.163.163 0 0 1 .215-.084c.23.101.456.21.678.327a.163.163 0 1 1-.151.288 10.325 10.325 0 0 0-.658-.317.163.163 0 0 1-.084-.214Zm-11.471 2.3a.163.163 0 0 1 .005.23c-.172.18-.338.366-.496.558a.163.163 0 1 1-.25-.208c.163-.197.333-.389.51-.574a.163.163 0 0 1 .23-.005Zm13.417-1.228a.163.163 0 0 1 .228-.036c.203.147.402.3.595.462a.163.163 0 0 1-.209.25c-.187-.157-.38-.306-.577-.448a.163.163 0 0 1-.037-.228ZM3.738 6.808c.076.047.1.147.052.224-.13.211-.253.428-.368.649a.163.163 0 0 1-.288-.151c.118-.227.245-.45.38-.669a.163.163 0 0 1 .223-.053ZM20.245 5.26a.163.163 0 0 1 .23.012c.168.186.33.379.485.577a.163.163 0 1 1-.257.2c-.15-.192-.307-.378-.47-.559a.163.163 0 0 1 .012-.23ZM2.73 8.841c.085.03.13.122.1.207-.083.234-.157.472-.222.712a.163.163 0 1 1-.314-.085c.067-.248.143-.493.228-.735a.163.163 0 0 1 .208-.1Zm18.85-1.802a.163.163 0 0 1 .223.06c.124.217.241.44.351.667a.163.163 0 1 1-.293.141c-.106-.22-.22-.435-.34-.646a.163.163 0 0 1 .06-.222Zm-19.4 4.003c.09.01.153.092.142.181-.03.246-.05.494-.061.743a.163.163 0 0 1-.325-.015c.011-.257.033-.513.063-.767a.163.163 0 0 1 .181-.142ZM22.505 9.06a.163.163 0 0 1 .204.106c.038.12.074.24.108.362a.163.163 0 0 1-.314.087 10.566 10.566 0 0 0-.104-.35.163.163 0 0 1 .106-.205ZM2.124 13.31c.09-.009.17.056.178.146.013.123.028.247.045.37a.163.163 0 1 1-.322.045 10.466 10.466 0 0 1-.046-.382.163.163 0 0 1 .145-.179Z" fill="#00171F"/><g filter="url(#a)"><path d="M2.33 14.46c1.179 5.667 6.728 9.306 12.396 8.127 5.668-1.179 9.306-6.728 8.127-12.396" fill="#72FF70"/></g><g filter="url(#b)"><path fill-rule="evenodd" clip-rule="evenodd" d="M14.759 22.747C9.003 23.943 3.368 20.248 2.17 14.493l.319-.067c1.16 5.58 6.623 9.162 12.203 8.002 5.58-1.16 9.161-6.623 8.001-12.203l.319-.066c1.197 5.755-2.498 11.39-8.254 12.588Z" fill="#00171F"/></g><path d="M13.111 14.755c5.668-1.178 10.032-3.24 9.748-4.603-.283-1.364-5.107-1.514-10.775-.336-5.667 1.179-10.031 3.24-9.748 4.604.284 1.364 5.108 1.514 10.775.335Z" fill="#72FF70"/><path fill-rule="evenodd" clip-rule="evenodd" d="M3.05 13.413c-.452.399-.606.727-.554.974.051.246.323.486.897.671.56.181 1.349.29 2.317.32 1.934.06 4.544-.194 7.368-.782 2.825-.587 5.32-1.394 7.07-2.22.875-.414 1.556-.828 1.997-1.217.453-.399.607-.727.555-.974-.051-.247-.323-.487-.897-.672-.56-.18-1.349-.29-2.317-.32-1.934-.06-4.543.195-7.368.783-2.825.587-5.32 1.393-7.07 2.22-.876.413-1.556.828-1.997 1.217ZM4.91 11.9c1.778-.84 4.299-1.653 7.141-2.244 2.843-.591 5.479-.85 7.445-.79.982.031 1.806.142 2.407.336.588.19 1.025.48 1.116.916.09.435-.195.876-.658 1.284-.475.418-1.186.848-2.074 1.267-1.779.84-4.3 1.654-7.142 2.245-2.843.59-5.479.85-7.445.789-.982-.03-1.806-.142-2.407-.336-.588-.19-1.025-.48-1.116-.915-.09-.435.195-.876.658-1.284.475-.418 1.186-.848 2.074-1.268Z" fill="#00171F"/><path d="m7.756 14.61 4.83 5.203 4.832-5.203-4.831 1.115-4.831-1.115ZM6.64 11.637l5.947 1.487 5.946-1.487-5.946-6.69-5.946 6.69ZM12.587 4.948v5.203-5.203Z" fill="#fff"/><path d="m6.64 11.637 5.947-1.486 5.946 1.486" fill="#fff"/><path fill-rule="evenodd" clip-rule="evenodd" d="M12.587 4.785c.046 0 .09.02.121.055l5.947 6.69a.163.163 0 0 1-.083.265l-5.946 1.487a.162.162 0 0 1-.079 0l-5.946-1.487a.163.163 0 0 1-.082-.266l5.946-6.69a.163.163 0 0 1 .122-.054Zm-.163.591-5.312 5.976 5.312-1.328V5.376Zm.163 4.943-5.275 1.318 5.275 1.32 5.275-1.32-5.275-1.318Zm5.474 1.033-5.312-1.328V5.376l5.312 5.976ZM7.615 14.529a.163.163 0 0 1 .177-.077l4.795 1.106 4.794-1.106a.163.163 0 0 1 .156.27l-4.83 5.202a.163.163 0 0 1-.24 0l-4.83-5.203a.163.163 0 0 1-.022-.192Zm.62.36 4.352 4.685 4.35-4.686-4.314.996a.164.164 0 0 1-.073 0l-4.314-.996Z" fill="#00171F"/><path d="M12.565 19.727V15.69l-4.818-1.107 4.818 5.144Z" fill="#00171F"/><path fill-rule="evenodd" clip-rule="evenodd" d="M7.615 14.529a.163.163 0 0 1 .177-.077l4.795 1.106 4.794-1.106a.163.163 0 0 1 .156.269l-4.83 5.203a.163.163 0 0 1-.24 0l-4.83-5.203a.163.163 0 0 1-.022-.192Zm.62.36 4.352 4.685 4.351-4.686-4.315.996a.164.164 0 0 1-.073 0l-4.314-.996Z" fill="#00171F"/><path d="M12.565 4.948v5.208l-5.86 1.432 5.86-6.64ZM8.803 6.509l-1.056 2.67h.558l2.177-2.67H8.803Z" fill="#00171F"/><path d="m8.203 6.485-.911 2.63c-.456-.13-1.166-.464-1.628-.977-.586-.651-.651-1.487-.651-2.279 0-.586.49-1.484.722-1.823-.013.038-.03.234 0 .716.039.603.154.98.656 1.394.4.331 1.375.364 1.812.339Z" fill="#fff"/><path fill-rule="evenodd" clip-rule="evenodd" d="M8.203 6.485a4.72 4.72 0 0 1-.346.005c-.485-.008-1.152-.084-1.466-.344-.502-.415-.617-.791-.656-1.394a10.574 10.574 0 0 1-.004-.067c-.025-.433-.008-.613.004-.649a5.35 5.35 0 0 0-.334.579c-.199.396-.388.88-.388 1.244 0 .792.065 1.628.651 2.279.462.513 1.172.846 1.628.976l.911-2.63Zm-.458.328L7.09 8.7c-.39-.156-.862-.423-1.184-.78-.497-.553-.568-1.273-.568-2.062 0-.158.05-.366.133-.593.028.132.066.26.12.383.121.279.312.516.592.747.277.23.703.328 1.057.375a5.3 5.3 0 0 0 .505.042Z" fill="#00171F"/><path d="m16.522 6.509 1.056 2.67h-.557l-2.177-2.67h1.678Z" fill="#00171F"/><path d="m17.122 6.485.912 2.63c.456-.13 1.166-.464 1.628-.977.585-.651.65-1.487.65-2.279 0-.586-.49-1.484-.722-1.823.013.038.031.234 0 .716-.038.603-.154.98-.655 1.394-.401.331-1.376.364-1.813.339Z" fill="#fff"/><path fill-rule="evenodd" clip-rule="evenodd" d="M17.122 6.485c.095.005.214.008.347.005.484-.008 1.151-.084 1.466-.344.501-.415.617-.791.655-1.394l.004-.067c.025-.433.009-.613-.004-.649.088.129.213.337.334.579.2.396.389.88.389 1.244 0 .792-.066 1.628-.651 2.279-.462.513-1.172.846-1.628.976l-.912-2.63Zm.459.328.654 1.888c.39-.156.863-.423 1.184-.78.497-.553.568-1.273.568-2.062 0-.158-.05-.366-.133-.593-.027.132-.065.26-.12.383-.12.279-.311.516-.592.747-.277.23-.702.328-1.057.375a5.3 5.3 0 0 1-.504.042Z" fill="#00171F"/><path d="M21.14 13.116a.977.977 0 1 0 0-1.953.977.977 0 0 0 0 1.953Z" fill="#A1FE9F"/><path fill-rule="evenodd" clip-rule="evenodd" d="M21.14 11.325a.814.814 0 1 0 0 1.628.814.814 0 0 0 0-1.627ZM20 12.14a1.14 1.14 0 1 1 2.279 0 1.14 1.14 0 0 1-2.279 0Z" fill="#00171F"/><path d="M3.71 19.01a.977.977 0 1 0 .001-1.953.977.977 0 0 0 0 1.954Z" fill="#2FFF2B"/><path fill-rule="evenodd" clip-rule="evenodd" d="M3.71 17.22a.814.814 0 1 0 0 1.628.814.814 0 0 0 0-1.628Zm-1.138.814a1.14 1.14 0 1 1 2.278 0 1.14 1.14 0 0 1-2.278 0Z" fill="#00171F"/><defs><filter id="a" x="-17.67" y="-9.809" width="60.745" height="52.617" filterUnits="userSpaceOnUse" color-interpolation-filters="sRGB"><feFlood flood-opacity="0" result="BackgroundImageFix"/><feGaussianBlur in="BackgroundImageFix" stdDeviation="10"/><feComposite in2="SourceAlpha" operator="in" result="effect1_backgroundBlur_16126_27159"/><feBlend in="SourceGraphic" in2="effect1_backgroundBlur_16126_27159" result="shape"/></filter><filter id="b" x="-17.829" y="-9.842" width="61.067" height="52.813" filterUnits="userSpaceOnUse" color-interpolation-filters="sRGB"><feFlood flood-opacity="0" result="BackgroundImageFix"/><feGaussianBlur in="BackgroundImageFix" stdDeviation="10"/><feComposite in2="SourceAlpha" operator="in" result="effect1_backgroundBlur_16126_27159"/><feBlend in="SourceGraphic" in2="effect1_backgroundBlur_16126_27159" result="shape"/></filter></defs></svg>