<svg width="25" height="25" viewBox="0 0 25 25" fill="none" xmlns="http://www.w3.org/2000/svg">
<path d="M24.8214 12.5236C24.8214 19.414 19.2649 24.9997 12.4107 24.9997C5.55646 24.9997 0 19.414 0 12.5236C0 5.63332 5.55646 0.0476074 12.4107 0.0476074C19.2649 0.0476074 24.8214 5.63332 24.8214 12.5236Z" fill="#D0E0FC"/>
<path fill-rule="evenodd" clip-rule="evenodd" d="M12.4107 24.6748C19.0864 24.6748 24.4982 19.2345 24.4982 12.5236C24.4982 5.81276 19.0864 0.372504 12.4107 0.372504C5.73495 0.372504 0.323195 5.81276 0.323195 12.5236C0.323195 19.2345 5.73495 24.6748 12.4107 24.6748ZM12.4107 24.9997C19.2649 24.9997 24.8214 19.414 24.8214 12.5236C24.8214 5.63332 19.2649 0.0476074 12.4107 0.0476074C5.55646 0.0476074 0 5.63332 0 12.5236C0 19.414 5.55646 24.9997 12.4107 24.9997Z" fill="#00171F"/>
<path fill-rule="evenodd" clip-rule="evenodd" d="M10.5526 2.30856C10.4309 2.33198 10.31 2.35758 10.19 2.38534C10.103 2.40545 10.0163 2.35087 9.99625 2.26343C9.97624 2.176 10.0305 2.08882 10.1175 2.06871C10.2414 2.04006 10.3662 2.01362 10.4919 1.98945C10.615 1.96578 10.738 1.94435 10.8609 1.92514C10.9491 1.91136 11.0317 1.97205 11.0454 2.0607C11.0591 2.14936 10.9987 2.2324 10.9105 2.24618C10.7913 2.26481 10.672 2.28559 10.5526 2.30856ZM12.1911 1.96373C12.1899 1.87402 12.2613 1.80034 12.3505 1.79915C12.6012 1.79583 12.8505 1.80151 13.0982 1.81597C13.1873 1.82116 13.2554 1.89799 13.2502 1.98755C13.245 2.07712 13.1686 2.14552 13.0795 2.14032C12.8395 2.12631 12.5978 2.1208 12.3548 2.12402C12.2656 2.12521 12.1923 2.05344 12.1911 1.96373ZM8.86809 2.61444C8.90071 2.69795 8.8598 2.79223 8.77673 2.82502C8.54616 2.91603 8.31986 3.01527 8.09813 3.12233C8.01768 3.16117 7.92114 3.1271 7.8825 3.04623C7.84386 2.96536 7.87775 2.86831 7.9582 2.82946C8.18703 2.71897 8.4206 2.61655 8.65861 2.5226C8.74168 2.48981 8.83547 2.53093 8.86809 2.61444ZM14.3904 2.13661C14.4082 2.0487 14.4935 1.99192 14.581 2.0098C14.8261 2.05991 15.0687 2.11867 15.3083 2.18581C15.3942 2.20989 15.4445 2.29948 15.4206 2.3859C15.3966 2.47233 15.3075 2.52286 15.2215 2.49878C14.9892 2.4337 14.7541 2.37675 14.5166 2.32818C14.4291 2.3103 14.3726 2.22453 14.3904 2.13661ZM6.85807 3.63703C6.90798 3.71141 6.88845 3.81238 6.81446 3.86255C6.60946 4.00155 6.4098 4.14777 6.21582 4.30077C6.14561 4.35616 6.04403 4.34383 5.98894 4.27325C5.93384 4.20267 5.9461 4.10055 6.01632 4.04517C6.21636 3.88738 6.42227 3.73658 6.63374 3.59319C6.70772 3.54302 6.80816 3.56265 6.85807 3.63703ZM16.5035 2.77435C16.5393 2.69219 16.6346 2.65481 16.7164 2.69086C16.945 2.79171 17.1698 2.90054 17.3903 3.0171C17.4693 3.05885 17.4996 3.15707 17.4581 3.23648C17.4166 3.31589 17.3189 3.34642 17.2399 3.30467C17.0261 3.19167 16.8081 3.08614 16.5865 2.98838C16.5048 2.95233 16.4676 2.8565 16.5035 2.77435ZM5.11406 5.07086C5.17855 5.13288 5.18081 5.23571 5.11912 5.30054C4.94832 5.48001 4.78391 5.66548 4.62623 5.85651C4.56923 5.92555 4.46736 5.93508 4.39867 5.87779C4.32999 5.82049 4.32052 5.71808 4.37751 5.64904C4.54004 5.45214 4.70951 5.26096 4.88558 5.07594C4.94727 5.01111 5.04957 5.00884 5.11406 5.07086ZM18.4357 3.84501C18.4879 3.77224 18.5889 3.75579 18.6613 3.80827C18.8635 3.95486 19.0606 4.10862 19.2521 4.26928C19.3207 4.32675 19.3299 4.42919 19.2727 4.49808C19.2156 4.56698 19.1137 4.57624 19.0451 4.51877C18.8594 4.36301 18.6683 4.21392 18.4722 4.07179C18.3998 4.01931 18.3835 3.91778 18.4357 3.84501ZM3.71034 6.8426C3.78635 6.88962 3.81005 6.98968 3.76328 7.06609C3.63391 7.27744 3.5119 7.49347 3.3976 7.71373C3.35632 7.79327 3.25871 7.82411 3.17958 7.78262C3.10045 7.74112 3.06977 7.643 3.11105 7.56345C3.22889 7.33637 3.35466 7.11368 3.48802 6.89582C3.5348 6.81941 3.63433 6.79558 3.71034 6.8426ZM20.1016 5.29918C20.1678 5.23906 20.27 5.2443 20.3298 5.3109C20.4966 5.49662 20.6572 5.68858 20.8111 5.88651C20.866 5.9572 20.8536 6.05929 20.7833 6.11454C20.7129 6.16979 20.6114 6.15728 20.5564 6.08659C20.4072 5.89474 20.2516 5.70866 20.0899 5.52862C20.0301 5.46202 20.0353 5.3593 20.1016 5.29918ZM2.7092 8.87167C2.7934 8.90142 2.83767 8.99415 2.80808 9.07879C2.72636 9.31253 2.65287 9.54958 2.58792 9.78953C2.56449 9.8761 2.47569 9.92718 2.38957 9.90363C2.30345 9.88007 2.25264 9.7908 2.27607 9.70423C2.34307 9.45668 2.41888 9.21214 2.50316 8.97106C2.53276 8.88642 2.625 8.84192 2.7092 8.87167ZM21.4251 7.07352C21.5025 7.02886 21.6013 7.05575 21.6457 7.13356C21.7694 7.35015 21.8858 7.57195 21.9947 7.79871C22.0335 7.87951 21.9997 7.97662 21.9194 8.01561C21.839 8.05461 21.7424 8.02071 21.7036 7.93991C21.5981 7.72014 21.4852 7.50518 21.3654 7.29527C21.321 7.21746 21.3477 7.11817 21.4251 7.07352ZM2.16337 11.0689C2.25199 11.0796 2.31521 11.1605 2.30459 11.2495C2.27534 11.4949 2.25493 11.7422 2.24367 11.9911C2.23961 12.0807 2.16405 12.15 2.0749 12.146C1.98574 12.1419 1.91675 12.0659 1.92081 11.9763C1.93243 11.7194 1.9535 11.4641 1.98369 11.2109C1.99431 11.1218 2.07476 11.0582 2.16337 11.0689ZM22.3441 9.08967C22.4291 9.06252 22.52 9.10984 22.547 9.19535C22.5846 9.31457 22.6203 9.43484 22.654 9.55612C22.678 9.64254 22.6277 9.73214 22.5417 9.75625C22.4558 9.78036 22.3666 9.72984 22.3427 9.64343C22.31 9.52583 22.2754 9.40923 22.2389 9.29365C22.2119 9.20814 22.259 9.11681 22.3441 9.08967ZM2.10862 13.3327C2.1974 13.3235 2.27677 13.3884 2.2859 13.4776C2.2985 13.6008 2.31339 13.7241 2.33061 13.8476C2.343 13.9364 2.2814 14.0185 2.19302 14.031C2.10463 14.0435 2.02294 13.9815 2.01055 13.8927C1.99277 13.7653 1.9774 13.638 1.9644 13.5109C1.95527 13.4216 2.01984 13.3418 2.10862 13.3327Z" fill="#00171F"/>
<g filter="url(#filter0_b_14730_5403)">
<path d="M2.31372 14.48C3.48396 20.1369 8.99339 23.7684 14.6207 22.592C20.248 21.4156 23.8605 15.8771 22.6902 10.2202" fill="#2E62EA"/>
</g>
<g filter="url(#filter1_b_14730_5403)">
<path fill-rule="evenodd" clip-rule="evenodd" d="M14.6536 22.7507C8.93892 23.9453 3.34393 20.2575 2.15552 14.5127L2.47194 14.4465C3.62402 20.0156 9.04787 23.5907 14.5878 22.4326C20.1277 21.2744 23.6841 15.822 22.532 10.2529L22.8484 10.1868C24.0369 15.9316 20.3683 21.556 14.6536 22.7507Z" fill="#00171F"/>
</g>
<path d="M13.0118 14.8148C18.6386 13.6385 22.9717 11.5813 22.6901 10.22C22.4085 8.85869 17.6188 8.70871 11.992 9.88501C6.36515 11.0613 2.032 13.1185 2.31362 14.4798C2.59523 15.8411 7.38496 15.9911 13.0118 14.8148Z" fill="#2E62EA"/>
<path fill-rule="evenodd" clip-rule="evenodd" d="M3.02257 13.4748C2.57344 13.8727 2.42081 14.2003 2.47178 14.4467C2.52275 14.6931 2.79266 14.9324 3.36234 15.1172C3.91819 15.2976 4.70197 15.4064 5.66323 15.4365C7.58313 15.4966 10.1741 15.2421 12.9788 14.6557C15.7835 14.0694 18.2607 13.2645 19.9975 12.4399C20.8672 12.027 21.5428 11.6132 21.9811 11.2249C22.4302 10.8271 22.5828 10.4995 22.5319 10.2531C22.4809 10.0067 22.211 9.76741 21.6413 9.58253C21.0855 9.40213 20.3017 9.29336 19.3404 9.26326C17.4205 9.20315 14.8295 9.45771 12.0248 10.044C9.22009 10.6304 6.74297 11.4353 5.00609 12.2599C4.13647 12.6727 3.4608 13.0866 3.02257 13.4748ZM4.86807 11.9661C6.63406 11.1277 9.13692 10.3159 11.959 9.72596C14.7811 9.13599 17.3984 8.8774 19.3505 8.93852C20.3252 8.96905 21.1433 9.0795 21.7406 9.27334C22.324 9.46269 22.7584 9.75266 22.8483 10.1869C22.9381 10.6212 22.6547 11.0612 22.1947 11.4687C21.7239 11.8858 21.0174 12.315 20.1356 12.7337C18.3696 13.5721 15.8667 14.3838 13.0446 14.9738C10.2225 15.5638 7.60524 15.8224 5.65317 15.7612C4.67844 15.7307 3.86031 15.6203 3.26305 15.4264C2.67961 15.2371 2.24519 14.9471 2.15536 14.5128C2.06552 14.0786 2.34893 13.6385 2.80889 13.2311C3.27977 12.8139 3.98626 12.3848 4.86807 11.9661Z" fill="#00171F"/>
<path d="M18.0699 10.9949C18.3025 9.42281 17.1148 8.58013 15.4865 8.01716L16.0152 5.8892L14.7252 5.567L14.2107 7.63831C13.8723 7.55333 13.5234 7.47189 13.178 7.394L13.6961 5.30853L12.4062 4.98633L11.8776 7.11428C11.5956 7.05055 11.3207 6.98682 11.0529 6.91955V6.91246L9.27657 6.46634L8.93471 7.85075C8.93471 7.85075 9.88981 8.07027 9.87219 8.08443C10.3938 8.21544 10.489 8.56243 10.4713 8.8386L9.86866 11.2604C9.8647 11.2693 9.86514 11.2675 9.86514 11.2675L9.02282 14.663C8.95938 14.8224 8.79726 15.0631 8.43072 14.9711C8.44482 14.9888 7.49324 14.7374 7.49324 14.7374L6.85181 16.2209L8.53645 16.6387C8.85012 16.7166 9.15322 16.7981 9.45631 16.876L8.92413 19.0287L10.2105 19.3509L10.7392 17.223C11.0916 17.3186 11.4335 17.4071 11.7648 17.4921L11.2396 19.6094L12.5296 19.9316L13.0617 17.7824C15.2609 18.2002 16.9139 18.0302 17.6082 16.0333C18.1685 14.4258 17.58 13.4981 16.424 12.8927C17.2663 12.7015 17.9007 12.1456 18.0699 10.9949ZM15.1235 15.1446C14.7252 16.752 12.0291 15.8846 11.1551 15.6651L11.8635 12.8148C12.7375 13.0343 15.5394 13.4663 15.1235 15.1446ZM15.5217 10.9736C15.1587 12.4359 12.9137 11.6924 12.1877 11.5118L12.8291 8.92712C13.5587 9.10769 15.9024 9.4476 15.5217 10.9736Z" fill="white"/>
<path fill-rule="evenodd" clip-rule="evenodd" d="M12.2807 4.9547C12.298 4.88512 12.368 4.84277 12.4373 4.86007L13.7272 5.18227C13.7605 5.19059 13.7891 5.21187 13.8068 5.24144C13.8245 5.271 13.8298 5.30642 13.8214 5.33988L13.3354 7.29632C13.5965 7.35576 13.8589 7.41727 14.1164 7.48084L14.5997 5.53538C14.617 5.4658 14.6871 5.42345 14.7563 5.44074L16.0462 5.76294C16.0795 5.77126 16.1082 5.79255 16.1258 5.82211C16.1435 5.85167 16.1488 5.88709 16.1405 5.92056L15.6404 7.93352C16.4148 8.21095 17.0978 8.55997 17.5677 9.03593C18.0664 9.54122 18.3202 10.1854 18.1976 11.0138C18.11 11.6098 17.9 12.0626 17.5937 12.3922C17.3595 12.6442 17.0739 12.819 16.7554 12.932C17.2177 13.2186 17.5779 13.5758 17.778 14.035C18.0165 14.5823 18.0174 15.2517 17.7301 16.076C17.3708 17.1094 16.7553 17.6842 15.9372 17.9374C15.1602 18.178 14.2134 18.1242 13.1577 17.9323L12.6549 19.9628C12.6377 20.0325 12.5675 20.0749 12.4983 20.0576L11.2084 19.7354C11.1751 19.7271 11.1464 19.7058 11.1287 19.6762C11.1111 19.6467 11.1058 19.6113 11.1141 19.5778L11.6081 17.5858C11.3559 17.5209 11.0973 17.4537 10.8326 17.3826L10.3358 19.3823C10.3185 19.4519 10.2484 19.4942 10.1792 19.4769L8.89276 19.1547C8.82351 19.1373 8.78134 19.0669 8.79856 18.9972L9.29981 16.9696C9.23146 16.9519 9.16322 16.934 9.0949 16.9162C8.90057 16.8654 8.70557 16.8145 8.50537 16.7648C8.50536 16.7648 8.50539 16.7648 8.50537 16.7648L6.82072 16.347C6.78376 16.3378 6.7527 16.3127 6.73582 16.2784C6.71894 16.2441 6.71795 16.2041 6.73313 16.169L7.37456 14.6855C7.39999 14.6266 7.46429 14.5953 7.52598 14.6116L7.52615 14.6116L7.52666 14.6117L7.56672 14.6223C7.59267 14.6291 7.62973 14.6389 7.67416 14.6505C7.76305 14.6738 7.88134 14.7046 7.99915 14.7348C8.1171 14.7651 8.23399 14.7947 8.32029 14.8155C8.36368 14.826 8.39813 14.834 8.4208 14.8388C8.42523 14.8397 8.42882 14.8404 8.43168 14.841C8.44173 14.8411 8.45188 14.8423 8.46194 14.8449C8.61096 14.8823 8.70338 14.8504 8.76451 14.8059C8.82872 14.7592 8.87227 14.6881 8.89951 14.6224L9.73935 11.2369L9.73947 11.2364L9.73953 11.2362L9.73959 11.2359C9.74133 11.2289 9.74362 11.2221 9.74638 11.2157L10.3429 8.81878C10.3488 8.70119 10.33 8.5801 10.2647 8.47652C10.1989 8.37229 10.0759 8.26943 9.84074 8.21038C9.82917 8.20747 9.81825 8.20303 9.80818 8.19728C9.80576 8.19651 9.80296 8.19565 9.79975 8.19468C9.77783 8.18808 9.74397 8.17885 9.70074 8.16765C9.61489 8.14539 9.49811 8.11685 9.37998 8.08856C9.26204 8.06032 9.14348 8.0325 9.05436 8.01173C9.00981 8.00135 8.97264 7.99274 8.94662 7.98672L8.90594 7.97734L8.90579 7.9773C8.87196 7.96953 8.84265 7.9484 8.82447 7.91869C8.80629 7.88897 8.80076 7.85316 8.80912 7.8193L9.15098 6.43489C9.15925 6.4014 9.18043 6.3726 9.20984 6.35482C9.23926 6.33704 9.27449 6.33175 9.30779 6.34012L11.0841 6.78624C11.098 6.78975 11.111 6.79547 11.1226 6.80297C11.3377 6.8566 11.5577 6.90811 11.7826 6.9594L12.2807 4.9547ZM9.09174 7.75364C9.09854 7.75522 9.10555 7.75685 9.11274 7.75853C9.20215 7.77936 9.32126 7.80731 9.4399 7.83572C9.55834 7.86408 9.67704 7.89308 9.76531 7.91597C9.80915 7.92733 9.84701 7.93758 9.87395 7.9457C9.88672 7.94954 9.90044 7.95391 9.91181 7.95841C9.91384 7.95922 9.91806 7.96089 9.92324 7.96334C10.1985 8.03652 10.3777 8.17028 10.483 8.33737C10.5892 8.50573 10.6101 8.69174 10.6002 8.84678C10.5997 8.85461 10.5985 8.86239 10.5966 8.87L9.99396 11.2918C9.99226 11.2987 9.99002 11.3053 9.98724 11.3118L9.14814 14.6943C9.14672 14.7001 9.14491 14.7057 9.14272 14.7112C9.10626 14.8028 9.0379 14.9278 8.91612 15.0165C8.79222 15.1066 8.62628 15.1493 8.41724 15.1013C8.41138 15.1009 8.40686 15.1003 8.4048 15.1L8.40454 15.0999C8.39375 15.0984 8.38065 15.0959 8.36794 15.0932C8.34127 15.0876 8.3037 15.0788 8.25986 15.0683C8.1717 15.047 8.05334 15.017 7.93516 14.9867C7.81683 14.9563 7.69811 14.9253 7.60902 14.902C7.59435 14.8982 7.58048 14.8945 7.56754 14.8912L7.03127 16.1315L8.5673 16.5124C8.76878 16.5625 8.96683 16.6142 9.16237 16.6653C9.2717 16.6938 9.38025 16.7222 9.48822 16.7499C9.55706 16.7676 9.5988 16.8379 9.58166 16.9072L9.08064 18.9339L10.1163 19.1933L10.6136 17.1913C10.6221 17.1575 10.6436 17.1284 10.6736 17.1108C10.7035 17.0931 10.7392 17.0883 10.7727 17.0973C11.1243 17.1927 11.4655 17.2811 11.7966 17.366C11.8655 17.3837 11.9073 17.454 11.8901 17.5234L11.3963 19.5145L12.4352 19.774L12.9362 17.7509C12.9527 17.684 13.0183 17.6418 13.0856 17.6546C14.1808 17.8626 15.1177 17.9192 15.8611 17.689C16.5929 17.4625 17.151 16.9538 17.486 15.9903C17.759 15.2072 17.7458 14.6089 17.5412 14.1392C17.3358 13.6678 16.9275 13.3029 16.3641 13.0078C16.316 12.9826 16.2887 12.9299 16.2957 12.8758C16.3027 12.8217 16.3425 12.7778 16.3954 12.7658C16.7968 12.6747 17.141 12.4986 17.4048 12.2148C17.6685 11.931 17.8603 11.5304 17.9419 10.9757C18.0519 10.2321 17.8281 9.66881 17.3841 9.21901C16.9337 8.76268 16.2522 8.41922 15.4443 8.13992C15.3809 8.11799 15.3447 8.05095 15.361 7.98553L15.8583 5.98381L14.8193 5.72429L14.336 7.66966C14.3277 7.7031 14.3065 7.73185 14.2771 7.74959C14.2477 7.76733 14.2125 7.77261 14.1792 7.76425C13.8423 7.67962 13.4944 7.59843 13.1496 7.52067C13.1156 7.513 13.0862 7.49188 13.0679 7.46209C13.0496 7.43229 13.0441 7.39634 13.0525 7.36237L13.5392 5.40314L12.5002 5.14362L12.0029 7.14563C11.9859 7.21411 11.9176 7.25642 11.8491 7.24094C11.5668 7.17712 11.2907 7.11313 11.0214 7.04549C11.0074 7.04197 10.9944 7.03624 10.9828 7.02871L9.37073 6.62383L9.09174 7.75364ZM8.44026 14.8425C8.44014 14.8425 8.43998 14.8425 8.4398 14.8425C8.441 14.8426 8.44125 14.8427 8.44026 14.8425ZM12.7036 8.89552C12.7208 8.82603 12.7907 8.78367 12.8599 8.80079C12.9281 8.81767 13.0129 8.83636 13.1101 8.85777C13.5127 8.9465 14.1271 9.0819 14.6468 9.32814C14.9709 9.48171 15.2733 9.68473 15.4692 9.95966C15.6691 10.2403 15.7513 10.5869 15.6471 11.005C15.5467 11.4091 15.3123 11.6674 15.0061 11.8168C14.7061 11.9632 14.3445 12.0017 13.986 11.9885C13.3902 11.9666 12.7613 11.7985 12.3645 11.6923C12.2852 11.6711 12.2152 11.6524 12.1565 11.6378C12.1232 11.6296 12.0945 11.6083 12.0768 11.5787C12.0591 11.5491 12.0538 11.5137 12.0621 11.4802L12.7036 8.89552ZM12.9236 9.08269L12.3441 11.4179C12.3747 11.426 12.4068 11.4345 12.4402 11.4435C12.8396 11.55 13.4323 11.7081 13.9955 11.7288C14.3344 11.7413 14.6475 11.7028 14.8932 11.583C15.1327 11.4661 15.315 11.2691 15.3962 10.942L15.3962 10.9419C15.4823 10.597 15.4142 10.3289 15.259 10.111C15.0997 9.88735 14.842 9.70797 14.5365 9.56324C14.0469 9.33125 13.4737 9.20453 13.0694 9.11517C13.0179 9.10378 12.9691 9.093 12.9236 9.08269ZM11.7379 12.7832C11.7552 12.7135 11.8254 12.6712 11.8947 12.6886C11.9791 12.7098 12.084 12.7334 12.204 12.7604C12.6863 12.869 13.4123 13.0325 14.0304 13.3141C14.4175 13.4905 14.7778 13.7194 15.0142 14.0232C15.2553 14.333 15.3629 14.7155 15.2488 15.1758C15.1387 15.6205 14.8655 15.898 14.5099 16.0539C14.1609 16.2068 13.736 16.2417 13.3109 16.2196C12.5967 16.1824 11.8395 15.9807 11.3622 15.8535C11.2719 15.8295 11.1917 15.8081 11.1236 15.791C11.0903 15.7826 11.0617 15.7613 11.0441 15.7318C11.0265 15.7022 11.0212 15.6669 11.0295 15.6334L11.7379 12.7832ZM11.9577 12.971L11.3115 15.5712C11.3508 15.5815 11.3924 15.5926 11.4359 15.6041C11.9156 15.7317 12.6403 15.9244 13.3243 15.96C13.7322 15.9813 14.1107 15.9453 14.4065 15.8157C14.6957 15.6889 14.909 15.4721 14.9979 15.113C15.0918 14.7342 15.0051 14.4334 14.8105 14.1833C14.6112 13.9272 14.2944 13.7197 13.9237 13.5509C13.3332 13.2819 12.6453 13.1266 12.1617 13.0175C12.0887 13.001 12.0204 12.9856 11.9577 12.971Z" fill="black"/>
<path fill-rule="evenodd" clip-rule="evenodd" d="M5.66339 15.4364C7.58329 15.4965 10.1743 15.2419 12.979 14.6556C15.7837 14.0692 18.2608 13.2643 19.9977 12.4397C20.8673 12.0269 21.543 11.613 21.9812 11.2248C22.4304 10.8269 22.583 10.4993 22.532 10.2529L22.8484 10.1868C22.9383 10.621 22.6549 11.0611 22.1949 11.4685C21.724 11.8857 21.0175 12.3149 20.1357 12.7335C18.3697 13.5719 15.8669 14.3837 13.0448 14.9737C10.2227 15.5636 7.6054 15.8222 5.65333 15.7611C4.6786 15.7306 3.86047 15.6201 3.26321 15.4263C2.67977 15.2369 2.24535 14.947 2.15552 14.5127L2.47194 14.4465C2.52291 14.6929 2.79281 14.9322 3.3625 15.1171C3.91835 15.2975 4.70213 15.4063 5.66339 15.4364Z" fill="#00171F"/>
<path d="M18.9393 19.2819C19.4748 19.2819 19.9089 18.8455 19.9089 18.3072C19.9089 17.7689 19.4748 17.3325 18.9393 17.3325C18.4038 17.3325 17.9697 17.7689 17.9697 18.3072C17.9697 18.8455 18.4038 19.2819 18.9393 19.2819Z" fill="white"/>
<path fill-rule="evenodd" clip-rule="evenodd" d="M18.9393 17.4948C18.493 17.4948 18.1313 17.8585 18.1313 18.3071C18.1313 18.7557 18.493 19.1193 18.9393 19.1193C19.3855 19.1193 19.7473 18.7557 19.7473 18.3071C19.7473 17.8585 19.3855 17.4948 18.9393 17.4948ZM17.8081 18.3071C17.8081 17.679 18.3146 17.1699 18.9393 17.1699C19.564 17.1699 20.0705 17.679 20.0705 18.3071C20.0705 18.9351 19.564 19.4442 18.9393 19.4442C18.3146 19.4442 17.8081 18.9351 17.8081 18.3071Z" fill="#00171F"/>
<path d="M3.68443 19.0219C4.21992 19.0219 4.65401 18.5855 4.65401 18.0472C4.65401 17.5089 4.21992 17.0725 3.68443 17.0725C3.14894 17.0725 2.71484 17.5089 2.71484 18.0472C2.71484 18.5855 3.14894 19.0219 3.68443 19.0219Z" fill="#180D68"/>
<path fill-rule="evenodd" clip-rule="evenodd" d="M3.68441 17.2351C3.23817 17.2351 2.87642 17.5987 2.87642 18.0473C2.87642 18.4959 3.23817 18.8595 3.68441 18.8595C4.13065 18.8595 4.49239 18.4959 4.49239 18.0473C4.49239 17.5987 4.13065 17.2351 3.68441 17.2351ZM2.55322 18.0473C2.55322 17.4193 3.05967 16.9102 3.68441 16.9102C4.30914 16.9102 4.81559 17.4193 4.81559 18.0473C4.81559 18.6753 4.30914 19.1844 3.68441 19.1844C3.05967 19.1844 2.55322 18.6753 2.55322 18.0473Z" fill="#00171F"/>
<path d="M6.52869 8.62516C7.06433 8.62516 7.49855 8.18878 7.49855 7.65047C7.49855 7.11217 7.06433 6.67578 6.52869 6.67578C5.99306 6.67578 5.55884 7.11217 5.55884 7.65047C5.55884 8.18878 5.99306 8.62516 6.52869 8.62516Z" fill="#2F43EC"/>
<path fill-rule="evenodd" clip-rule="evenodd" d="M6.52891 6.83832C6.08248 6.83832 5.72066 7.20202 5.72066 7.65057C5.72066 8.09911 6.08248 8.46281 6.52891 8.46281C6.97534 8.46281 7.33717 8.09911 7.33717 7.65057C7.33717 7.20202 6.97534 6.83832 6.52891 6.83832ZM5.39746 7.65057C5.39746 7.0225 5.90407 6.51343 6.52891 6.51343C7.15376 6.51343 7.66037 7.0225 7.66037 7.65057C7.66037 8.27863 7.15376 8.78771 6.52891 8.78771C5.90407 8.78771 5.39746 8.27863 5.39746 7.65057Z" fill="#00171F"/>
<path d="M19.4564 5.89616C19.9919 5.89616 20.426 5.45978 20.426 4.92147C20.426 4.38316 19.9919 3.94678 19.4564 3.94678C18.9209 3.94678 18.4868 4.38316 18.4868 4.92147C18.4868 5.45978 18.9209 5.89616 19.4564 5.89616Z" fill="#071C33"/>
<path fill-rule="evenodd" clip-rule="evenodd" d="M19.4564 4.10908C19.0101 4.10908 18.6484 4.47273 18.6484 4.92132C18.6484 5.36991 19.0101 5.73356 19.4564 5.73356C19.9026 5.73356 20.2644 5.36991 20.2644 4.92132C20.2644 4.47273 19.9026 4.10908 19.4564 4.10908ZM18.3252 4.92132C18.3252 4.29329 18.8316 3.78418 19.4564 3.78418C20.0811 3.78418 20.5876 4.29329 20.5876 4.92132C20.5876 5.54934 20.0811 6.05846 19.4564 6.05846C18.8316 6.05846 18.3252 5.54934 18.3252 4.92132Z" fill="#00171F"/>
<defs>
<filter id="filter0_b_14730_5403" x="-17.6863" y="-9.77979" width="60.5967" height="52.593" filterUnits="userSpaceOnUse" color-interpolation-filters="sRGB">
<feFlood flood-opacity="0" result="BackgroundImageFix"/>
<feGaussianBlur in="BackgroundImageFix" stdDeviation="10"/>
<feComposite in2="SourceAlpha" operator="in" result="effect1_backgroundBlur_14730_5403"/>
<feBlend mode="normal" in="SourceGraphic" in2="effect1_backgroundBlur_14730_5403" result="shape"/>
</filter>
<filter id="filter1_b_14730_5403" x="-17.8445" y="-9.81323" width="60.9165" height="52.7886" filterUnits="userSpaceOnUse" color-interpolation-filters="sRGB">
<feFlood flood-opacity="0" result="BackgroundImageFix"/>
<feGaussianBlur in="BackgroundImageFix" stdDeviation="10"/>
<feComposite in2="SourceAlpha" operator="in" result="effect1_backgroundBlur_14730_5403"/>
<feBlend mode="normal" in="SourceGraphic" in2="effect1_backgroundBlur_14730_5403" result="shape"/>
</filter>
</defs>
</svg>
