<svg width="25" height="25" viewBox="0 0 25 25" fill="none" xmlns="http://www.w3.org/2000/svg">
<g clip-path="url(#clip0_6528_64503)">
<path d="M12.5001 24.6622C19.217 24.6622 24.6622 19.217 24.6622 12.5001C24.6622 5.78308 19.217 0.337891 12.5001 0.337891C5.78308 0.337891 0.337891 5.78308 0.337891 12.5001C0.337891 19.217 5.78308 24.6622 12.5001 24.6622Z" fill="url(#paint0_linear_6528_64503)" stroke="#312751"/>
<mask id="mask0_6528_64503" style="mask-type:alpha" maskUnits="userSpaceOnUse" x="-1" y="-1" width="27" height="27">
<path d="M12.5001 24.6622C19.217 24.6622 24.6622 19.217 24.6622 12.5001C24.6622 5.78308 19.217 0.337891 12.5001 0.337891C5.78308 0.337891 0.337891 5.78308 0.337891 12.5001C0.337891 19.217 5.78308 24.6622 12.5001 24.6622Z" fill="url(#paint1_linear_6528_64503)" stroke="#312751"/>
</mask>
<g mask="url(#mask0_6528_64503)">
<mask id="mask1_6528_64503" style="mask-type:alpha" maskUnits="userSpaceOnUse" x="-1" y="-1" width="27" height="28">
<path d="M26 10.8179C26 18.3208 22.3155 26.1702 14.5106 26.1702C6.7058 26.1702 -1 20.8611 -1 13.3582C-1 5.85539 3.48877 -1 11.2936 -1C19.0985 -1 26 3.31509 26 10.8179Z" fill="#D9D9D9"/>
</mask>
<g mask="url(#mask1_6528_64503)">
<g filter="url(#filter0_i_6528_64503)">
<path d="M11.9125 -0.986969C4.46387 -0.662486 -1.31145 5.63887 -0.986969 13.0875C-0.662486 20.5361 5.63886 26.3115 13.0875 25.987C20.5361 25.6625 26.3115 19.3611 25.987 11.9125C25.6625 4.46388 19.3612 -1.31145 11.9125 -0.986969Z" fill="url(#paint2_linear_6528_64503)"/>
<path d="M13.011 15.7367C12.8344 15.84 12.6157 15.8392 12.4403 15.7343L7.60295 12.8429C7.33583 12.6834 7.25004 12.3366 7.41189 12.0708L12.2985 4.04663C12.518 3.68625 13.042 3.68872 13.2581 4.05118L18.0677 12.1193C18.2269 12.3865 18.1379 12.7322 17.8697 12.8894L13.011 15.7367Z" stroke="#D3ECEC" stroke-width="0.309689"/>
<path d="M13.0186 13.9417C12.8422 14.0451 12.6235 14.044 12.448 13.9392L9.20257 11.9994C8.93545 11.8398 8.84965 11.493 9.01151 11.2272L12.2899 5.84376C12.5094 5.48336 13.0335 5.48584 13.2496 5.84829L16.4764 11.2613C16.6356 11.5284 16.5468 11.8741 16.2784 12.0314L13.0186 13.9417Z" stroke="#D3ECEC" stroke-width="0.309689"/>
<path d="M13.0271 11.7979C12.8506 11.9013 12.6319 11.9004 12.4564 11.7955L11.1096 10.9904C10.8424 10.8308 10.7566 10.4841 10.9185 10.2183L12.279 7.98415C12.4985 7.62374 13.0226 7.62621 13.2386 7.9887L14.5778 10.2351C14.737 10.5023 14.6482 10.848 14.3798 11.0052L13.0271 11.7979Z" stroke="#D3ECEC" stroke-width="0.309689"/>
<path d="M13.1601 20.998C12.9355 21.3115 12.4685 21.3093 12.2466 20.9939L8.81787 16.118C8.47013 15.6235 9.04403 15.005 9.56313 15.3147L12.3459 16.9754C12.577 17.1133 12.8649 17.1147 13.0972 16.9788L15.8948 15.3434C16.4168 15.0382 16.9851 15.6619 16.6328 16.1533L13.1601 20.998Z" stroke="#D3ECEC" stroke-width="0.309689"/>
<path d="M13.204 19.5134C12.9793 19.827 12.5123 19.8248 12.2905 19.5094L11.6696 18.6264C11.334 18.1491 11.888 17.5521 12.389 17.8511C12.614 17.9854 12.8942 17.9867 13.1205 17.8545C13.6242 17.56 14.1727 18.1621 13.8328 18.6363L13.204 19.5134Z" stroke="#D3ECEC" stroke-width="0.309689"/>
</g>
</g>
</g>
</g>
<defs>
<filter id="filter0_i_6528_64503" x="-1" y="-1" width="27" height="28.1613" filterUnits="userSpaceOnUse" color-interpolation-filters="sRGB">
<feFlood flood-opacity="0" result="BackgroundImageFix"/>
<feBlend mode="normal" in="SourceGraphic" in2="BackgroundImageFix" result="shape"/>
<feColorMatrix in="SourceAlpha" type="matrix" values="0 0 0 0 0 0 0 0 0 0 0 0 0 0 0 0 0 0 127 0" result="hardAlpha"/>
<feOffset dy="1.16134"/>
<feGaussianBlur stdDeviation="3.0685"/>
<feComposite in2="hardAlpha" operator="arithmetic" k2="-1" k3="1"/>
<feColorMatrix type="matrix" values="0 0 0 0 0.122917 0 0 0 0 0.5 0 0 0 0 0.5 0 0 0 1 0"/>
<feBlend mode="normal" in2="shape" result="effect1_innerShadow_6528_64503"/>
</filter>
<linearGradient id="paint0_linear_6528_64503" x1="3.85926" y1="20.8915" x2="21.0325" y2="3.81646" gradientUnits="userSpaceOnUse">
<stop stop-color="#1C1636"/>
<stop offset="1" stop-color="#201D58"/>
</linearGradient>
<linearGradient id="paint1_linear_6528_64503" x1="3.85926" y1="20.8915" x2="21.0325" y2="3.81646" gradientUnits="userSpaceOnUse">
<stop stop-color="#1C1636"/>
<stop offset="1" stop-color="#201D58"/>
</linearGradient>
<linearGradient id="paint2_linear_6528_64503" x1="11.9125" y1="-0.986969" x2="13.0875" y2="25.987" gradientUnits="userSpaceOnUse">
<stop stop-color="#075A5A"/>
<stop offset="1" stop-color="#093535"/>
</linearGradient>
<clipPath id="clip0_6528_64503">
<rect width="25" height="25" rx="12.5" fill="white"/>
</clipPath>
</defs>
</svg>
